G04 #@! TF.GenerationSoftware,KiCad,Pcbnew,(5.1.4)-1*
G04 #@! TF.CreationDate,2021-08-31T17:20:46-10:00*
G04 #@! TF.ProjectId,oya45,6f796134-352e-46b6-9963-61645f706362,rev?*
G04 #@! TF.SameCoordinates,Original*
G04 #@! TF.FileFunction,Copper,L1,Top*
G04 #@! TF.FilePolarity,Positive*
%FSLAX46Y46*%
G04 Gerber Fmt 4.6, Leading zero omitted, Abs format (unit mm)*
G04 Created by KiCad (PCBNEW (5.1.4)-1) date 2021-08-31 17:20:46*
%MOMM*%
%LPD*%
G04 APERTURE LIST*
%ADD10C,2.250000*%
%ADD11R,1.000000X1.400000*%
%ADD12R,1.752600X1.752600*%
%ADD13C,1.752600*%
%ADD14C,0.254000*%
G04 APERTURE END LIST*
D10*
X146685000Y-35560000D03*
X140335000Y-33020000D03*
D11*
X211137500Y-37118750D03*
X211137500Y-40668750D03*
X207962500Y-37118750D03*
X207962500Y-40668750D03*
X190500000Y-37118750D03*
X190500000Y-40668750D03*
X171450000Y-37118750D03*
X171450000Y-40668750D03*
X152400000Y-37118750D03*
X152400000Y-40668750D03*
X220662500Y-113318750D03*
X220662500Y-116868750D03*
X217487500Y-113318750D03*
X217487500Y-116868750D03*
X200025000Y-113318750D03*
X200025000Y-116868750D03*
X182562500Y-113318750D03*
X182562500Y-116868750D03*
X179387500Y-113318750D03*
X179387500Y-116868750D03*
X106362500Y-113318750D03*
X106362500Y-116868750D03*
X103187500Y-113318750D03*
X103187500Y-116868750D03*
X85725000Y-113318750D03*
X85725000Y-116868750D03*
X68262500Y-113318750D03*
X68262500Y-116868750D03*
X65087500Y-113318750D03*
X65087500Y-116868750D03*
X220662500Y-94268750D03*
X220662500Y-97818750D03*
X217487500Y-94268750D03*
X217487500Y-97818750D03*
X200025000Y-94268750D03*
X200025000Y-97818750D03*
X180975000Y-94268750D03*
X180975000Y-97818750D03*
X161925000Y-94268750D03*
X161925000Y-97818750D03*
X142875000Y-94268750D03*
X142875000Y-97818750D03*
X123825000Y-94268750D03*
X123825000Y-97818750D03*
X104775000Y-94268750D03*
X104775000Y-97818750D03*
X85725000Y-94268750D03*
X85725000Y-97818750D03*
X66675000Y-94268750D03*
X66675000Y-97818750D03*
X220662500Y-75218750D03*
X220662500Y-78768750D03*
X217487500Y-75218750D03*
X217487500Y-78768750D03*
X200025000Y-75218750D03*
X200025000Y-78768750D03*
X180975000Y-75218750D03*
X180975000Y-78768750D03*
X161925000Y-75218750D03*
X161925000Y-78768750D03*
X142875000Y-75218750D03*
X142875000Y-78768750D03*
X123825000Y-75218750D03*
X123825000Y-78768750D03*
X104775000Y-75218750D03*
X104775000Y-78768750D03*
X85725000Y-75218750D03*
X85725000Y-78768750D03*
X66675000Y-75218750D03*
X66675000Y-78768750D03*
X220662500Y-56168750D03*
X220662500Y-59718750D03*
X217487500Y-56168750D03*
X217487500Y-59718750D03*
X200025000Y-56168750D03*
X200025000Y-59718750D03*
X180975000Y-56168750D03*
X180975000Y-59718750D03*
X161925000Y-56168750D03*
X161925000Y-59718750D03*
X142875000Y-56168750D03*
X142875000Y-59718750D03*
X123825000Y-56168750D03*
X123825000Y-59718750D03*
X104775000Y-56168750D03*
X104775000Y-59718750D03*
X85725000Y-56168750D03*
X85725000Y-59718750D03*
X66675000Y-56168750D03*
X66675000Y-59718750D03*
D10*
X203835000Y-35560000D03*
X197485000Y-33020000D03*
X222885000Y-35560000D03*
X216535000Y-33020000D03*
D12*
X103505000Y-30480000D03*
D13*
X106045000Y-30480000D03*
X108585000Y-30480000D03*
X111125000Y-30480000D03*
X113665000Y-30480000D03*
X116205000Y-30480000D03*
X118745000Y-30480000D03*
X121285000Y-30480000D03*
X123825000Y-30480000D03*
X126365000Y-30480000D03*
X128905000Y-30480000D03*
X131445000Y-45720000D03*
X128905000Y-45720000D03*
X126365000Y-45720000D03*
X123825000Y-45720000D03*
X121285000Y-45720000D03*
X118745000Y-45720000D03*
X116205000Y-45720000D03*
X113665000Y-45720000D03*
X111125000Y-45720000D03*
X108585000Y-45720000D03*
X106045000Y-45720000D03*
X131445000Y-30480000D03*
X103505000Y-45720000D03*
D10*
X165735000Y-111760000D03*
X159385000Y-109220000D03*
X127635000Y-111760000D03*
X121285000Y-109220000D03*
X140335000Y-109220000D03*
X146685000Y-111760000D03*
X184785000Y-35560000D03*
X178435000Y-33020000D03*
X165735000Y-35560000D03*
X159385000Y-33020000D03*
X232410000Y-111760000D03*
X226060000Y-109220000D03*
X213360000Y-111760000D03*
X207010000Y-109220000D03*
X194310000Y-111760000D03*
X187960000Y-109220000D03*
X175260000Y-111760000D03*
X168910000Y-109220000D03*
X156210000Y-111760000D03*
X149860000Y-109220000D03*
X137160000Y-111760000D03*
X130810000Y-109220000D03*
X118110000Y-111760000D03*
X111760000Y-109220000D03*
X99060000Y-111760000D03*
X92710000Y-109220000D03*
X80010000Y-111760000D03*
X73660000Y-109220000D03*
X60960000Y-111760000D03*
X54610000Y-109220000D03*
X232410000Y-92710000D03*
X226060000Y-90170000D03*
X213360000Y-92710000D03*
X207010000Y-90170000D03*
X194310000Y-92710000D03*
X187960000Y-90170000D03*
X175260000Y-92710000D03*
X168910000Y-90170000D03*
X156210000Y-92710000D03*
X149860000Y-90170000D03*
X137160000Y-92710000D03*
X130810000Y-90170000D03*
X118110000Y-92710000D03*
X111760000Y-90170000D03*
X99060000Y-92710000D03*
X92710000Y-90170000D03*
X80010000Y-92710000D03*
X73660000Y-90170000D03*
X60960000Y-92710000D03*
X54610000Y-90170000D03*
X232410000Y-73660000D03*
X226060000Y-71120000D03*
X213360000Y-73660000D03*
X207010000Y-71120000D03*
X194310000Y-73660000D03*
X187960000Y-71120000D03*
X175260000Y-73660000D03*
X168910000Y-71120000D03*
X156210000Y-73660000D03*
X149860000Y-71120000D03*
X137160000Y-73660000D03*
X130810000Y-71120000D03*
X118110000Y-73660000D03*
X111760000Y-71120000D03*
X99060000Y-73660000D03*
X92710000Y-71120000D03*
X80010000Y-73660000D03*
X73660000Y-71120000D03*
X60960000Y-73660000D03*
X54610000Y-71120000D03*
X232410000Y-54610000D03*
X226060000Y-52070000D03*
X213360000Y-54610000D03*
X207010000Y-52070000D03*
X194310000Y-54610000D03*
X187960000Y-52070000D03*
X175260000Y-54610000D03*
X168910000Y-52070000D03*
X156210000Y-54610000D03*
X149860000Y-52070000D03*
X137160000Y-54610000D03*
X130810000Y-52070000D03*
X118110000Y-54610000D03*
X111760000Y-52070000D03*
X99060000Y-54610000D03*
X92710000Y-52070000D03*
X80010000Y-54610000D03*
X73660000Y-52070000D03*
X60960000Y-54610000D03*
X54610000Y-52070000D03*
D14*
X67429000Y-59718750D02*
X220662500Y-59718750D01*
X66675000Y-59718750D02*
X67429000Y-59718750D01*
X49514270Y-59718750D02*
X49326770Y-59531250D01*
X66675000Y-59718750D02*
X49514270Y-59718750D01*
X49326770Y-59531250D02*
X49326770Y-49441040D01*
X117563960Y-49441040D02*
X121285000Y-45720000D01*
X49326770Y-49441040D02*
X117563960Y-49441040D01*
X66675000Y-52260500D02*
X66675000Y-53340000D01*
X66484500Y-52070000D02*
X66675000Y-52260500D01*
X54610000Y-52070000D02*
X66484500Y-52070000D01*
X66675000Y-53340000D02*
X66675000Y-56168750D01*
X85725000Y-52260500D02*
X85725000Y-53340000D01*
X85534500Y-52070000D02*
X85725000Y-52260500D01*
X73660000Y-52070000D02*
X85534500Y-52070000D01*
X85725000Y-53340000D02*
X85725000Y-56168750D01*
X104775000Y-52260500D02*
X104775000Y-53340000D01*
X104584500Y-52070000D02*
X104775000Y-52260500D01*
X92710000Y-52070000D02*
X104584500Y-52070000D01*
X104775000Y-53340000D02*
X104775000Y-56168750D01*
X123825000Y-52260500D02*
X123825000Y-53340000D01*
X123634500Y-52070000D02*
X123825000Y-52260500D01*
X111760000Y-52070000D02*
X123634500Y-52070000D01*
X123825000Y-53340000D02*
X123825000Y-56168750D01*
X142875000Y-52260500D02*
X142875000Y-53340000D01*
X142684500Y-52070000D02*
X142875000Y-52260500D01*
X130810000Y-52070000D02*
X142684500Y-52070000D01*
X161925000Y-52260500D02*
X161925000Y-53340000D01*
X161734500Y-52070000D02*
X161925000Y-52260500D01*
X149860000Y-52070000D02*
X161734500Y-52070000D01*
X161925000Y-53340000D02*
X161925000Y-56168750D01*
X180975000Y-52260500D02*
X180975000Y-53340000D01*
X180784500Y-52070000D02*
X180975000Y-52260500D01*
X168910000Y-52070000D02*
X180784500Y-52070000D01*
X180975000Y-53340000D02*
X180975000Y-56168750D01*
X200025000Y-52260500D02*
X200025000Y-53340000D01*
X199834500Y-52070000D02*
X200025000Y-52260500D01*
X187960000Y-52070000D02*
X199834500Y-52070000D01*
X200025000Y-53340000D02*
X200025000Y-56168750D01*
X217297000Y-52070000D02*
X217487500Y-52260500D01*
X207010000Y-52070000D02*
X217297000Y-52070000D01*
X217487500Y-53181250D02*
X217487500Y-56168750D01*
X217487500Y-53181250D02*
X217487500Y-53340000D01*
X217487500Y-52260500D02*
X217487500Y-53181250D01*
X220853000Y-52070000D02*
X220662500Y-52260500D01*
X226060000Y-52070000D02*
X220853000Y-52070000D01*
X220662500Y-53181250D02*
X220662500Y-56168750D01*
X220662500Y-53181250D02*
X220662500Y-53340000D01*
X220662500Y-52260500D02*
X220662500Y-53181250D01*
X66675000Y-78768750D02*
X220662500Y-78768750D01*
X48872760Y-78768750D02*
X48872760Y-48987030D01*
X66675000Y-78768750D02*
X48872760Y-78768750D01*
X115477970Y-48987030D02*
X118745000Y-45720000D01*
X48872760Y-48987030D02*
X115477970Y-48987030D01*
X66675000Y-71310500D02*
X66675000Y-72390000D01*
X66484500Y-71120000D02*
X66675000Y-71310500D01*
X54610000Y-71120000D02*
X66484500Y-71120000D01*
X66675000Y-72390000D02*
X66675000Y-75218750D01*
X85725000Y-71310500D02*
X85725000Y-72390000D01*
X85534500Y-71120000D02*
X85725000Y-71310500D01*
X73660000Y-71120000D02*
X85534500Y-71120000D01*
X85725000Y-72390000D02*
X85725000Y-75218750D01*
X104775000Y-71310500D02*
X104775000Y-72390000D01*
X104584500Y-71120000D02*
X104775000Y-71310500D01*
X92710000Y-71120000D02*
X104584500Y-71120000D01*
X104775000Y-72390000D02*
X104775000Y-75218750D01*
X123825000Y-71310500D02*
X123825000Y-72390000D01*
X123634500Y-71120000D02*
X123825000Y-71310500D01*
X111760000Y-71120000D02*
X123634500Y-71120000D01*
X123825000Y-72390000D02*
X123825000Y-75218750D01*
X142875000Y-71310500D02*
X142875000Y-72390000D01*
X142684500Y-71120000D02*
X142875000Y-71310500D01*
X130810000Y-71120000D02*
X142684500Y-71120000D01*
X142875000Y-72390000D02*
X142875000Y-75218750D01*
X161925000Y-71310500D02*
X161925000Y-72390000D01*
X161734500Y-71120000D02*
X161925000Y-71310500D01*
X149860000Y-71120000D02*
X161734500Y-71120000D01*
X161925000Y-72390000D02*
X161925000Y-75218750D01*
X180975000Y-71310500D02*
X180975000Y-72390000D01*
X180784500Y-71120000D02*
X180975000Y-71310500D01*
X168910000Y-71120000D02*
X180784500Y-71120000D01*
X180975000Y-72390000D02*
X180975000Y-75218750D01*
X199834500Y-71120000D02*
X200025000Y-71310500D01*
X187960000Y-71120000D02*
X199834500Y-71120000D01*
X200025000Y-72231250D02*
X200025000Y-75218750D01*
X200025000Y-72231250D02*
X200025000Y-72390000D01*
X200025000Y-71310500D02*
X200025000Y-72231250D01*
X217297000Y-71120000D02*
X217487500Y-71310500D01*
X207010000Y-71120000D02*
X217297000Y-71120000D01*
X217487500Y-72231250D02*
X217487500Y-75218750D01*
X217487500Y-72231250D02*
X217487500Y-72390000D01*
X217487500Y-71310500D02*
X217487500Y-72231250D01*
X220662500Y-71310500D02*
X220662500Y-72390000D01*
X220853000Y-71120000D02*
X220662500Y-71310500D01*
X226060000Y-71120000D02*
X220853000Y-71120000D01*
X220662500Y-72390000D02*
X220662500Y-75218750D01*
X67429000Y-97818750D02*
X220662500Y-97818750D01*
X66675000Y-97818750D02*
X67429000Y-97818750D01*
X66675000Y-97818750D02*
X66522760Y-97970990D01*
X48606250Y-97818750D02*
X48418750Y-97631250D01*
X66675000Y-97818750D02*
X48606250Y-97818750D01*
X48418750Y-97631250D02*
X48418750Y-48533020D01*
X113391980Y-48533020D02*
X116205000Y-45720000D01*
X48418750Y-48533020D02*
X113391980Y-48533020D01*
X66675000Y-90360500D02*
X66675000Y-91440000D01*
X66484500Y-90170000D02*
X66675000Y-90360500D01*
X54610000Y-90170000D02*
X66484500Y-90170000D01*
X66675000Y-91440000D02*
X66675000Y-94268750D01*
X85725000Y-90360500D02*
X85725000Y-91440000D01*
X85534500Y-90170000D02*
X85725000Y-90360500D01*
X73660000Y-90170000D02*
X85534500Y-90170000D01*
X85725000Y-91440000D02*
X85725000Y-94268750D01*
X104775000Y-90360500D02*
X104775000Y-91440000D01*
X104584500Y-90170000D02*
X104775000Y-90360500D01*
X92710000Y-90170000D02*
X104584500Y-90170000D01*
X104775000Y-91440000D02*
X104775000Y-94268750D01*
X123825000Y-90360500D02*
X123825000Y-91440000D01*
X123634500Y-90170000D02*
X123825000Y-90360500D01*
X111760000Y-90170000D02*
X123634500Y-90170000D01*
X123825000Y-91440000D02*
X123825000Y-94268750D01*
X142875000Y-90360500D02*
X142875000Y-91440000D01*
X142684500Y-90170000D02*
X142875000Y-90360500D01*
X130810000Y-90170000D02*
X142684500Y-90170000D01*
X142875000Y-91440000D02*
X142875000Y-94268750D01*
X161734500Y-90170000D02*
X161925000Y-90360500D01*
X149860000Y-90170000D02*
X161734500Y-90170000D01*
X161925000Y-91281250D02*
X161925000Y-94268750D01*
X161925000Y-91281250D02*
X161925000Y-91440000D01*
X161925000Y-90360500D02*
X161925000Y-91281250D01*
X180975000Y-90360500D02*
X180975000Y-91440000D01*
X180784500Y-90170000D02*
X180975000Y-90360500D01*
X168910000Y-90170000D02*
X180784500Y-90170000D01*
X180975000Y-91440000D02*
X180975000Y-94268750D01*
X200025000Y-90360500D02*
X200025000Y-91440000D01*
X199834500Y-90170000D02*
X200025000Y-90360500D01*
X187960000Y-90170000D02*
X199834500Y-90170000D01*
X200025000Y-91440000D02*
X200025000Y-94268750D01*
X217487500Y-90360500D02*
X217487500Y-91440000D01*
X217297000Y-90170000D02*
X217487500Y-90360500D01*
X207010000Y-90170000D02*
X217297000Y-90170000D01*
X217487500Y-91440000D02*
X217487500Y-94268750D01*
X220662500Y-90360500D02*
X220662500Y-91440000D01*
X220853000Y-90170000D02*
X220662500Y-90360500D01*
X226060000Y-90170000D02*
X220853000Y-90170000D01*
X220662500Y-91440000D02*
X220662500Y-94268750D01*
X65841500Y-116868750D02*
X220662500Y-116868750D01*
X65087500Y-116868750D02*
X65841500Y-116868750D01*
X111305990Y-48079010D02*
X113665000Y-45720000D01*
X47964740Y-48079010D02*
X111305990Y-48079010D01*
X47964740Y-116602240D02*
X47964740Y-48079010D01*
X65087500Y-116868750D02*
X48231250Y-116868750D01*
X47964740Y-116602240D02*
X48231250Y-116868750D01*
X65087500Y-109410500D02*
X65087500Y-110490000D01*
X64897000Y-109220000D02*
X65087500Y-109410500D01*
X54610000Y-109220000D02*
X64897000Y-109220000D01*
X65087500Y-110490000D02*
X65087500Y-113318750D01*
X68262500Y-109410500D02*
X68262500Y-110490000D01*
X68453000Y-109220000D02*
X68262500Y-109410500D01*
X73660000Y-109220000D02*
X68453000Y-109220000D01*
X68262500Y-110490000D02*
X68262500Y-113318750D01*
X85725000Y-109410500D02*
X85725000Y-110490000D01*
X85915500Y-109220000D02*
X85725000Y-109410500D01*
X92710000Y-109220000D02*
X85915500Y-109220000D01*
X85725000Y-110490000D02*
X85725000Y-113318750D01*
X103187500Y-109410500D02*
X103187500Y-110490000D01*
X103378000Y-109220000D02*
X103187500Y-109410500D01*
X111760000Y-109220000D02*
X103378000Y-109220000D01*
X103187500Y-110490000D02*
X103187500Y-113318750D01*
X140335000Y-109220000D02*
X121285000Y-109220000D01*
X112456961Y-110672001D02*
X107624001Y-110672001D01*
X113908962Y-109220000D02*
X112456961Y-110672001D01*
X121285000Y-109220000D02*
X113908962Y-109220000D01*
X106362500Y-111933502D02*
X106362500Y-113318750D01*
X107624001Y-110672001D02*
X106362500Y-111933502D01*
X151450990Y-109220000D02*
X159385000Y-109220000D01*
X149860000Y-109220000D02*
X151450990Y-109220000D01*
X173807999Y-111063039D02*
X174563039Y-110307999D01*
X174563039Y-110307999D02*
X178125999Y-110307999D01*
X167125040Y-111063039D02*
X173807999Y-111063039D01*
X165282001Y-109220000D02*
X167125040Y-111063039D01*
X159385000Y-109220000D02*
X165282001Y-109220000D01*
X179387500Y-111569500D02*
X179387500Y-113318750D01*
X178125999Y-110307999D02*
X179387500Y-111569500D01*
X182562500Y-109410500D02*
X182562500Y-110490000D01*
X182372000Y-109220000D02*
X182562500Y-109410500D01*
X168910000Y-109220000D02*
X182372000Y-109220000D01*
X182562500Y-110490000D02*
X182562500Y-113318750D01*
X200025000Y-109410500D02*
X200025000Y-110490000D01*
X199834500Y-109220000D02*
X200025000Y-109410500D01*
X187960000Y-109220000D02*
X199834500Y-109220000D01*
X200025000Y-110490000D02*
X200025000Y-113318750D01*
X217487500Y-109410500D02*
X217487500Y-110490000D01*
X217297000Y-109220000D02*
X217487500Y-109410500D01*
X207010000Y-109220000D02*
X217297000Y-109220000D01*
X217487500Y-110490000D02*
X217487500Y-113318750D01*
X220662500Y-109410500D02*
X220662500Y-110490000D01*
X220853000Y-109220000D02*
X220662500Y-109410500D01*
X226060000Y-109220000D02*
X220853000Y-109220000D01*
X220662500Y-110490000D02*
X220662500Y-113318750D01*
X153154000Y-40668750D02*
X211137500Y-40668750D01*
X152400000Y-40668750D02*
X153154000Y-40668750D01*
X128876250Y-40668750D02*
X123825000Y-45720000D01*
X152400000Y-40668750D02*
X128876250Y-40668750D01*
X152400000Y-33210500D02*
X152400000Y-34290000D01*
X152209500Y-33020000D02*
X152400000Y-33210500D01*
X140335000Y-33020000D02*
X152209500Y-33020000D01*
X152400000Y-34290000D02*
X152400000Y-37118750D01*
X171450000Y-33210500D02*
X171450000Y-34290000D01*
X171259500Y-33020000D02*
X171450000Y-33210500D01*
X159385000Y-33020000D02*
X171259500Y-33020000D01*
X171450000Y-34290000D02*
X171450000Y-37118750D01*
X190500000Y-33210500D02*
X190500000Y-34290000D01*
X190309500Y-33020000D02*
X190500000Y-33210500D01*
X178435000Y-33020000D02*
X190309500Y-33020000D01*
X190500000Y-34290000D02*
X190500000Y-37118750D01*
X207962500Y-33210500D02*
X207962500Y-34290000D01*
X207772000Y-33020000D02*
X207962500Y-33210500D01*
X197485000Y-33020000D02*
X207772000Y-33020000D01*
X207962500Y-34290000D02*
X207962500Y-37118750D01*
X211137500Y-33210500D02*
X211137500Y-34290000D01*
X211328000Y-33020000D02*
X211137500Y-33210500D01*
X216535000Y-33020000D02*
X211328000Y-33020000D01*
X211137500Y-34290000D02*
X211137500Y-37118750D01*
M02*
