M48
; DRILL file {KiCad (5.1.4)-1} date 9/1/2021 11:52:30 AM
; FORMAT={-:-/ absolute / inch / decimal}
; #@! TF.CreationDate,2021-09-01T11:52:30-10:00
; #@! TF.GenerationSoftware,Kicad,Pcbnew,(5.1.4)-1
; #@! TF.FileFunction,Plated,1,2,PTH
FMAT,2
INCH
T1C0.0430
T2C0.0579
%
G90
G05
T1
X4.075Y-1.2
X4.075Y-1.8
X4.175Y-1.2
X4.175Y-1.8
X4.275Y-1.2
X4.275Y-1.8
X4.375Y-1.2
X4.375Y-1.8
X4.475Y-1.2
X4.475Y-1.8
X4.575Y-1.2
X4.575Y-1.8
X4.675Y-1.2
X4.675Y-1.8
X4.775Y-1.2
X4.775Y-1.8
X4.875Y-1.2
X4.875Y-1.8
X4.975Y-1.2
X4.975Y-1.8
X5.075Y-1.2
X5.075Y-1.8
X5.175Y-1.2
X5.175Y-1.8
T2
X4.775Y-4.3
X5.025Y-4.4
X2.9Y-2.8
X3.15Y-2.9
X2.9Y-2.05
X3.15Y-2.15
X8.9Y-4.3
X9.15Y-4.4
X8.15Y-2.8
X8.4Y-2.9
X4.4Y-3.55
X4.65Y-3.65
X8.15Y-2.05
X8.4Y-2.15
X5.15Y-3.55
X5.4Y-3.65
X5.15Y-2.05
X5.4Y-2.15
X2.15Y-4.3
X2.4Y-4.4
X4.4Y-4.3
X4.65Y-4.4
X2.15Y-3.55
X2.4Y-3.65
X8.15Y-3.55
X8.4Y-3.65
X8.9Y-2.8
X9.15Y-2.9
X4.4Y-2.05
X4.65Y-2.15
X7.4Y-3.55
X7.65Y-3.65
X8.9Y-2.05
X9.15Y-2.15
X2.15Y-2.05
X2.4Y-2.15
X5.15Y-4.3
X5.4Y-4.4
X5.15Y-2.8
X5.4Y-2.9
X3.65Y-2.05
X3.9Y-2.15
X6.65Y-4.3
X6.9Y-4.4
X6.65Y-2.8
X6.9Y-2.9
X5.9Y-2.05
X6.15Y-2.15
X2.15Y-2.8
X2.4Y-2.9
X3.65Y-4.3
X3.9Y-4.4
X6.275Y-1.3
X6.525Y-1.4
X5.525Y-4.3
X5.775Y-4.4
X5.9Y-4.3
X6.15Y-4.4
X8.9Y-3.55
X9.15Y-3.65
X5.9Y-2.8
X6.15Y-2.9
X6.275Y-4.3
X6.525Y-4.4
X6.65Y-3.55
X6.9Y-3.65
X7.4Y-2.05
X7.65Y-2.15
X8.525Y-1.3
X8.775Y-1.4
X2.9Y-3.55
X3.15Y-3.65
X3.65Y-3.55
X3.9Y-3.65
X5.9Y-3.55
X6.15Y-3.65
X4.4Y-2.8
X4.65Y-2.9
X6.65Y-2.05
X6.9Y-2.15
X5.525Y-1.3
X5.775Y-1.4
X2.9Y-4.3
X3.15Y-4.4
X7.775Y-1.3
X8.025Y-1.4
X7.4Y-4.3
X7.65Y-4.4
X7.025Y-1.3
X7.275Y-1.4
X7.4Y-2.8
X7.65Y-2.9
X8.15Y-4.3
X8.4Y-4.4
X3.65Y-2.8
X3.9Y-2.9
T0
M30
