G04 #@! TF.GenerationSoftware,KiCad,Pcbnew,(5.1.4)-1*
G04 #@! TF.CreationDate,2021-08-31T10:30:47-10:00*
G04 #@! TF.ProjectId,oya45,6f796134-352e-46b6-9963-61645f706362,rev?*
G04 #@! TF.SameCoordinates,Original*
G04 #@! TF.FileFunction,Legend,Bot*
G04 #@! TF.FilePolarity,Positive*
%FSLAX46Y46*%
G04 Gerber Fmt 4.6, Leading zero omitted, Abs format (unit mm)*
G04 Created by KiCad (PCBNEW (5.1.4)-1) date 2021-08-31 10:30:47*
%MOMM*%
%LPD*%
G04 APERTURE LIST*
%ADD10C,0.120000*%
%ADD11C,0.381000*%
%ADD12C,0.150000*%
%ADD13C,1.852000*%
%ADD14C,4.089800*%
%ADD15R,1.854600X1.854600*%
%ADD16C,1.854600*%
%ADD17C,3.150000*%
G04 APERTURE END LIST*
D10*
X238125000Y-121443750D02*
G75*
G02X235743750Y-123825000I-2381250J0D01*
G01*
X50006250Y-123825000D02*
G75*
G02X47625000Y-121443750I0J2381250D01*
G01*
X50006250Y-28575000D02*
X133350000Y-28575000D01*
X235743750Y-28575000D02*
X228600000Y-28575000D01*
X47625000Y-30956250D02*
G75*
G02X50006250Y-28575000I2381250J0D01*
G01*
X235743750Y-28575000D02*
G75*
G02X238125000Y-30956250I0J-2381250D01*
G01*
X238125000Y-30956250D02*
X238125000Y-47625000D01*
X47625000Y-30956250D02*
X47625000Y-47625000D01*
D11*
X102235000Y-29210000D02*
X132715000Y-29210000D01*
X132715000Y-29210000D02*
X132715000Y-46990000D01*
X132715000Y-46990000D02*
X102235000Y-46990000D01*
X102235000Y-31750000D02*
X104775000Y-31750000D01*
X104775000Y-31750000D02*
X104775000Y-29210000D01*
D12*
G36*
X108114360Y-43031568D02*
G01*
X108414360Y-43031568D01*
X108414360Y-42931568D01*
X108114360Y-42931568D01*
X108114360Y-43031568D01*
G37*
X108114360Y-43031568D02*
X108414360Y-43031568D01*
X108414360Y-42931568D01*
X108114360Y-42931568D01*
X108114360Y-43031568D01*
G36*
X108514360Y-42831568D02*
G01*
X108614360Y-42831568D01*
X108614360Y-42731568D01*
X108514360Y-42731568D01*
X108514360Y-42831568D01*
G37*
X108514360Y-42831568D02*
X108614360Y-42831568D01*
X108614360Y-42731568D01*
X108514360Y-42731568D01*
X108514360Y-42831568D01*
G36*
X108114360Y-43031568D02*
G01*
X108214360Y-43031568D01*
X108214360Y-42531568D01*
X108114360Y-42531568D01*
X108114360Y-43031568D01*
G37*
X108114360Y-43031568D02*
X108214360Y-43031568D01*
X108214360Y-42531568D01*
X108114360Y-42531568D01*
X108114360Y-43031568D01*
G36*
X108114360Y-42631568D02*
G01*
X108914360Y-42631568D01*
X108914360Y-42531568D01*
X108114360Y-42531568D01*
X108114360Y-42631568D01*
G37*
X108114360Y-42631568D02*
X108914360Y-42631568D01*
X108914360Y-42531568D01*
X108114360Y-42531568D01*
X108114360Y-42631568D01*
G36*
X108714360Y-43031568D02*
G01*
X108914360Y-43031568D01*
X108914360Y-42931568D01*
X108714360Y-42931568D01*
X108714360Y-43031568D01*
G37*
X108714360Y-43031568D02*
X108914360Y-43031568D01*
X108914360Y-42931568D01*
X108714360Y-42931568D01*
X108714360Y-43031568D01*
D11*
X102235000Y-46990000D02*
X99695000Y-46990000D01*
X99695000Y-46990000D02*
X99695000Y-29210000D01*
X99695000Y-29210000D02*
X102235000Y-29210000D01*
X102235000Y-31750000D02*
X102235000Y-29210000D01*
D12*
X128847857Y-43237190D02*
X128885952Y-43351476D01*
X128924047Y-43389571D01*
X129000238Y-43427666D01*
X129114523Y-43427666D01*
X129190714Y-43389571D01*
X129228809Y-43351476D01*
X129266904Y-43275285D01*
X129266904Y-42970523D01*
X128466904Y-42970523D01*
X128466904Y-43237190D01*
X128505000Y-43313380D01*
X128543095Y-43351476D01*
X128619285Y-43389571D01*
X128695476Y-43389571D01*
X128771666Y-43351476D01*
X128809761Y-43313380D01*
X128847857Y-43237190D01*
X128847857Y-42970523D01*
X128543095Y-43732428D02*
X128505000Y-43770523D01*
X128466904Y-43846714D01*
X128466904Y-44037190D01*
X128505000Y-44113380D01*
X128543095Y-44151476D01*
X128619285Y-44189571D01*
X128695476Y-44189571D01*
X128809761Y-44151476D01*
X129266904Y-43694333D01*
X129266904Y-44189571D01*
X121227857Y-43294333D02*
X121227857Y-43027666D01*
X121646904Y-43027666D02*
X120846904Y-43027666D01*
X120846904Y-43408619D01*
X120846904Y-43637190D02*
X120846904Y-44170523D01*
X121646904Y-43827666D01*
X118687857Y-43294333D02*
X118687857Y-43027666D01*
X119106904Y-43027666D02*
X118306904Y-43027666D01*
X118306904Y-43408619D01*
X118306904Y-44056238D02*
X118306904Y-43903857D01*
X118345000Y-43827666D01*
X118383095Y-43789571D01*
X118497380Y-43713380D01*
X118649761Y-43675285D01*
X118954523Y-43675285D01*
X119030714Y-43713380D01*
X119068809Y-43751476D01*
X119106904Y-43827666D01*
X119106904Y-43980047D01*
X119068809Y-44056238D01*
X119030714Y-44094333D01*
X118954523Y-44132428D01*
X118764047Y-44132428D01*
X118687857Y-44094333D01*
X118649761Y-44056238D01*
X118611666Y-43980047D01*
X118611666Y-43827666D01*
X118649761Y-43751476D01*
X118687857Y-43713380D01*
X118764047Y-43675285D01*
X116147857Y-43294333D02*
X116147857Y-43027666D01*
X116566904Y-43027666D02*
X115766904Y-43027666D01*
X115766904Y-43408619D01*
X115766904Y-44094333D02*
X115766904Y-43713380D01*
X116147857Y-43675285D01*
X116109761Y-43713380D01*
X116071666Y-43789571D01*
X116071666Y-43980047D01*
X116109761Y-44056238D01*
X116147857Y-44094333D01*
X116224047Y-44132428D01*
X116414523Y-44132428D01*
X116490714Y-44094333D01*
X116528809Y-44056238D01*
X116566904Y-43980047D01*
X116566904Y-43789571D01*
X116528809Y-43713380D01*
X116490714Y-43675285D01*
X103866904Y-43008619D02*
X103485952Y-42741952D01*
X103866904Y-42551476D02*
X103066904Y-42551476D01*
X103066904Y-42856238D01*
X103105000Y-42932428D01*
X103143095Y-42970523D01*
X103219285Y-43008619D01*
X103333571Y-43008619D01*
X103409761Y-42970523D01*
X103447857Y-42932428D01*
X103485952Y-42856238D01*
X103485952Y-42551476D01*
X103638333Y-43313380D02*
X103638333Y-43694333D01*
X103866904Y-43237190D02*
X103066904Y-43503857D01*
X103866904Y-43770523D01*
X103066904Y-43961000D02*
X103866904Y-44151476D01*
X103295476Y-44303857D01*
X103866904Y-44456238D01*
X103066904Y-44646714D01*
X105645000Y-42951476D02*
X105606904Y-42875285D01*
X105606904Y-42761000D01*
X105645000Y-42646714D01*
X105721190Y-42570523D01*
X105797380Y-42532428D01*
X105949761Y-42494333D01*
X106064047Y-42494333D01*
X106216428Y-42532428D01*
X106292619Y-42570523D01*
X106368809Y-42646714D01*
X106406904Y-42761000D01*
X106406904Y-42837190D01*
X106368809Y-42951476D01*
X106330714Y-42989571D01*
X106064047Y-42989571D01*
X106064047Y-42837190D01*
X106406904Y-43332428D02*
X105606904Y-43332428D01*
X106406904Y-43789571D01*
X105606904Y-43789571D01*
X106406904Y-44170523D02*
X105606904Y-44170523D01*
X105606904Y-44361000D01*
X105645000Y-44475285D01*
X105721190Y-44551476D01*
X105797380Y-44589571D01*
X105949761Y-44627666D01*
X106064047Y-44627666D01*
X106216428Y-44589571D01*
X106292619Y-44551476D01*
X106368809Y-44475285D01*
X106406904Y-44361000D01*
X106406904Y-44170523D01*
X108878809Y-43299786D02*
X108916904Y-43414072D01*
X108916904Y-43604548D01*
X108878809Y-43680739D01*
X108840714Y-43718834D01*
X108764523Y-43756929D01*
X108688333Y-43756929D01*
X108612142Y-43718834D01*
X108574047Y-43680739D01*
X108535952Y-43604548D01*
X108497857Y-43452167D01*
X108459761Y-43375977D01*
X108421666Y-43337881D01*
X108345476Y-43299786D01*
X108269285Y-43299786D01*
X108193095Y-43337881D01*
X108155000Y-43375977D01*
X108116904Y-43452167D01*
X108116904Y-43642643D01*
X108155000Y-43756929D01*
X108116904Y-43985500D02*
X108116904Y-44442643D01*
X108916904Y-44214072D02*
X108116904Y-44214072D01*
X110686904Y-42494333D02*
X111486904Y-42761000D01*
X110686904Y-43027666D01*
X111410714Y-43751476D02*
X111448809Y-43713380D01*
X111486904Y-43599095D01*
X111486904Y-43522904D01*
X111448809Y-43408619D01*
X111372619Y-43332428D01*
X111296428Y-43294333D01*
X111144047Y-43256238D01*
X111029761Y-43256238D01*
X110877380Y-43294333D01*
X110801190Y-43332428D01*
X110725000Y-43408619D01*
X110686904Y-43522904D01*
X110686904Y-43599095D01*
X110725000Y-43713380D01*
X110763095Y-43751476D01*
X111410714Y-44551476D02*
X111448809Y-44513380D01*
X111486904Y-44399095D01*
X111486904Y-44322904D01*
X111448809Y-44208619D01*
X111372619Y-44132428D01*
X111296428Y-44094333D01*
X111144047Y-44056238D01*
X111029761Y-44056238D01*
X110877380Y-44094333D01*
X110801190Y-44132428D01*
X110725000Y-44208619D01*
X110686904Y-44322904D01*
X110686904Y-44399095D01*
X110725000Y-44513380D01*
X110763095Y-44551476D01*
X113607857Y-43294333D02*
X113607857Y-43027666D01*
X114026904Y-43027666D02*
X113226904Y-43027666D01*
X113226904Y-43408619D01*
X113493571Y-44056238D02*
X114026904Y-44056238D01*
X113188809Y-43865761D02*
X113760238Y-43675285D01*
X113760238Y-44170523D01*
X123767857Y-43237190D02*
X123805952Y-43351476D01*
X123844047Y-43389571D01*
X123920238Y-43427666D01*
X124034523Y-43427666D01*
X124110714Y-43389571D01*
X124148809Y-43351476D01*
X124186904Y-43275285D01*
X124186904Y-42970523D01*
X123386904Y-42970523D01*
X123386904Y-43237190D01*
X123425000Y-43313380D01*
X123463095Y-43351476D01*
X123539285Y-43389571D01*
X123615476Y-43389571D01*
X123691666Y-43351476D01*
X123729761Y-43313380D01*
X123767857Y-43237190D01*
X123767857Y-42970523D01*
X124186904Y-44189571D02*
X124186904Y-43732428D01*
X124186904Y-43961000D02*
X123386904Y-43961000D01*
X123501190Y-43884809D01*
X123577380Y-43808619D01*
X123615476Y-43732428D01*
X126307857Y-43237190D02*
X126345952Y-43351476D01*
X126384047Y-43389571D01*
X126460238Y-43427666D01*
X126574523Y-43427666D01*
X126650714Y-43389571D01*
X126688809Y-43351476D01*
X126726904Y-43275285D01*
X126726904Y-42970523D01*
X125926904Y-42970523D01*
X125926904Y-43237190D01*
X125965000Y-43313380D01*
X126003095Y-43351476D01*
X126079285Y-43389571D01*
X126155476Y-43389571D01*
X126231666Y-43351476D01*
X126269761Y-43313380D01*
X126307857Y-43237190D01*
X126307857Y-42970523D01*
X125926904Y-43694333D02*
X125926904Y-44189571D01*
X126231666Y-43922904D01*
X126231666Y-44037190D01*
X126269761Y-44113380D01*
X126307857Y-44151476D01*
X126384047Y-44189571D01*
X126574523Y-44189571D01*
X126650714Y-44151476D01*
X126688809Y-44113380D01*
X126726904Y-44037190D01*
X126726904Y-43808619D01*
X126688809Y-43732428D01*
X126650714Y-43694333D01*
X131387857Y-43237190D02*
X131425952Y-43351476D01*
X131464047Y-43389571D01*
X131540238Y-43427666D01*
X131654523Y-43427666D01*
X131730714Y-43389571D01*
X131768809Y-43351476D01*
X131806904Y-43275285D01*
X131806904Y-42970523D01*
X131006904Y-42970523D01*
X131006904Y-43237190D01*
X131045000Y-43313380D01*
X131083095Y-43351476D01*
X131159285Y-43389571D01*
X131235476Y-43389571D01*
X131311666Y-43351476D01*
X131349761Y-43313380D01*
X131387857Y-43237190D01*
X131387857Y-42970523D01*
X131006904Y-44113380D02*
X131006904Y-43961000D01*
X131045000Y-43884809D01*
X131083095Y-43846714D01*
X131197380Y-43770523D01*
X131349761Y-43732428D01*
X131654523Y-43732428D01*
X131730714Y-43770523D01*
X131768809Y-43808619D01*
X131806904Y-43884809D01*
X131806904Y-44037190D01*
X131768809Y-44113380D01*
X131730714Y-44151476D01*
X131654523Y-44189571D01*
X131464047Y-44189571D01*
X131387857Y-44151476D01*
X131349761Y-44113380D01*
X131311666Y-44037190D01*
X131311666Y-43884809D01*
X131349761Y-43808619D01*
X131387857Y-43770523D01*
X131464047Y-43732428D01*
X131387857Y-32315190D02*
X131425952Y-32429476D01*
X131464047Y-32467571D01*
X131540238Y-32505666D01*
X131654523Y-32505666D01*
X131730714Y-32467571D01*
X131768809Y-32429476D01*
X131806904Y-32353285D01*
X131806904Y-32048523D01*
X131006904Y-32048523D01*
X131006904Y-32315190D01*
X131045000Y-32391380D01*
X131083095Y-32429476D01*
X131159285Y-32467571D01*
X131235476Y-32467571D01*
X131311666Y-32429476D01*
X131349761Y-32391380D01*
X131387857Y-32315190D01*
X131387857Y-32048523D01*
X131006904Y-33229476D02*
X131006904Y-32848523D01*
X131387857Y-32810428D01*
X131349761Y-32848523D01*
X131311666Y-32924714D01*
X131311666Y-33115190D01*
X131349761Y-33191380D01*
X131387857Y-33229476D01*
X131464047Y-33267571D01*
X131654523Y-33267571D01*
X131730714Y-33229476D01*
X131768809Y-33191380D01*
X131806904Y-33115190D01*
X131806904Y-32924714D01*
X131768809Y-32848523D01*
X131730714Y-32810428D01*
X128847857Y-32315190D02*
X128885952Y-32429476D01*
X128924047Y-32467571D01*
X129000238Y-32505666D01*
X129114523Y-32505666D01*
X129190714Y-32467571D01*
X129228809Y-32429476D01*
X129266904Y-32353285D01*
X129266904Y-32048523D01*
X128466904Y-32048523D01*
X128466904Y-32315190D01*
X128505000Y-32391380D01*
X128543095Y-32429476D01*
X128619285Y-32467571D01*
X128695476Y-32467571D01*
X128771666Y-32429476D01*
X128809761Y-32391380D01*
X128847857Y-32315190D01*
X128847857Y-32048523D01*
X128733571Y-33191380D02*
X129266904Y-33191380D01*
X128428809Y-33000904D02*
X129000238Y-32810428D01*
X129000238Y-33305666D01*
X126307857Y-32086619D02*
X126307857Y-32353285D01*
X126726904Y-32467571D02*
X126726904Y-32086619D01*
X125926904Y-32086619D01*
X125926904Y-32467571D01*
X125926904Y-33153285D02*
X125926904Y-33000904D01*
X125965000Y-32924714D01*
X126003095Y-32886619D01*
X126117380Y-32810428D01*
X126269761Y-32772333D01*
X126574523Y-32772333D01*
X126650714Y-32810428D01*
X126688809Y-32848523D01*
X126726904Y-32924714D01*
X126726904Y-33077095D01*
X126688809Y-33153285D01*
X126650714Y-33191380D01*
X126574523Y-33229476D01*
X126384047Y-33229476D01*
X126307857Y-33191380D01*
X126269761Y-33153285D01*
X126231666Y-33077095D01*
X126231666Y-32924714D01*
X126269761Y-32848523D01*
X126307857Y-32810428D01*
X126384047Y-32772333D01*
X124186904Y-32048523D02*
X123386904Y-32048523D01*
X123386904Y-32239000D01*
X123425000Y-32353285D01*
X123501190Y-32429476D01*
X123577380Y-32467571D01*
X123729761Y-32505666D01*
X123844047Y-32505666D01*
X123996428Y-32467571D01*
X124072619Y-32429476D01*
X124148809Y-32353285D01*
X124186904Y-32239000D01*
X124186904Y-32048523D01*
X123386904Y-32772333D02*
X123386904Y-33305666D01*
X124186904Y-32962809D01*
X121570714Y-32505666D02*
X121608809Y-32467571D01*
X121646904Y-32353285D01*
X121646904Y-32277095D01*
X121608809Y-32162809D01*
X121532619Y-32086619D01*
X121456428Y-32048523D01*
X121304047Y-32010428D01*
X121189761Y-32010428D01*
X121037380Y-32048523D01*
X120961190Y-32086619D01*
X120885000Y-32162809D01*
X120846904Y-32277095D01*
X120846904Y-32353285D01*
X120885000Y-32467571D01*
X120923095Y-32505666D01*
X120846904Y-33191380D02*
X120846904Y-33039000D01*
X120885000Y-32962809D01*
X120923095Y-32924714D01*
X121037380Y-32848523D01*
X121189761Y-32810428D01*
X121494523Y-32810428D01*
X121570714Y-32848523D01*
X121608809Y-32886619D01*
X121646904Y-32962809D01*
X121646904Y-33115190D01*
X121608809Y-33191380D01*
X121570714Y-33229476D01*
X121494523Y-33267571D01*
X121304047Y-33267571D01*
X121227857Y-33229476D01*
X121189761Y-33191380D01*
X121151666Y-33115190D01*
X121151666Y-32962809D01*
X121189761Y-32886619D01*
X121227857Y-32848523D01*
X121304047Y-32810428D01*
X119106904Y-32048523D02*
X118306904Y-32048523D01*
X118306904Y-32239000D01*
X118345000Y-32353285D01*
X118421190Y-32429476D01*
X118497380Y-32467571D01*
X118649761Y-32505666D01*
X118764047Y-32505666D01*
X118916428Y-32467571D01*
X118992619Y-32429476D01*
X119068809Y-32353285D01*
X119106904Y-32239000D01*
X119106904Y-32048523D01*
X118573571Y-33191380D02*
X119106904Y-33191380D01*
X118268809Y-33000904D02*
X118840238Y-32810428D01*
X118840238Y-33305666D01*
X108185000Y-32029476D02*
X108146904Y-31953285D01*
X108146904Y-31839000D01*
X108185000Y-31724714D01*
X108261190Y-31648523D01*
X108337380Y-31610428D01*
X108489761Y-31572333D01*
X108604047Y-31572333D01*
X108756428Y-31610428D01*
X108832619Y-31648523D01*
X108908809Y-31724714D01*
X108946904Y-31839000D01*
X108946904Y-31915190D01*
X108908809Y-32029476D01*
X108870714Y-32067571D01*
X108604047Y-32067571D01*
X108604047Y-31915190D01*
X108946904Y-32410428D02*
X108146904Y-32410428D01*
X108946904Y-32867571D01*
X108146904Y-32867571D01*
X108946904Y-33248523D02*
X108146904Y-33248523D01*
X108146904Y-33439000D01*
X108185000Y-33553285D01*
X108261190Y-33629476D01*
X108337380Y-33667571D01*
X108489761Y-33705666D01*
X108604047Y-33705666D01*
X108756428Y-33667571D01*
X108832619Y-33629476D01*
X108908809Y-33553285D01*
X108946904Y-33439000D01*
X108946904Y-33248523D01*
X110725000Y-32029476D02*
X110686904Y-31953285D01*
X110686904Y-31839000D01*
X110725000Y-31724714D01*
X110801190Y-31648523D01*
X110877380Y-31610428D01*
X111029761Y-31572333D01*
X111144047Y-31572333D01*
X111296428Y-31610428D01*
X111372619Y-31648523D01*
X111448809Y-31724714D01*
X111486904Y-31839000D01*
X111486904Y-31915190D01*
X111448809Y-32029476D01*
X111410714Y-32067571D01*
X111144047Y-32067571D01*
X111144047Y-31915190D01*
X111486904Y-32410428D02*
X110686904Y-32410428D01*
X111486904Y-32867571D01*
X110686904Y-32867571D01*
X111486904Y-33248523D02*
X110686904Y-33248523D01*
X110686904Y-33439000D01*
X110725000Y-33553285D01*
X110801190Y-33629476D01*
X110877380Y-33667571D01*
X111029761Y-33705666D01*
X111144047Y-33705666D01*
X111296428Y-33667571D01*
X111372619Y-33629476D01*
X111448809Y-33553285D01*
X111486904Y-33439000D01*
X111486904Y-33248523D01*
X114026904Y-32048523D02*
X113226904Y-32048523D01*
X113226904Y-32239000D01*
X113265000Y-32353285D01*
X113341190Y-32429476D01*
X113417380Y-32467571D01*
X113569761Y-32505666D01*
X113684047Y-32505666D01*
X113836428Y-32467571D01*
X113912619Y-32429476D01*
X113988809Y-32353285D01*
X114026904Y-32239000D01*
X114026904Y-32048523D01*
X114026904Y-33267571D02*
X114026904Y-32810428D01*
X114026904Y-33039000D02*
X113226904Y-33039000D01*
X113341190Y-32962809D01*
X113417380Y-32886619D01*
X113455476Y-32810428D01*
X116566904Y-32048523D02*
X115766904Y-32048523D01*
X115766904Y-32239000D01*
X115805000Y-32353285D01*
X115881190Y-32429476D01*
X115957380Y-32467571D01*
X116109761Y-32505666D01*
X116224047Y-32505666D01*
X116376428Y-32467571D01*
X116452619Y-32429476D01*
X116528809Y-32353285D01*
X116566904Y-32239000D01*
X116566904Y-32048523D01*
X115766904Y-33000904D02*
X115766904Y-33077095D01*
X115805000Y-33153285D01*
X115843095Y-33191380D01*
X115919285Y-33229476D01*
X116071666Y-33267571D01*
X116262142Y-33267571D01*
X116414523Y-33229476D01*
X116490714Y-33191380D01*
X116528809Y-33153285D01*
X116566904Y-33077095D01*
X116566904Y-33000904D01*
X116528809Y-32924714D01*
X116490714Y-32886619D01*
X116414523Y-32848523D01*
X116262142Y-32810428D01*
X116071666Y-32810428D01*
X115919285Y-32848523D01*
X115843095Y-32886619D01*
X115805000Y-32924714D01*
X115766904Y-33000904D01*
X106406904Y-32048523D02*
X105606904Y-32048523D01*
X105606904Y-32239000D01*
X105645000Y-32353285D01*
X105721190Y-32429476D01*
X105797380Y-32467571D01*
X105949761Y-32505666D01*
X106064047Y-32505666D01*
X106216428Y-32467571D01*
X106292619Y-32429476D01*
X106368809Y-32353285D01*
X106406904Y-32239000D01*
X106406904Y-32048523D01*
X105683095Y-32810428D02*
X105645000Y-32848523D01*
X105606904Y-32924714D01*
X105606904Y-33115190D01*
X105645000Y-33191380D01*
X105683095Y-33229476D01*
X105759285Y-33267571D01*
X105835476Y-33267571D01*
X105949761Y-33229476D01*
X106406904Y-32772333D01*
X106406904Y-33267571D01*
X103066904Y-32337651D02*
X103066904Y-32794794D01*
X103866904Y-32566223D02*
X103066904Y-32566223D01*
X103066904Y-32985270D02*
X103866904Y-33518604D01*
X103066904Y-33518604D02*
X103866904Y-32985270D01*
X103066904Y-33975747D02*
X103066904Y-34051937D01*
X103105000Y-34128128D01*
X103143095Y-34166223D01*
X103219285Y-34204318D01*
X103371666Y-34242413D01*
X103562142Y-34242413D01*
X103714523Y-34204318D01*
X103790714Y-34166223D01*
X103828809Y-34128128D01*
X103866904Y-34051937D01*
X103866904Y-33975747D01*
X103828809Y-33899556D01*
X103790714Y-33861461D01*
X103714523Y-33823366D01*
X103562142Y-33785270D01*
X103371666Y-33785270D01*
X103219285Y-33823366D01*
X103143095Y-33861461D01*
X103105000Y-33899556D01*
X103066904Y-33975747D01*
X103028809Y-35156699D02*
X104057380Y-34470985D01*
X103866904Y-35423366D02*
X103066904Y-35423366D01*
X103066904Y-35613842D01*
X103105000Y-35728128D01*
X103181190Y-35804318D01*
X103257380Y-35842413D01*
X103409761Y-35880508D01*
X103524047Y-35880508D01*
X103676428Y-35842413D01*
X103752619Y-35804318D01*
X103828809Y-35728128D01*
X103866904Y-35613842D01*
X103866904Y-35423366D01*
X103066904Y-36147175D02*
X103066904Y-36642413D01*
X103371666Y-36375747D01*
X103371666Y-36490032D01*
X103409761Y-36566223D01*
X103447857Y-36604318D01*
X103524047Y-36642413D01*
X103714523Y-36642413D01*
X103790714Y-36604318D01*
X103828809Y-36566223D01*
X103866904Y-36490032D01*
X103866904Y-36261461D01*
X103828809Y-36185270D01*
X103790714Y-36147175D01*
%LPC*%
D13*
X194945000Y-38100000D03*
X205105000Y-38100000D03*
D14*
X200025000Y-38100000D03*
D13*
X213995000Y-38100000D03*
X224155000Y-38100000D03*
D14*
X219075000Y-38100000D03*
D15*
X103505000Y-30480000D03*
D16*
X106045000Y-30480000D03*
X108585000Y-30480000D03*
X111125000Y-30480000D03*
X113665000Y-30480000D03*
X116205000Y-30480000D03*
X118745000Y-30480000D03*
X121285000Y-30480000D03*
X123825000Y-30480000D03*
X126365000Y-30480000D03*
X128905000Y-30480000D03*
X131445000Y-45720000D03*
X128905000Y-45720000D03*
X126365000Y-45720000D03*
X123825000Y-45720000D03*
X121285000Y-45720000D03*
X118745000Y-45720000D03*
X116205000Y-45720000D03*
X113665000Y-45720000D03*
X111125000Y-45720000D03*
X108585000Y-45720000D03*
X106045000Y-45720000D03*
X131445000Y-30480000D03*
X103505000Y-45720000D03*
D14*
X150018750Y-106045000D03*
X173831250Y-106045000D03*
D17*
X150018750Y-121285000D03*
X173831250Y-121285000D03*
D13*
X156845000Y-114300000D03*
X167005000Y-114300000D03*
D14*
X161925000Y-114300000D03*
X111918750Y-106045000D03*
X135731250Y-106045000D03*
D17*
X111918750Y-121285000D03*
X135731250Y-121285000D03*
D13*
X118745000Y-114300000D03*
X128905000Y-114300000D03*
D14*
X123825000Y-114300000D03*
X142875000Y-114300000D03*
D13*
X147955000Y-114300000D03*
X137795000Y-114300000D03*
D17*
X190500000Y-121285000D03*
X95250000Y-121285000D03*
D14*
X190500000Y-106045000D03*
X95250000Y-106045000D03*
D13*
X175895000Y-38100000D03*
X186055000Y-38100000D03*
D14*
X180975000Y-38100000D03*
D13*
X156845000Y-38100000D03*
X167005000Y-38100000D03*
D14*
X161925000Y-38100000D03*
D13*
X137795000Y-38100000D03*
X147955000Y-38100000D03*
D14*
X142875000Y-38100000D03*
D13*
X223520000Y-114300000D03*
X233680000Y-114300000D03*
D14*
X228600000Y-114300000D03*
D13*
X204470000Y-114300000D03*
X214630000Y-114300000D03*
D14*
X209550000Y-114300000D03*
D13*
X185420000Y-114300000D03*
X195580000Y-114300000D03*
D14*
X190500000Y-114300000D03*
D13*
X166370000Y-114300000D03*
X176530000Y-114300000D03*
D14*
X171450000Y-114300000D03*
D13*
X147320000Y-114300000D03*
X157480000Y-114300000D03*
D14*
X152400000Y-114300000D03*
D13*
X128270000Y-114300000D03*
X138430000Y-114300000D03*
D14*
X133350000Y-114300000D03*
D13*
X109220000Y-114300000D03*
X119380000Y-114300000D03*
D14*
X114300000Y-114300000D03*
D13*
X90170000Y-114300000D03*
X100330000Y-114300000D03*
D14*
X95250000Y-114300000D03*
D13*
X71120000Y-114300000D03*
X81280000Y-114300000D03*
D14*
X76200000Y-114300000D03*
D13*
X52070000Y-114300000D03*
X62230000Y-114300000D03*
D14*
X57150000Y-114300000D03*
D13*
X223520000Y-95250000D03*
X233680000Y-95250000D03*
D14*
X228600000Y-95250000D03*
D13*
X204470000Y-95250000D03*
X214630000Y-95250000D03*
D14*
X209550000Y-95250000D03*
D13*
X185420000Y-95250000D03*
X195580000Y-95250000D03*
D14*
X190500000Y-95250000D03*
D13*
X166370000Y-95250000D03*
X176530000Y-95250000D03*
D14*
X171450000Y-95250000D03*
D13*
X147320000Y-95250000D03*
X157480000Y-95250000D03*
D14*
X152400000Y-95250000D03*
D13*
X128270000Y-95250000D03*
X138430000Y-95250000D03*
D14*
X133350000Y-95250000D03*
D13*
X109220000Y-95250000D03*
X119380000Y-95250000D03*
D14*
X114300000Y-95250000D03*
D13*
X90170000Y-95250000D03*
X100330000Y-95250000D03*
D14*
X95250000Y-95250000D03*
D13*
X71120000Y-95250000D03*
X81280000Y-95250000D03*
D14*
X76200000Y-95250000D03*
D13*
X52070000Y-95250000D03*
X62230000Y-95250000D03*
D14*
X57150000Y-95250000D03*
D13*
X223520000Y-76200000D03*
X233680000Y-76200000D03*
D14*
X228600000Y-76200000D03*
D13*
X204470000Y-76200000D03*
X214630000Y-76200000D03*
D14*
X209550000Y-76200000D03*
D13*
X185420000Y-76200000D03*
X195580000Y-76200000D03*
D14*
X190500000Y-76200000D03*
D13*
X166370000Y-76200000D03*
X176530000Y-76200000D03*
D14*
X171450000Y-76200000D03*
D13*
X147320000Y-76200000D03*
X157480000Y-76200000D03*
D14*
X152400000Y-76200000D03*
D13*
X128270000Y-76200000D03*
X138430000Y-76200000D03*
D14*
X133350000Y-76200000D03*
D13*
X109220000Y-76200000D03*
X119380000Y-76200000D03*
D14*
X114300000Y-76200000D03*
D13*
X90170000Y-76200000D03*
X100330000Y-76200000D03*
D14*
X95250000Y-76200000D03*
D13*
X71120000Y-76200000D03*
X81280000Y-76200000D03*
D14*
X76200000Y-76200000D03*
D13*
X52070000Y-76200000D03*
X62230000Y-76200000D03*
D14*
X57150000Y-76200000D03*
D13*
X223520000Y-57150000D03*
X233680000Y-57150000D03*
D14*
X228600000Y-57150000D03*
D13*
X204470000Y-57150000D03*
X214630000Y-57150000D03*
D14*
X209550000Y-57150000D03*
D13*
X185420000Y-57150000D03*
X195580000Y-57150000D03*
D14*
X190500000Y-57150000D03*
D13*
X166370000Y-57150000D03*
X176530000Y-57150000D03*
D14*
X171450000Y-57150000D03*
D13*
X147320000Y-57150000D03*
X157480000Y-57150000D03*
D14*
X152400000Y-57150000D03*
D13*
X128270000Y-57150000D03*
X138430000Y-57150000D03*
D14*
X133350000Y-57150000D03*
D13*
X109220000Y-57150000D03*
X119380000Y-57150000D03*
D14*
X114300000Y-57150000D03*
D13*
X90170000Y-57150000D03*
X100330000Y-57150000D03*
D14*
X95250000Y-57150000D03*
D13*
X71120000Y-57150000D03*
X81280000Y-57150000D03*
D14*
X76200000Y-57150000D03*
D13*
X52070000Y-57150000D03*
X62230000Y-57150000D03*
D14*
X57150000Y-57150000D03*
M02*
