G04 #@! TF.GenerationSoftware,KiCad,Pcbnew,(5.1.4)-1*
G04 #@! TF.CreationDate,2021-08-29T21:23:07-10:00*
G04 #@! TF.ProjectId,oya45,6f796134-352e-46b6-9963-61645f706362,rev?*
G04 #@! TF.SameCoordinates,Original*
G04 #@! TF.FileFunction,Legend,Top*
G04 #@! TF.FilePolarity,Positive*
%FSLAX46Y46*%
G04 Gerber Fmt 4.6, Leading zero omitted, Abs format (unit mm)*
G04 Created by KiCad (PCBNEW (5.1.4)-1) date 2021-08-29 21:23:07*
%MOMM*%
%LPD*%
G04 APERTURE LIST*
%ADD10C,0.120000*%
%ADD11C,0.381000*%
%ADD12C,0.150000*%
%ADD13C,0.203200*%
%ADD14C,2.352000*%
%ADD15C,4.089800*%
%ADD16C,1.852000*%
%ADD17R,1.854600X1.854600*%
%ADD18C,1.854600*%
%ADD19C,3.150000*%
%ADD20R,1.753000X1.753000*%
%ADD21C,1.753000*%
G04 APERTURE END LIST*
D10*
X238125000Y-121443750D02*
G75*
G02X235743750Y-123825000I-2381250J0D01*
G01*
X50006250Y-123825000D02*
G75*
G02X47625000Y-121443750I0J2381250D01*
G01*
D11*
X180975000Y-44450000D02*
X180975000Y-46990000D01*
X183515000Y-44450000D02*
X180975000Y-44450000D01*
D12*
G36*
X177225970Y-32055365D02*
G01*
X177125970Y-32055365D01*
X177125970Y-31955365D01*
X177225970Y-31955365D01*
X177225970Y-32055365D01*
G37*
X177225970Y-32055365D02*
X177125970Y-32055365D01*
X177125970Y-31955365D01*
X177225970Y-31955365D01*
X177225970Y-32055365D01*
G36*
X177625970Y-31855365D02*
G01*
X176825970Y-31855365D01*
X176825970Y-31755365D01*
X177625970Y-31755365D01*
X177625970Y-31855365D01*
G37*
X177625970Y-31855365D02*
X176825970Y-31855365D01*
X176825970Y-31755365D01*
X177625970Y-31755365D01*
X177625970Y-31855365D01*
G36*
X177025970Y-32255365D02*
G01*
X176825970Y-32255365D01*
X176825970Y-32155365D01*
X177025970Y-32155365D01*
X177025970Y-32255365D01*
G37*
X177025970Y-32255365D02*
X176825970Y-32255365D01*
X176825970Y-32155365D01*
X177025970Y-32155365D01*
X177025970Y-32255365D01*
G36*
X177625970Y-32255365D02*
G01*
X177325970Y-32255365D01*
X177325970Y-32155365D01*
X177625970Y-32155365D01*
X177625970Y-32255365D01*
G37*
X177625970Y-32255365D02*
X177325970Y-32255365D01*
X177325970Y-32155365D01*
X177625970Y-32155365D01*
X177625970Y-32255365D01*
G36*
X177625970Y-32255365D02*
G01*
X177525970Y-32255365D01*
X177525970Y-31755365D01*
X177625970Y-31755365D01*
X177625970Y-32255365D01*
G37*
X177625970Y-32255365D02*
X177525970Y-32255365D01*
X177525970Y-31755365D01*
X177625970Y-31755365D01*
X177625970Y-32255365D01*
D11*
X153035000Y-29210000D02*
X186055000Y-29210000D01*
X153035000Y-46990000D02*
X153035000Y-29210000D01*
X186055000Y-46990000D02*
X153035000Y-46990000D01*
X186055000Y-29210000D02*
X186055000Y-46990000D01*
X183515000Y-44450000D02*
X183515000Y-46990000D01*
D13*
X136080500Y-39624000D02*
X133794500Y-39624000D01*
X136080500Y-36576000D02*
X136080500Y-39624000D01*
X133794500Y-36576000D02*
X136080500Y-36576000D01*
X133794500Y-39624000D02*
X133794500Y-36576000D01*
D12*
X136037500Y-36800000D02*
X133937500Y-36800000D01*
X133837500Y-36800000D02*
X133937500Y-36800000D01*
X133937500Y-36800000D02*
X133837500Y-36800000D01*
X133837500Y-37000000D02*
X136037500Y-37000000D01*
X136037500Y-37200000D02*
X133837500Y-37200000D01*
D13*
X132905500Y-39624000D02*
X130619500Y-39624000D01*
X132905500Y-36576000D02*
X132905500Y-39624000D01*
X130619500Y-36576000D02*
X132905500Y-36576000D01*
X130619500Y-39624000D02*
X130619500Y-36576000D01*
D12*
X132862500Y-36800000D02*
X130762500Y-36800000D01*
X130662500Y-36800000D02*
X130762500Y-36800000D01*
X130762500Y-36800000D02*
X130662500Y-36800000D01*
X130662500Y-37000000D02*
X132862500Y-37000000D01*
X132862500Y-37200000D02*
X130662500Y-37200000D01*
D13*
X115443000Y-39624000D02*
X113157000Y-39624000D01*
X115443000Y-36576000D02*
X115443000Y-39624000D01*
X113157000Y-36576000D02*
X115443000Y-36576000D01*
X113157000Y-39624000D02*
X113157000Y-36576000D01*
D12*
X115400000Y-36800000D02*
X113300000Y-36800000D01*
X113200000Y-36800000D02*
X113300000Y-36800000D01*
X113300000Y-36800000D02*
X113200000Y-36800000D01*
X113200000Y-37000000D02*
X115400000Y-37000000D01*
X115400000Y-37200000D02*
X113200000Y-37200000D01*
D13*
X96393000Y-39624000D02*
X94107000Y-39624000D01*
X96393000Y-36576000D02*
X96393000Y-39624000D01*
X94107000Y-36576000D02*
X96393000Y-36576000D01*
X94107000Y-39624000D02*
X94107000Y-36576000D01*
D12*
X96350000Y-36800000D02*
X94250000Y-36800000D01*
X94150000Y-36800000D02*
X94250000Y-36800000D01*
X94250000Y-36800000D02*
X94150000Y-36800000D01*
X94150000Y-37000000D02*
X96350000Y-37000000D01*
X96350000Y-37200000D02*
X94150000Y-37200000D01*
D13*
X77343000Y-39624000D02*
X75057000Y-39624000D01*
X77343000Y-36576000D02*
X77343000Y-39624000D01*
X75057000Y-36576000D02*
X77343000Y-36576000D01*
X75057000Y-39624000D02*
X75057000Y-36576000D01*
D12*
X77300000Y-36800000D02*
X75200000Y-36800000D01*
X75100000Y-36800000D02*
X75200000Y-36800000D01*
X75200000Y-36800000D02*
X75100000Y-36800000D01*
X75100000Y-37000000D02*
X77300000Y-37000000D01*
X77300000Y-37200000D02*
X75100000Y-37200000D01*
D13*
X221805500Y-115824000D02*
X219519500Y-115824000D01*
X221805500Y-112776000D02*
X221805500Y-115824000D01*
X219519500Y-112776000D02*
X221805500Y-112776000D01*
X219519500Y-115824000D02*
X219519500Y-112776000D01*
D12*
X221762500Y-113000000D02*
X219662500Y-113000000D01*
X219562500Y-113000000D02*
X219662500Y-113000000D01*
X219662500Y-113000000D02*
X219562500Y-113000000D01*
X219562500Y-113200000D02*
X221762500Y-113200000D01*
X221762500Y-113400000D02*
X219562500Y-113400000D01*
D13*
X218630500Y-115824000D02*
X216344500Y-115824000D01*
X218630500Y-112776000D02*
X218630500Y-115824000D01*
X216344500Y-112776000D02*
X218630500Y-112776000D01*
X216344500Y-115824000D02*
X216344500Y-112776000D01*
D12*
X218587500Y-113000000D02*
X216487500Y-113000000D01*
X216387500Y-113000000D02*
X216487500Y-113000000D01*
X216487500Y-113000000D02*
X216387500Y-113000000D01*
X216387500Y-113200000D02*
X218587500Y-113200000D01*
X218587500Y-113400000D02*
X216387500Y-113400000D01*
D13*
X201168000Y-115824000D02*
X198882000Y-115824000D01*
X201168000Y-112776000D02*
X201168000Y-115824000D01*
X198882000Y-112776000D02*
X201168000Y-112776000D01*
X198882000Y-115824000D02*
X198882000Y-112776000D01*
D12*
X201125000Y-113000000D02*
X199025000Y-113000000D01*
X198925000Y-113000000D02*
X199025000Y-113000000D01*
X199025000Y-113000000D02*
X198925000Y-113000000D01*
X198925000Y-113200000D02*
X201125000Y-113200000D01*
X201125000Y-113400000D02*
X198925000Y-113400000D01*
D13*
X183705500Y-115824000D02*
X181419500Y-115824000D01*
X183705500Y-112776000D02*
X183705500Y-115824000D01*
X181419500Y-112776000D02*
X183705500Y-112776000D01*
X181419500Y-115824000D02*
X181419500Y-112776000D01*
D12*
X183662500Y-113000000D02*
X181562500Y-113000000D01*
X181462500Y-113000000D02*
X181562500Y-113000000D01*
X181562500Y-113000000D02*
X181462500Y-113000000D01*
X181462500Y-113200000D02*
X183662500Y-113200000D01*
X183662500Y-113400000D02*
X181462500Y-113400000D01*
D13*
X180530500Y-115824000D02*
X178244500Y-115824000D01*
X180530500Y-112776000D02*
X180530500Y-115824000D01*
X178244500Y-112776000D02*
X180530500Y-112776000D01*
X178244500Y-115824000D02*
X178244500Y-112776000D01*
D12*
X180487500Y-113000000D02*
X178387500Y-113000000D01*
X178287500Y-113000000D02*
X178387500Y-113000000D01*
X178387500Y-113000000D02*
X178287500Y-113000000D01*
X178287500Y-113200000D02*
X180487500Y-113200000D01*
X180487500Y-113400000D02*
X178287500Y-113400000D01*
D13*
X107505500Y-115824000D02*
X105219500Y-115824000D01*
X107505500Y-112776000D02*
X107505500Y-115824000D01*
X105219500Y-112776000D02*
X107505500Y-112776000D01*
X105219500Y-115824000D02*
X105219500Y-112776000D01*
D12*
X107462500Y-113000000D02*
X105362500Y-113000000D01*
X105262500Y-113000000D02*
X105362500Y-113000000D01*
X105362500Y-113000000D02*
X105262500Y-113000000D01*
X105262500Y-113200000D02*
X107462500Y-113200000D01*
X107462500Y-113400000D02*
X105262500Y-113400000D01*
D13*
X104330500Y-115824000D02*
X102044500Y-115824000D01*
X104330500Y-112776000D02*
X104330500Y-115824000D01*
X102044500Y-112776000D02*
X104330500Y-112776000D01*
X102044500Y-115824000D02*
X102044500Y-112776000D01*
D12*
X104287500Y-113000000D02*
X102187500Y-113000000D01*
X102087500Y-113000000D02*
X102187500Y-113000000D01*
X102187500Y-113000000D02*
X102087500Y-113000000D01*
X102087500Y-113200000D02*
X104287500Y-113200000D01*
X104287500Y-113400000D02*
X102087500Y-113400000D01*
D13*
X86868000Y-115824000D02*
X84582000Y-115824000D01*
X86868000Y-112776000D02*
X86868000Y-115824000D01*
X84582000Y-112776000D02*
X86868000Y-112776000D01*
X84582000Y-115824000D02*
X84582000Y-112776000D01*
D12*
X86825000Y-113000000D02*
X84725000Y-113000000D01*
X84625000Y-113000000D02*
X84725000Y-113000000D01*
X84725000Y-113000000D02*
X84625000Y-113000000D01*
X84625000Y-113200000D02*
X86825000Y-113200000D01*
X86825000Y-113400000D02*
X84625000Y-113400000D01*
D13*
X69405500Y-115824000D02*
X67119500Y-115824000D01*
X69405500Y-112776000D02*
X69405500Y-115824000D01*
X67119500Y-112776000D02*
X69405500Y-112776000D01*
X67119500Y-115824000D02*
X67119500Y-112776000D01*
D12*
X69362500Y-113000000D02*
X67262500Y-113000000D01*
X67162500Y-113000000D02*
X67262500Y-113000000D01*
X67262500Y-113000000D02*
X67162500Y-113000000D01*
X67162500Y-113200000D02*
X69362500Y-113200000D01*
X69362500Y-113400000D02*
X67162500Y-113400000D01*
D13*
X66230500Y-115824000D02*
X63944500Y-115824000D01*
X66230500Y-112776000D02*
X66230500Y-115824000D01*
X63944500Y-112776000D02*
X66230500Y-112776000D01*
X63944500Y-115824000D02*
X63944500Y-112776000D01*
D12*
X66187500Y-113000000D02*
X64087500Y-113000000D01*
X63987500Y-113000000D02*
X64087500Y-113000000D01*
X64087500Y-113000000D02*
X63987500Y-113000000D01*
X63987500Y-113200000D02*
X66187500Y-113200000D01*
X66187500Y-113400000D02*
X63987500Y-113400000D01*
D13*
X221805500Y-96774000D02*
X219519500Y-96774000D01*
X221805500Y-93726000D02*
X221805500Y-96774000D01*
X219519500Y-93726000D02*
X221805500Y-93726000D01*
X219519500Y-96774000D02*
X219519500Y-93726000D01*
D12*
X221762500Y-93950000D02*
X219662500Y-93950000D01*
X219562500Y-93950000D02*
X219662500Y-93950000D01*
X219662500Y-93950000D02*
X219562500Y-93950000D01*
X219562500Y-94150000D02*
X221762500Y-94150000D01*
X221762500Y-94350000D02*
X219562500Y-94350000D01*
D13*
X218630500Y-96774000D02*
X216344500Y-96774000D01*
X218630500Y-93726000D02*
X218630500Y-96774000D01*
X216344500Y-93726000D02*
X218630500Y-93726000D01*
X216344500Y-96774000D02*
X216344500Y-93726000D01*
D12*
X218587500Y-93950000D02*
X216487500Y-93950000D01*
X216387500Y-93950000D02*
X216487500Y-93950000D01*
X216487500Y-93950000D02*
X216387500Y-93950000D01*
X216387500Y-94150000D02*
X218587500Y-94150000D01*
X218587500Y-94350000D02*
X216387500Y-94350000D01*
D13*
X201168000Y-96774000D02*
X198882000Y-96774000D01*
X201168000Y-93726000D02*
X201168000Y-96774000D01*
X198882000Y-93726000D02*
X201168000Y-93726000D01*
X198882000Y-96774000D02*
X198882000Y-93726000D01*
D12*
X201125000Y-93950000D02*
X199025000Y-93950000D01*
X198925000Y-93950000D02*
X199025000Y-93950000D01*
X199025000Y-93950000D02*
X198925000Y-93950000D01*
X198925000Y-94150000D02*
X201125000Y-94150000D01*
X201125000Y-94350000D02*
X198925000Y-94350000D01*
D13*
X182118000Y-96774000D02*
X179832000Y-96774000D01*
X182118000Y-93726000D02*
X182118000Y-96774000D01*
X179832000Y-93726000D02*
X182118000Y-93726000D01*
X179832000Y-96774000D02*
X179832000Y-93726000D01*
D12*
X182075000Y-93950000D02*
X179975000Y-93950000D01*
X179875000Y-93950000D02*
X179975000Y-93950000D01*
X179975000Y-93950000D02*
X179875000Y-93950000D01*
X179875000Y-94150000D02*
X182075000Y-94150000D01*
X182075000Y-94350000D02*
X179875000Y-94350000D01*
D13*
X163068000Y-96774000D02*
X160782000Y-96774000D01*
X163068000Y-93726000D02*
X163068000Y-96774000D01*
X160782000Y-93726000D02*
X163068000Y-93726000D01*
X160782000Y-96774000D02*
X160782000Y-93726000D01*
D12*
X163025000Y-93950000D02*
X160925000Y-93950000D01*
X160825000Y-93950000D02*
X160925000Y-93950000D01*
X160925000Y-93950000D02*
X160825000Y-93950000D01*
X160825000Y-94150000D02*
X163025000Y-94150000D01*
X163025000Y-94350000D02*
X160825000Y-94350000D01*
D13*
X144018000Y-96774000D02*
X141732000Y-96774000D01*
X144018000Y-93726000D02*
X144018000Y-96774000D01*
X141732000Y-93726000D02*
X144018000Y-93726000D01*
X141732000Y-96774000D02*
X141732000Y-93726000D01*
D12*
X143975000Y-93950000D02*
X141875000Y-93950000D01*
X141775000Y-93950000D02*
X141875000Y-93950000D01*
X141875000Y-93950000D02*
X141775000Y-93950000D01*
X141775000Y-94150000D02*
X143975000Y-94150000D01*
X143975000Y-94350000D02*
X141775000Y-94350000D01*
D13*
X124968000Y-96774000D02*
X122682000Y-96774000D01*
X124968000Y-93726000D02*
X124968000Y-96774000D01*
X122682000Y-93726000D02*
X124968000Y-93726000D01*
X122682000Y-96774000D02*
X122682000Y-93726000D01*
D12*
X124925000Y-93950000D02*
X122825000Y-93950000D01*
X122725000Y-93950000D02*
X122825000Y-93950000D01*
X122825000Y-93950000D02*
X122725000Y-93950000D01*
X122725000Y-94150000D02*
X124925000Y-94150000D01*
X124925000Y-94350000D02*
X122725000Y-94350000D01*
D13*
X105918000Y-96774000D02*
X103632000Y-96774000D01*
X105918000Y-93726000D02*
X105918000Y-96774000D01*
X103632000Y-93726000D02*
X105918000Y-93726000D01*
X103632000Y-96774000D02*
X103632000Y-93726000D01*
D12*
X105875000Y-93950000D02*
X103775000Y-93950000D01*
X103675000Y-93950000D02*
X103775000Y-93950000D01*
X103775000Y-93950000D02*
X103675000Y-93950000D01*
X103675000Y-94150000D02*
X105875000Y-94150000D01*
X105875000Y-94350000D02*
X103675000Y-94350000D01*
D13*
X86868000Y-96774000D02*
X84582000Y-96774000D01*
X86868000Y-93726000D02*
X86868000Y-96774000D01*
X84582000Y-93726000D02*
X86868000Y-93726000D01*
X84582000Y-96774000D02*
X84582000Y-93726000D01*
D12*
X86825000Y-93950000D02*
X84725000Y-93950000D01*
X84625000Y-93950000D02*
X84725000Y-93950000D01*
X84725000Y-93950000D02*
X84625000Y-93950000D01*
X84625000Y-94150000D02*
X86825000Y-94150000D01*
X86825000Y-94350000D02*
X84625000Y-94350000D01*
D13*
X67818000Y-96774000D02*
X65532000Y-96774000D01*
X67818000Y-93726000D02*
X67818000Y-96774000D01*
X65532000Y-93726000D02*
X67818000Y-93726000D01*
X65532000Y-96774000D02*
X65532000Y-93726000D01*
D12*
X67775000Y-93950000D02*
X65675000Y-93950000D01*
X65575000Y-93950000D02*
X65675000Y-93950000D01*
X65675000Y-93950000D02*
X65575000Y-93950000D01*
X65575000Y-94150000D02*
X67775000Y-94150000D01*
X67775000Y-94350000D02*
X65575000Y-94350000D01*
D13*
X221805500Y-77724000D02*
X219519500Y-77724000D01*
X221805500Y-74676000D02*
X221805500Y-77724000D01*
X219519500Y-74676000D02*
X221805500Y-74676000D01*
X219519500Y-77724000D02*
X219519500Y-74676000D01*
D12*
X221762500Y-74900000D02*
X219662500Y-74900000D01*
X219562500Y-74900000D02*
X219662500Y-74900000D01*
X219662500Y-74900000D02*
X219562500Y-74900000D01*
X219562500Y-75100000D02*
X221762500Y-75100000D01*
X221762500Y-75300000D02*
X219562500Y-75300000D01*
D13*
X218630500Y-77724000D02*
X216344500Y-77724000D01*
X218630500Y-74676000D02*
X218630500Y-77724000D01*
X216344500Y-74676000D02*
X218630500Y-74676000D01*
X216344500Y-77724000D02*
X216344500Y-74676000D01*
D12*
X218587500Y-74900000D02*
X216487500Y-74900000D01*
X216387500Y-74900000D02*
X216487500Y-74900000D01*
X216487500Y-74900000D02*
X216387500Y-74900000D01*
X216387500Y-75100000D02*
X218587500Y-75100000D01*
X218587500Y-75300000D02*
X216387500Y-75300000D01*
D13*
X201168000Y-77724000D02*
X198882000Y-77724000D01*
X201168000Y-74676000D02*
X201168000Y-77724000D01*
X198882000Y-74676000D02*
X201168000Y-74676000D01*
X198882000Y-77724000D02*
X198882000Y-74676000D01*
D12*
X201125000Y-74900000D02*
X199025000Y-74900000D01*
X198925000Y-74900000D02*
X199025000Y-74900000D01*
X199025000Y-74900000D02*
X198925000Y-74900000D01*
X198925000Y-75100000D02*
X201125000Y-75100000D01*
X201125000Y-75300000D02*
X198925000Y-75300000D01*
D13*
X182118000Y-77724000D02*
X179832000Y-77724000D01*
X182118000Y-74676000D02*
X182118000Y-77724000D01*
X179832000Y-74676000D02*
X182118000Y-74676000D01*
X179832000Y-77724000D02*
X179832000Y-74676000D01*
D12*
X182075000Y-74900000D02*
X179975000Y-74900000D01*
X179875000Y-74900000D02*
X179975000Y-74900000D01*
X179975000Y-74900000D02*
X179875000Y-74900000D01*
X179875000Y-75100000D02*
X182075000Y-75100000D01*
X182075000Y-75300000D02*
X179875000Y-75300000D01*
D13*
X163068000Y-77724000D02*
X160782000Y-77724000D01*
X163068000Y-74676000D02*
X163068000Y-77724000D01*
X160782000Y-74676000D02*
X163068000Y-74676000D01*
X160782000Y-77724000D02*
X160782000Y-74676000D01*
D12*
X163025000Y-74900000D02*
X160925000Y-74900000D01*
X160825000Y-74900000D02*
X160925000Y-74900000D01*
X160925000Y-74900000D02*
X160825000Y-74900000D01*
X160825000Y-75100000D02*
X163025000Y-75100000D01*
X163025000Y-75300000D02*
X160825000Y-75300000D01*
D13*
X144018000Y-77724000D02*
X141732000Y-77724000D01*
X144018000Y-74676000D02*
X144018000Y-77724000D01*
X141732000Y-74676000D02*
X144018000Y-74676000D01*
X141732000Y-77724000D02*
X141732000Y-74676000D01*
D12*
X143975000Y-74900000D02*
X141875000Y-74900000D01*
X141775000Y-74900000D02*
X141875000Y-74900000D01*
X141875000Y-74900000D02*
X141775000Y-74900000D01*
X141775000Y-75100000D02*
X143975000Y-75100000D01*
X143975000Y-75300000D02*
X141775000Y-75300000D01*
D13*
X124968000Y-77724000D02*
X122682000Y-77724000D01*
X124968000Y-74676000D02*
X124968000Y-77724000D01*
X122682000Y-74676000D02*
X124968000Y-74676000D01*
X122682000Y-77724000D02*
X122682000Y-74676000D01*
D12*
X124925000Y-74900000D02*
X122825000Y-74900000D01*
X122725000Y-74900000D02*
X122825000Y-74900000D01*
X122825000Y-74900000D02*
X122725000Y-74900000D01*
X122725000Y-75100000D02*
X124925000Y-75100000D01*
X124925000Y-75300000D02*
X122725000Y-75300000D01*
D13*
X105918000Y-77724000D02*
X103632000Y-77724000D01*
X105918000Y-74676000D02*
X105918000Y-77724000D01*
X103632000Y-74676000D02*
X105918000Y-74676000D01*
X103632000Y-77724000D02*
X103632000Y-74676000D01*
D12*
X105875000Y-74900000D02*
X103775000Y-74900000D01*
X103675000Y-74900000D02*
X103775000Y-74900000D01*
X103775000Y-74900000D02*
X103675000Y-74900000D01*
X103675000Y-75100000D02*
X105875000Y-75100000D01*
X105875000Y-75300000D02*
X103675000Y-75300000D01*
D13*
X86868000Y-77724000D02*
X84582000Y-77724000D01*
X86868000Y-74676000D02*
X86868000Y-77724000D01*
X84582000Y-74676000D02*
X86868000Y-74676000D01*
X84582000Y-77724000D02*
X84582000Y-74676000D01*
D12*
X86825000Y-74900000D02*
X84725000Y-74900000D01*
X84625000Y-74900000D02*
X84725000Y-74900000D01*
X84725000Y-74900000D02*
X84625000Y-74900000D01*
X84625000Y-75100000D02*
X86825000Y-75100000D01*
X86825000Y-75300000D02*
X84625000Y-75300000D01*
D13*
X67818000Y-77724000D02*
X65532000Y-77724000D01*
X67818000Y-74676000D02*
X67818000Y-77724000D01*
X65532000Y-74676000D02*
X67818000Y-74676000D01*
X65532000Y-77724000D02*
X65532000Y-74676000D01*
D12*
X67775000Y-74900000D02*
X65675000Y-74900000D01*
X65575000Y-74900000D02*
X65675000Y-74900000D01*
X65675000Y-74900000D02*
X65575000Y-74900000D01*
X65575000Y-75100000D02*
X67775000Y-75100000D01*
X67775000Y-75300000D02*
X65575000Y-75300000D01*
D13*
X221805500Y-58674000D02*
X219519500Y-58674000D01*
X221805500Y-55626000D02*
X221805500Y-58674000D01*
X219519500Y-55626000D02*
X221805500Y-55626000D01*
X219519500Y-58674000D02*
X219519500Y-55626000D01*
D12*
X221762500Y-55850000D02*
X219662500Y-55850000D01*
X219562500Y-55850000D02*
X219662500Y-55850000D01*
X219662500Y-55850000D02*
X219562500Y-55850000D01*
X219562500Y-56050000D02*
X221762500Y-56050000D01*
X221762500Y-56250000D02*
X219562500Y-56250000D01*
D13*
X218630500Y-58674000D02*
X216344500Y-58674000D01*
X218630500Y-55626000D02*
X218630500Y-58674000D01*
X216344500Y-55626000D02*
X218630500Y-55626000D01*
X216344500Y-58674000D02*
X216344500Y-55626000D01*
D12*
X218587500Y-55850000D02*
X216487500Y-55850000D01*
X216387500Y-55850000D02*
X216487500Y-55850000D01*
X216487500Y-55850000D02*
X216387500Y-55850000D01*
X216387500Y-56050000D02*
X218587500Y-56050000D01*
X218587500Y-56250000D02*
X216387500Y-56250000D01*
D13*
X201168000Y-58674000D02*
X198882000Y-58674000D01*
X201168000Y-55626000D02*
X201168000Y-58674000D01*
X198882000Y-55626000D02*
X201168000Y-55626000D01*
X198882000Y-58674000D02*
X198882000Y-55626000D01*
D12*
X201125000Y-55850000D02*
X199025000Y-55850000D01*
X198925000Y-55850000D02*
X199025000Y-55850000D01*
X199025000Y-55850000D02*
X198925000Y-55850000D01*
X198925000Y-56050000D02*
X201125000Y-56050000D01*
X201125000Y-56250000D02*
X198925000Y-56250000D01*
D13*
X182118000Y-58674000D02*
X179832000Y-58674000D01*
X182118000Y-55626000D02*
X182118000Y-58674000D01*
X179832000Y-55626000D02*
X182118000Y-55626000D01*
X179832000Y-58674000D02*
X179832000Y-55626000D01*
D12*
X182075000Y-55850000D02*
X179975000Y-55850000D01*
X179875000Y-55850000D02*
X179975000Y-55850000D01*
X179975000Y-55850000D02*
X179875000Y-55850000D01*
X179875000Y-56050000D02*
X182075000Y-56050000D01*
X182075000Y-56250000D02*
X179875000Y-56250000D01*
D13*
X163068000Y-58674000D02*
X160782000Y-58674000D01*
X163068000Y-55626000D02*
X163068000Y-58674000D01*
X160782000Y-55626000D02*
X163068000Y-55626000D01*
X160782000Y-58674000D02*
X160782000Y-55626000D01*
D12*
X163025000Y-55850000D02*
X160925000Y-55850000D01*
X160825000Y-55850000D02*
X160925000Y-55850000D01*
X160925000Y-55850000D02*
X160825000Y-55850000D01*
X160825000Y-56050000D02*
X163025000Y-56050000D01*
X163025000Y-56250000D02*
X160825000Y-56250000D01*
D13*
X144018000Y-58674000D02*
X141732000Y-58674000D01*
X144018000Y-55626000D02*
X144018000Y-58674000D01*
X141732000Y-55626000D02*
X144018000Y-55626000D01*
X141732000Y-58674000D02*
X141732000Y-55626000D01*
D12*
X143975000Y-55850000D02*
X141875000Y-55850000D01*
X141775000Y-55850000D02*
X141875000Y-55850000D01*
X141875000Y-55850000D02*
X141775000Y-55850000D01*
X141775000Y-56050000D02*
X143975000Y-56050000D01*
X143975000Y-56250000D02*
X141775000Y-56250000D01*
D13*
X124968000Y-58674000D02*
X122682000Y-58674000D01*
X124968000Y-55626000D02*
X124968000Y-58674000D01*
X122682000Y-55626000D02*
X124968000Y-55626000D01*
X122682000Y-58674000D02*
X122682000Y-55626000D01*
D12*
X124925000Y-55850000D02*
X122825000Y-55850000D01*
X122725000Y-55850000D02*
X122825000Y-55850000D01*
X122825000Y-55850000D02*
X122725000Y-55850000D01*
X122725000Y-56050000D02*
X124925000Y-56050000D01*
X124925000Y-56250000D02*
X122725000Y-56250000D01*
D13*
X105918000Y-58674000D02*
X103632000Y-58674000D01*
X105918000Y-55626000D02*
X105918000Y-58674000D01*
X103632000Y-55626000D02*
X105918000Y-55626000D01*
X103632000Y-58674000D02*
X103632000Y-55626000D01*
D12*
X105875000Y-55850000D02*
X103775000Y-55850000D01*
X103675000Y-55850000D02*
X103775000Y-55850000D01*
X103775000Y-55850000D02*
X103675000Y-55850000D01*
X103675000Y-56050000D02*
X105875000Y-56050000D01*
X105875000Y-56250000D02*
X103675000Y-56250000D01*
X86825000Y-56250000D02*
X84625000Y-56250000D01*
X84625000Y-56050000D02*
X86825000Y-56050000D01*
X84725000Y-55850000D02*
X84625000Y-55850000D01*
X84625000Y-55850000D02*
X84725000Y-55850000D01*
X86825000Y-55850000D02*
X84725000Y-55850000D01*
D13*
X84582000Y-58674000D02*
X84582000Y-55626000D01*
X84582000Y-55626000D02*
X86868000Y-55626000D01*
X86868000Y-55626000D02*
X86868000Y-58674000D01*
X86868000Y-58674000D02*
X84582000Y-58674000D01*
X67818000Y-58674000D02*
X65532000Y-58674000D01*
X67818000Y-55626000D02*
X67818000Y-58674000D01*
X65532000Y-55626000D02*
X67818000Y-55626000D01*
X65532000Y-58674000D02*
X65532000Y-55626000D01*
D12*
X67775000Y-55850000D02*
X65675000Y-55850000D01*
X65575000Y-55850000D02*
X65675000Y-55850000D01*
X65675000Y-55850000D02*
X65575000Y-55850000D01*
X65575000Y-56050000D02*
X67775000Y-56050000D01*
X67775000Y-56250000D02*
X65575000Y-56250000D01*
X180066904Y-44151476D02*
X179266904Y-44151476D01*
X179266904Y-43961000D01*
X179305000Y-43846714D01*
X179381190Y-43770523D01*
X179457380Y-43732428D01*
X179609761Y-43694333D01*
X179724047Y-43694333D01*
X179876428Y-43732428D01*
X179952619Y-43770523D01*
X180028809Y-43846714D01*
X180066904Y-43961000D01*
X180066904Y-44151476D01*
X179343095Y-43389571D02*
X179305000Y-43351476D01*
X179266904Y-43275285D01*
X179266904Y-43084809D01*
X179305000Y-43008619D01*
X179343095Y-42970523D01*
X179419285Y-42932428D01*
X179495476Y-42932428D01*
X179609761Y-42970523D01*
X180066904Y-43427666D01*
X180066904Y-42932428D01*
X169906904Y-44151476D02*
X169106904Y-44151476D01*
X169106904Y-43961000D01*
X169145000Y-43846714D01*
X169221190Y-43770523D01*
X169297380Y-43732428D01*
X169449761Y-43694333D01*
X169564047Y-43694333D01*
X169716428Y-43732428D01*
X169792619Y-43770523D01*
X169868809Y-43846714D01*
X169906904Y-43961000D01*
X169906904Y-44151476D01*
X169106904Y-43199095D02*
X169106904Y-43122904D01*
X169145000Y-43046714D01*
X169183095Y-43008619D01*
X169259285Y-42970523D01*
X169411666Y-42932428D01*
X169602142Y-42932428D01*
X169754523Y-42970523D01*
X169830714Y-43008619D01*
X169868809Y-43046714D01*
X169906904Y-43122904D01*
X169906904Y-43199095D01*
X169868809Y-43275285D01*
X169830714Y-43313380D01*
X169754523Y-43351476D01*
X169602142Y-43389571D01*
X169411666Y-43389571D01*
X169259285Y-43351476D01*
X169183095Y-43313380D01*
X169145000Y-43275285D01*
X169106904Y-43199095D01*
X172446904Y-44151476D02*
X171646904Y-44151476D01*
X171646904Y-43961000D01*
X171685000Y-43846714D01*
X171761190Y-43770523D01*
X171837380Y-43732428D01*
X171989761Y-43694333D01*
X172104047Y-43694333D01*
X172256428Y-43732428D01*
X172332619Y-43770523D01*
X172408809Y-43846714D01*
X172446904Y-43961000D01*
X172446904Y-44151476D01*
X172446904Y-42932428D02*
X172446904Y-43389571D01*
X172446904Y-43161000D02*
X171646904Y-43161000D01*
X171761190Y-43237190D01*
X171837380Y-43313380D01*
X171875476Y-43389571D01*
X174225000Y-44170523D02*
X174186904Y-44246714D01*
X174186904Y-44361000D01*
X174225000Y-44475285D01*
X174301190Y-44551476D01*
X174377380Y-44589571D01*
X174529761Y-44627666D01*
X174644047Y-44627666D01*
X174796428Y-44589571D01*
X174872619Y-44551476D01*
X174948809Y-44475285D01*
X174986904Y-44361000D01*
X174986904Y-44284809D01*
X174948809Y-44170523D01*
X174910714Y-44132428D01*
X174644047Y-44132428D01*
X174644047Y-44284809D01*
X174986904Y-43789571D02*
X174186904Y-43789571D01*
X174986904Y-43332428D01*
X174186904Y-43332428D01*
X174986904Y-42951476D02*
X174186904Y-42951476D01*
X174186904Y-42761000D01*
X174225000Y-42646714D01*
X174301190Y-42570523D01*
X174377380Y-42532428D01*
X174529761Y-42494333D01*
X174644047Y-42494333D01*
X174796428Y-42532428D01*
X174872619Y-42570523D01*
X174948809Y-42646714D01*
X174986904Y-42761000D01*
X174986904Y-42951476D01*
X176765000Y-44170523D02*
X176726904Y-44246714D01*
X176726904Y-44361000D01*
X176765000Y-44475285D01*
X176841190Y-44551476D01*
X176917380Y-44589571D01*
X177069761Y-44627666D01*
X177184047Y-44627666D01*
X177336428Y-44589571D01*
X177412619Y-44551476D01*
X177488809Y-44475285D01*
X177526904Y-44361000D01*
X177526904Y-44284809D01*
X177488809Y-44170523D01*
X177450714Y-44132428D01*
X177184047Y-44132428D01*
X177184047Y-44284809D01*
X177526904Y-43789571D02*
X176726904Y-43789571D01*
X177526904Y-43332428D01*
X176726904Y-43332428D01*
X177526904Y-42951476D02*
X176726904Y-42951476D01*
X176726904Y-42761000D01*
X176765000Y-42646714D01*
X176841190Y-42570523D01*
X176917380Y-42532428D01*
X177069761Y-42494333D01*
X177184047Y-42494333D01*
X177336428Y-42532428D01*
X177412619Y-42570523D01*
X177488809Y-42646714D01*
X177526904Y-42761000D01*
X177526904Y-42951476D01*
X167366904Y-44151476D02*
X166566904Y-44151476D01*
X166566904Y-43961000D01*
X166605000Y-43846714D01*
X166681190Y-43770523D01*
X166757380Y-43732428D01*
X166909761Y-43694333D01*
X167024047Y-43694333D01*
X167176428Y-43732428D01*
X167252619Y-43770523D01*
X167328809Y-43846714D01*
X167366904Y-43961000D01*
X167366904Y-44151476D01*
X166833571Y-43008619D02*
X167366904Y-43008619D01*
X166528809Y-43199095D02*
X167100238Y-43389571D01*
X167100238Y-42894333D01*
X164750714Y-43694333D02*
X164788809Y-43732428D01*
X164826904Y-43846714D01*
X164826904Y-43922904D01*
X164788809Y-44037190D01*
X164712619Y-44113380D01*
X164636428Y-44151476D01*
X164484047Y-44189571D01*
X164369761Y-44189571D01*
X164217380Y-44151476D01*
X164141190Y-44113380D01*
X164065000Y-44037190D01*
X164026904Y-43922904D01*
X164026904Y-43846714D01*
X164065000Y-43732428D01*
X164103095Y-43694333D01*
X164026904Y-43008619D02*
X164026904Y-43161000D01*
X164065000Y-43237190D01*
X164103095Y-43275285D01*
X164217380Y-43351476D01*
X164369761Y-43389571D01*
X164674523Y-43389571D01*
X164750714Y-43351476D01*
X164788809Y-43313380D01*
X164826904Y-43237190D01*
X164826904Y-43084809D01*
X164788809Y-43008619D01*
X164750714Y-42970523D01*
X164674523Y-42932428D01*
X164484047Y-42932428D01*
X164407857Y-42970523D01*
X164369761Y-43008619D01*
X164331666Y-43084809D01*
X164331666Y-43237190D01*
X164369761Y-43313380D01*
X164407857Y-43351476D01*
X164484047Y-43389571D01*
X162286904Y-44151476D02*
X161486904Y-44151476D01*
X161486904Y-43961000D01*
X161525000Y-43846714D01*
X161601190Y-43770523D01*
X161677380Y-43732428D01*
X161829761Y-43694333D01*
X161944047Y-43694333D01*
X162096428Y-43732428D01*
X162172619Y-43770523D01*
X162248809Y-43846714D01*
X162286904Y-43961000D01*
X162286904Y-44151476D01*
X161486904Y-43427666D02*
X161486904Y-42894333D01*
X162286904Y-43237190D01*
X159327857Y-44113380D02*
X159327857Y-43846714D01*
X159746904Y-43732428D02*
X159746904Y-44113380D01*
X158946904Y-44113380D01*
X158946904Y-43732428D01*
X158946904Y-43046714D02*
X158946904Y-43199095D01*
X158985000Y-43275285D01*
X159023095Y-43313380D01*
X159137380Y-43389571D01*
X159289761Y-43427666D01*
X159594523Y-43427666D01*
X159670714Y-43389571D01*
X159708809Y-43351476D01*
X159746904Y-43275285D01*
X159746904Y-43122904D01*
X159708809Y-43046714D01*
X159670714Y-43008619D01*
X159594523Y-42970523D01*
X159404047Y-42970523D01*
X159327857Y-43008619D01*
X159289761Y-43046714D01*
X159251666Y-43122904D01*
X159251666Y-43275285D01*
X159289761Y-43351476D01*
X159327857Y-43389571D01*
X159404047Y-43427666D01*
X156787857Y-43884809D02*
X156825952Y-43770523D01*
X156864047Y-43732428D01*
X156940238Y-43694333D01*
X157054523Y-43694333D01*
X157130714Y-43732428D01*
X157168809Y-43770523D01*
X157206904Y-43846714D01*
X157206904Y-44151476D01*
X156406904Y-44151476D01*
X156406904Y-43884809D01*
X156445000Y-43808619D01*
X156483095Y-43770523D01*
X156559285Y-43732428D01*
X156635476Y-43732428D01*
X156711666Y-43770523D01*
X156749761Y-43808619D01*
X156787857Y-43884809D01*
X156787857Y-44151476D01*
X156673571Y-43008619D02*
X157206904Y-43008619D01*
X156368809Y-43199095D02*
X156940238Y-43389571D01*
X156940238Y-42894333D01*
X154247857Y-43884809D02*
X154285952Y-43770523D01*
X154324047Y-43732428D01*
X154400238Y-43694333D01*
X154514523Y-43694333D01*
X154590714Y-43732428D01*
X154628809Y-43770523D01*
X154666904Y-43846714D01*
X154666904Y-44151476D01*
X153866904Y-44151476D01*
X153866904Y-43884809D01*
X153905000Y-43808619D01*
X153943095Y-43770523D01*
X154019285Y-43732428D01*
X154095476Y-43732428D01*
X154171666Y-43770523D01*
X154209761Y-43808619D01*
X154247857Y-43884809D01*
X154247857Y-44151476D01*
X153866904Y-42970523D02*
X153866904Y-43351476D01*
X154247857Y-43389571D01*
X154209761Y-43351476D01*
X154171666Y-43275285D01*
X154171666Y-43084809D01*
X154209761Y-43008619D01*
X154247857Y-42970523D01*
X154324047Y-42932428D01*
X154514523Y-42932428D01*
X154590714Y-42970523D01*
X154628809Y-43008619D01*
X154666904Y-43084809D01*
X154666904Y-43275285D01*
X154628809Y-43351476D01*
X154590714Y-43389571D01*
X154247857Y-32962809D02*
X154285952Y-32848523D01*
X154324047Y-32810428D01*
X154400238Y-32772333D01*
X154514523Y-32772333D01*
X154590714Y-32810428D01*
X154628809Y-32848523D01*
X154666904Y-32924714D01*
X154666904Y-33229476D01*
X153866904Y-33229476D01*
X153866904Y-32962809D01*
X153905000Y-32886619D01*
X153943095Y-32848523D01*
X154019285Y-32810428D01*
X154095476Y-32810428D01*
X154171666Y-32848523D01*
X154209761Y-32886619D01*
X154247857Y-32962809D01*
X154247857Y-33229476D01*
X153866904Y-32086619D02*
X153866904Y-32239000D01*
X153905000Y-32315190D01*
X153943095Y-32353285D01*
X154057380Y-32429476D01*
X154209761Y-32467571D01*
X154514523Y-32467571D01*
X154590714Y-32429476D01*
X154628809Y-32391380D01*
X154666904Y-32315190D01*
X154666904Y-32162809D01*
X154628809Y-32086619D01*
X154590714Y-32048523D01*
X154514523Y-32010428D01*
X154324047Y-32010428D01*
X154247857Y-32048523D01*
X154209761Y-32086619D01*
X154171666Y-32162809D01*
X154171666Y-32315190D01*
X154209761Y-32391380D01*
X154247857Y-32429476D01*
X154324047Y-32467571D01*
X159327857Y-32962809D02*
X159365952Y-32848523D01*
X159404047Y-32810428D01*
X159480238Y-32772333D01*
X159594523Y-32772333D01*
X159670714Y-32810428D01*
X159708809Y-32848523D01*
X159746904Y-32924714D01*
X159746904Y-33229476D01*
X158946904Y-33229476D01*
X158946904Y-32962809D01*
X158985000Y-32886619D01*
X159023095Y-32848523D01*
X159099285Y-32810428D01*
X159175476Y-32810428D01*
X159251666Y-32848523D01*
X159289761Y-32886619D01*
X159327857Y-32962809D01*
X159327857Y-33229476D01*
X158946904Y-32505666D02*
X158946904Y-32010428D01*
X159251666Y-32277095D01*
X159251666Y-32162809D01*
X159289761Y-32086619D01*
X159327857Y-32048523D01*
X159404047Y-32010428D01*
X159594523Y-32010428D01*
X159670714Y-32048523D01*
X159708809Y-32086619D01*
X159746904Y-32162809D01*
X159746904Y-32391380D01*
X159708809Y-32467571D01*
X159670714Y-32505666D01*
X161867857Y-32962809D02*
X161905952Y-32848523D01*
X161944047Y-32810428D01*
X162020238Y-32772333D01*
X162134523Y-32772333D01*
X162210714Y-32810428D01*
X162248809Y-32848523D01*
X162286904Y-32924714D01*
X162286904Y-33229476D01*
X161486904Y-33229476D01*
X161486904Y-32962809D01*
X161525000Y-32886619D01*
X161563095Y-32848523D01*
X161639285Y-32810428D01*
X161715476Y-32810428D01*
X161791666Y-32848523D01*
X161829761Y-32886619D01*
X161867857Y-32962809D01*
X161867857Y-33229476D01*
X162286904Y-32010428D02*
X162286904Y-32467571D01*
X162286904Y-32239000D02*
X161486904Y-32239000D01*
X161601190Y-32315190D01*
X161677380Y-32391380D01*
X161715476Y-32467571D01*
X172027857Y-32905666D02*
X172027857Y-33172333D01*
X172446904Y-33172333D02*
X171646904Y-33172333D01*
X171646904Y-32791380D01*
X171913571Y-32143761D02*
X172446904Y-32143761D01*
X171608809Y-32334238D02*
X172180238Y-32524714D01*
X172180238Y-32029476D01*
X174186904Y-33705666D02*
X174986904Y-33439000D01*
X174186904Y-33172333D01*
X174910714Y-32448523D02*
X174948809Y-32486619D01*
X174986904Y-32600904D01*
X174986904Y-32677095D01*
X174948809Y-32791380D01*
X174872619Y-32867571D01*
X174796428Y-32905666D01*
X174644047Y-32943761D01*
X174529761Y-32943761D01*
X174377380Y-32905666D01*
X174301190Y-32867571D01*
X174225000Y-32791380D01*
X174186904Y-32677095D01*
X174186904Y-32600904D01*
X174225000Y-32486619D01*
X174263095Y-32448523D01*
X174910714Y-31648523D02*
X174948809Y-31686619D01*
X174986904Y-31800904D01*
X174986904Y-31877095D01*
X174948809Y-31991380D01*
X174872619Y-32067571D01*
X174796428Y-32105666D01*
X174644047Y-32143761D01*
X174529761Y-32143761D01*
X174377380Y-32105666D01*
X174301190Y-32067571D01*
X174225000Y-31991380D01*
X174186904Y-31877095D01*
X174186904Y-31800904D01*
X174225000Y-31686619D01*
X174263095Y-31648523D01*
X179305000Y-33248523D02*
X179266904Y-33324714D01*
X179266904Y-33439000D01*
X179305000Y-33553285D01*
X179381190Y-33629476D01*
X179457380Y-33667571D01*
X179609761Y-33705666D01*
X179724047Y-33705666D01*
X179876428Y-33667571D01*
X179952619Y-33629476D01*
X180028809Y-33553285D01*
X180066904Y-33439000D01*
X180066904Y-33362809D01*
X180028809Y-33248523D01*
X179990714Y-33210428D01*
X179724047Y-33210428D01*
X179724047Y-33362809D01*
X180066904Y-32867571D02*
X179266904Y-32867571D01*
X180066904Y-32410428D01*
X179266904Y-32410428D01*
X180066904Y-32029476D02*
X179266904Y-32029476D01*
X179266904Y-31839000D01*
X179305000Y-31724714D01*
X179381190Y-31648523D01*
X179457380Y-31610428D01*
X179609761Y-31572333D01*
X179724047Y-31572333D01*
X179876428Y-31610428D01*
X179952619Y-31648523D01*
X180028809Y-31724714D01*
X180066904Y-31839000D01*
X180066904Y-32029476D01*
X182606904Y-33191380D02*
X182225952Y-33458047D01*
X182606904Y-33648523D02*
X181806904Y-33648523D01*
X181806904Y-33343761D01*
X181845000Y-33267571D01*
X181883095Y-33229476D01*
X181959285Y-33191380D01*
X182073571Y-33191380D01*
X182149761Y-33229476D01*
X182187857Y-33267571D01*
X182225952Y-33343761D01*
X182225952Y-33648523D01*
X182378333Y-32886619D02*
X182378333Y-32505666D01*
X182606904Y-32962809D02*
X181806904Y-32696142D01*
X182606904Y-32429476D01*
X181806904Y-32239000D02*
X182606904Y-32048523D01*
X182035476Y-31896142D01*
X182606904Y-31743761D01*
X181806904Y-31553285D01*
X169487857Y-32905666D02*
X169487857Y-33172333D01*
X169906904Y-33172333D02*
X169106904Y-33172333D01*
X169106904Y-32791380D01*
X169106904Y-32105666D02*
X169106904Y-32486619D01*
X169487857Y-32524714D01*
X169449761Y-32486619D01*
X169411666Y-32410428D01*
X169411666Y-32219952D01*
X169449761Y-32143761D01*
X169487857Y-32105666D01*
X169564047Y-32067571D01*
X169754523Y-32067571D01*
X169830714Y-32105666D01*
X169868809Y-32143761D01*
X169906904Y-32219952D01*
X169906904Y-32410428D01*
X169868809Y-32486619D01*
X169830714Y-32524714D01*
X166947857Y-32905666D02*
X166947857Y-33172333D01*
X167366904Y-33172333D02*
X166566904Y-33172333D01*
X166566904Y-32791380D01*
X166566904Y-32143761D02*
X166566904Y-32296142D01*
X166605000Y-32372333D01*
X166643095Y-32410428D01*
X166757380Y-32486619D01*
X166909761Y-32524714D01*
X167214523Y-32524714D01*
X167290714Y-32486619D01*
X167328809Y-32448523D01*
X167366904Y-32372333D01*
X167366904Y-32219952D01*
X167328809Y-32143761D01*
X167290714Y-32105666D01*
X167214523Y-32067571D01*
X167024047Y-32067571D01*
X166947857Y-32105666D01*
X166909761Y-32143761D01*
X166871666Y-32219952D01*
X166871666Y-32372333D01*
X166909761Y-32448523D01*
X166947857Y-32486619D01*
X167024047Y-32524714D01*
X164407857Y-32905666D02*
X164407857Y-33172333D01*
X164826904Y-33172333D02*
X164026904Y-33172333D01*
X164026904Y-32791380D01*
X164026904Y-32562809D02*
X164026904Y-32029476D01*
X164826904Y-32372333D01*
X156787857Y-32962809D02*
X156825952Y-32848523D01*
X156864047Y-32810428D01*
X156940238Y-32772333D01*
X157054523Y-32772333D01*
X157130714Y-32810428D01*
X157168809Y-32848523D01*
X157206904Y-32924714D01*
X157206904Y-33229476D01*
X156406904Y-33229476D01*
X156406904Y-32962809D01*
X156445000Y-32886619D01*
X156483095Y-32848523D01*
X156559285Y-32810428D01*
X156635476Y-32810428D01*
X156711666Y-32848523D01*
X156749761Y-32886619D01*
X156787857Y-32962809D01*
X156787857Y-33229476D01*
X156483095Y-32467571D02*
X156445000Y-32429476D01*
X156406904Y-32353285D01*
X156406904Y-32162809D01*
X156445000Y-32086619D01*
X156483095Y-32048523D01*
X156559285Y-32010428D01*
X156635476Y-32010428D01*
X156749761Y-32048523D01*
X157206904Y-32505666D01*
X157206904Y-32010428D01*
X181806904Y-43862348D02*
X181806904Y-43405205D01*
X182606904Y-43633776D02*
X181806904Y-43633776D01*
X181806904Y-43214729D02*
X182606904Y-42681395D01*
X181806904Y-42681395D02*
X182606904Y-43214729D01*
X181806904Y-42224252D02*
X181806904Y-42148062D01*
X181845000Y-42071872D01*
X181883095Y-42033776D01*
X181959285Y-41995681D01*
X182111666Y-41957586D01*
X182302142Y-41957586D01*
X182454523Y-41995681D01*
X182530714Y-42033776D01*
X182568809Y-42071872D01*
X182606904Y-42148062D01*
X182606904Y-42224252D01*
X182568809Y-42300443D01*
X182530714Y-42338538D01*
X182454523Y-42376633D01*
X182302142Y-42414729D01*
X182111666Y-42414729D01*
X181959285Y-42376633D01*
X181883095Y-42338538D01*
X181845000Y-42300443D01*
X181806904Y-42224252D01*
X181768809Y-41043300D02*
X182797380Y-41729014D01*
X182606904Y-40776633D02*
X181806904Y-40776633D01*
X181806904Y-40586157D01*
X181845000Y-40471872D01*
X181921190Y-40395681D01*
X181997380Y-40357586D01*
X182149761Y-40319491D01*
X182264047Y-40319491D01*
X182416428Y-40357586D01*
X182492619Y-40395681D01*
X182568809Y-40471872D01*
X182606904Y-40586157D01*
X182606904Y-40776633D01*
X181806904Y-40052824D02*
X181806904Y-39557586D01*
X182111666Y-39824252D01*
X182111666Y-39709967D01*
X182149761Y-39633776D01*
X182187857Y-39595681D01*
X182264047Y-39557586D01*
X182454523Y-39557586D01*
X182530714Y-39595681D01*
X182568809Y-39633776D01*
X182606904Y-39709967D01*
X182606904Y-39938538D01*
X182568809Y-40014729D01*
X182530714Y-40052824D01*
X177508809Y-33593333D02*
X177546904Y-33479047D01*
X177546904Y-33288571D01*
X177508809Y-33212380D01*
X177470714Y-33174285D01*
X177394523Y-33136190D01*
X177318333Y-33136190D01*
X177242142Y-33174285D01*
X177204047Y-33212380D01*
X177165952Y-33288571D01*
X177127857Y-33440952D01*
X177089761Y-33517142D01*
X177051666Y-33555238D01*
X176975476Y-33593333D01*
X176899285Y-33593333D01*
X176823095Y-33555238D01*
X176785000Y-33517142D01*
X176746904Y-33440952D01*
X176746904Y-33250476D01*
X176785000Y-33136190D01*
X176746904Y-32907619D02*
X176746904Y-32450476D01*
X177546904Y-32679047D02*
X176746904Y-32679047D01*
D13*
X135512023Y-39950571D02*
X134242023Y-39950571D01*
X134242023Y-39587714D01*
X134302500Y-39370000D01*
X134423452Y-39224857D01*
X134544404Y-39152285D01*
X134786309Y-39079714D01*
X134967738Y-39079714D01*
X135209642Y-39152285D01*
X135330595Y-39224857D01*
X135451547Y-39370000D01*
X135512023Y-39587714D01*
X135512023Y-39950571D01*
X134665357Y-37773428D02*
X135512023Y-37773428D01*
X134181547Y-38136285D02*
X135088690Y-38499142D01*
X135088690Y-37555714D01*
X134242023Y-36249428D02*
X134242023Y-36975142D01*
X134846785Y-37047714D01*
X134786309Y-36975142D01*
X134725833Y-36830000D01*
X134725833Y-36467142D01*
X134786309Y-36322000D01*
X134846785Y-36249428D01*
X134967738Y-36176857D01*
X135270119Y-36176857D01*
X135391071Y-36249428D01*
X135451547Y-36322000D01*
X135512023Y-36467142D01*
X135512023Y-36830000D01*
X135451547Y-36975142D01*
X135391071Y-37047714D01*
X132337023Y-39950571D02*
X131067023Y-39950571D01*
X131067023Y-39587714D01*
X131127500Y-39370000D01*
X131248452Y-39224857D01*
X131369404Y-39152285D01*
X131611309Y-39079714D01*
X131792738Y-39079714D01*
X132034642Y-39152285D01*
X132155595Y-39224857D01*
X132276547Y-39370000D01*
X132337023Y-39587714D01*
X132337023Y-39950571D01*
X131490357Y-37773428D02*
X132337023Y-37773428D01*
X131006547Y-38136285D02*
X131913690Y-38499142D01*
X131913690Y-37555714D01*
X131490357Y-36322000D02*
X132337023Y-36322000D01*
X131006547Y-36684857D02*
X131913690Y-37047714D01*
X131913690Y-36104285D01*
X114874523Y-39950571D02*
X113604523Y-39950571D01*
X113604523Y-39587714D01*
X113665000Y-39370000D01*
X113785952Y-39224857D01*
X113906904Y-39152285D01*
X114148809Y-39079714D01*
X114330238Y-39079714D01*
X114572142Y-39152285D01*
X114693095Y-39224857D01*
X114814047Y-39370000D01*
X114874523Y-39587714D01*
X114874523Y-39950571D01*
X114027857Y-37773428D02*
X114874523Y-37773428D01*
X113544047Y-38136285D02*
X114451190Y-38499142D01*
X114451190Y-37555714D01*
X113604523Y-37120285D02*
X113604523Y-36176857D01*
X114088333Y-36684857D01*
X114088333Y-36467142D01*
X114148809Y-36322000D01*
X114209285Y-36249428D01*
X114330238Y-36176857D01*
X114632619Y-36176857D01*
X114753571Y-36249428D01*
X114814047Y-36322000D01*
X114874523Y-36467142D01*
X114874523Y-36902571D01*
X114814047Y-37047714D01*
X114753571Y-37120285D01*
X95824523Y-39950571D02*
X94554523Y-39950571D01*
X94554523Y-39587714D01*
X94615000Y-39370000D01*
X94735952Y-39224857D01*
X94856904Y-39152285D01*
X95098809Y-39079714D01*
X95280238Y-39079714D01*
X95522142Y-39152285D01*
X95643095Y-39224857D01*
X95764047Y-39370000D01*
X95824523Y-39587714D01*
X95824523Y-39950571D01*
X94977857Y-37773428D02*
X95824523Y-37773428D01*
X94494047Y-38136285D02*
X95401190Y-38499142D01*
X95401190Y-37555714D01*
X94675476Y-37047714D02*
X94615000Y-36975142D01*
X94554523Y-36830000D01*
X94554523Y-36467142D01*
X94615000Y-36322000D01*
X94675476Y-36249428D01*
X94796428Y-36176857D01*
X94917380Y-36176857D01*
X95098809Y-36249428D01*
X95824523Y-37120285D01*
X95824523Y-36176857D01*
X76774523Y-39950571D02*
X75504523Y-39950571D01*
X75504523Y-39587714D01*
X75565000Y-39370000D01*
X75685952Y-39224857D01*
X75806904Y-39152285D01*
X76048809Y-39079714D01*
X76230238Y-39079714D01*
X76472142Y-39152285D01*
X76593095Y-39224857D01*
X76714047Y-39370000D01*
X76774523Y-39587714D01*
X76774523Y-39950571D01*
X75927857Y-37773428D02*
X76774523Y-37773428D01*
X75444047Y-38136285D02*
X76351190Y-38499142D01*
X76351190Y-37555714D01*
X76774523Y-36176857D02*
X76774523Y-37047714D01*
X76774523Y-36612285D02*
X75504523Y-36612285D01*
X75685952Y-36757428D01*
X75806904Y-36902571D01*
X75867380Y-37047714D01*
X221237023Y-116150571D02*
X219967023Y-116150571D01*
X219967023Y-115787714D01*
X220027500Y-115570000D01*
X220148452Y-115424857D01*
X220269404Y-115352285D01*
X220511309Y-115279714D01*
X220692738Y-115279714D01*
X220934642Y-115352285D01*
X221055595Y-115424857D01*
X221176547Y-115570000D01*
X221237023Y-115787714D01*
X221237023Y-116150571D01*
X220390357Y-113973428D02*
X221237023Y-113973428D01*
X219906547Y-114336285D02*
X220813690Y-114699142D01*
X220813690Y-113755714D01*
X219967023Y-112884857D02*
X219967023Y-112739714D01*
X220027500Y-112594571D01*
X220087976Y-112522000D01*
X220208928Y-112449428D01*
X220450833Y-112376857D01*
X220753214Y-112376857D01*
X220995119Y-112449428D01*
X221116071Y-112522000D01*
X221176547Y-112594571D01*
X221237023Y-112739714D01*
X221237023Y-112884857D01*
X221176547Y-113030000D01*
X221116071Y-113102571D01*
X220995119Y-113175142D01*
X220753214Y-113247714D01*
X220450833Y-113247714D01*
X220208928Y-113175142D01*
X220087976Y-113102571D01*
X220027500Y-113030000D01*
X219967023Y-112884857D01*
X218062023Y-116150571D02*
X216792023Y-116150571D01*
X216792023Y-115787714D01*
X216852500Y-115570000D01*
X216973452Y-115424857D01*
X217094404Y-115352285D01*
X217336309Y-115279714D01*
X217517738Y-115279714D01*
X217759642Y-115352285D01*
X217880595Y-115424857D01*
X218001547Y-115570000D01*
X218062023Y-115787714D01*
X218062023Y-116150571D01*
X216792023Y-114771714D02*
X216792023Y-113828285D01*
X217275833Y-114336285D01*
X217275833Y-114118571D01*
X217336309Y-113973428D01*
X217396785Y-113900857D01*
X217517738Y-113828285D01*
X217820119Y-113828285D01*
X217941071Y-113900857D01*
X218001547Y-113973428D01*
X218062023Y-114118571D01*
X218062023Y-114554000D01*
X218001547Y-114699142D01*
X217941071Y-114771714D01*
X218062023Y-113102571D02*
X218062023Y-112812285D01*
X218001547Y-112667142D01*
X217941071Y-112594571D01*
X217759642Y-112449428D01*
X217517738Y-112376857D01*
X217033928Y-112376857D01*
X216912976Y-112449428D01*
X216852500Y-112522000D01*
X216792023Y-112667142D01*
X216792023Y-112957428D01*
X216852500Y-113102571D01*
X216912976Y-113175142D01*
X217033928Y-113247714D01*
X217336309Y-113247714D01*
X217457261Y-113175142D01*
X217517738Y-113102571D01*
X217578214Y-112957428D01*
X217578214Y-112667142D01*
X217517738Y-112522000D01*
X217457261Y-112449428D01*
X217336309Y-112376857D01*
X200599523Y-116150571D02*
X199329523Y-116150571D01*
X199329523Y-115787714D01*
X199390000Y-115570000D01*
X199510952Y-115424857D01*
X199631904Y-115352285D01*
X199873809Y-115279714D01*
X200055238Y-115279714D01*
X200297142Y-115352285D01*
X200418095Y-115424857D01*
X200539047Y-115570000D01*
X200599523Y-115787714D01*
X200599523Y-116150571D01*
X199329523Y-114771714D02*
X199329523Y-113828285D01*
X199813333Y-114336285D01*
X199813333Y-114118571D01*
X199873809Y-113973428D01*
X199934285Y-113900857D01*
X200055238Y-113828285D01*
X200357619Y-113828285D01*
X200478571Y-113900857D01*
X200539047Y-113973428D01*
X200599523Y-114118571D01*
X200599523Y-114554000D01*
X200539047Y-114699142D01*
X200478571Y-114771714D01*
X199873809Y-112957428D02*
X199813333Y-113102571D01*
X199752857Y-113175142D01*
X199631904Y-113247714D01*
X199571428Y-113247714D01*
X199450476Y-113175142D01*
X199390000Y-113102571D01*
X199329523Y-112957428D01*
X199329523Y-112667142D01*
X199390000Y-112522000D01*
X199450476Y-112449428D01*
X199571428Y-112376857D01*
X199631904Y-112376857D01*
X199752857Y-112449428D01*
X199813333Y-112522000D01*
X199873809Y-112667142D01*
X199873809Y-112957428D01*
X199934285Y-113102571D01*
X199994761Y-113175142D01*
X200115714Y-113247714D01*
X200357619Y-113247714D01*
X200478571Y-113175142D01*
X200539047Y-113102571D01*
X200599523Y-112957428D01*
X200599523Y-112667142D01*
X200539047Y-112522000D01*
X200478571Y-112449428D01*
X200357619Y-112376857D01*
X200115714Y-112376857D01*
X199994761Y-112449428D01*
X199934285Y-112522000D01*
X199873809Y-112667142D01*
X183137023Y-116150571D02*
X181867023Y-116150571D01*
X181867023Y-115787714D01*
X181927500Y-115570000D01*
X182048452Y-115424857D01*
X182169404Y-115352285D01*
X182411309Y-115279714D01*
X182592738Y-115279714D01*
X182834642Y-115352285D01*
X182955595Y-115424857D01*
X183076547Y-115570000D01*
X183137023Y-115787714D01*
X183137023Y-116150571D01*
X181867023Y-114771714D02*
X181867023Y-113828285D01*
X182350833Y-114336285D01*
X182350833Y-114118571D01*
X182411309Y-113973428D01*
X182471785Y-113900857D01*
X182592738Y-113828285D01*
X182895119Y-113828285D01*
X183016071Y-113900857D01*
X183076547Y-113973428D01*
X183137023Y-114118571D01*
X183137023Y-114554000D01*
X183076547Y-114699142D01*
X183016071Y-114771714D01*
X181867023Y-113320285D02*
X181867023Y-112304285D01*
X183137023Y-112957428D01*
X179962023Y-116150571D02*
X178692023Y-116150571D01*
X178692023Y-115787714D01*
X178752500Y-115570000D01*
X178873452Y-115424857D01*
X178994404Y-115352285D01*
X179236309Y-115279714D01*
X179417738Y-115279714D01*
X179659642Y-115352285D01*
X179780595Y-115424857D01*
X179901547Y-115570000D01*
X179962023Y-115787714D01*
X179962023Y-116150571D01*
X178692023Y-114771714D02*
X178692023Y-113828285D01*
X179175833Y-114336285D01*
X179175833Y-114118571D01*
X179236309Y-113973428D01*
X179296785Y-113900857D01*
X179417738Y-113828285D01*
X179720119Y-113828285D01*
X179841071Y-113900857D01*
X179901547Y-113973428D01*
X179962023Y-114118571D01*
X179962023Y-114554000D01*
X179901547Y-114699142D01*
X179841071Y-114771714D01*
X178692023Y-112522000D02*
X178692023Y-112812285D01*
X178752500Y-112957428D01*
X178812976Y-113030000D01*
X178994404Y-113175142D01*
X179236309Y-113247714D01*
X179720119Y-113247714D01*
X179841071Y-113175142D01*
X179901547Y-113102571D01*
X179962023Y-112957428D01*
X179962023Y-112667142D01*
X179901547Y-112522000D01*
X179841071Y-112449428D01*
X179720119Y-112376857D01*
X179417738Y-112376857D01*
X179296785Y-112449428D01*
X179236309Y-112522000D01*
X179175833Y-112667142D01*
X179175833Y-112957428D01*
X179236309Y-113102571D01*
X179296785Y-113175142D01*
X179417738Y-113247714D01*
X106937023Y-116150571D02*
X105667023Y-116150571D01*
X105667023Y-115787714D01*
X105727500Y-115570000D01*
X105848452Y-115424857D01*
X105969404Y-115352285D01*
X106211309Y-115279714D01*
X106392738Y-115279714D01*
X106634642Y-115352285D01*
X106755595Y-115424857D01*
X106876547Y-115570000D01*
X106937023Y-115787714D01*
X106937023Y-116150571D01*
X105667023Y-114771714D02*
X105667023Y-113828285D01*
X106150833Y-114336285D01*
X106150833Y-114118571D01*
X106211309Y-113973428D01*
X106271785Y-113900857D01*
X106392738Y-113828285D01*
X106695119Y-113828285D01*
X106816071Y-113900857D01*
X106876547Y-113973428D01*
X106937023Y-114118571D01*
X106937023Y-114554000D01*
X106876547Y-114699142D01*
X106816071Y-114771714D01*
X105667023Y-112449428D02*
X105667023Y-113175142D01*
X106271785Y-113247714D01*
X106211309Y-113175142D01*
X106150833Y-113030000D01*
X106150833Y-112667142D01*
X106211309Y-112522000D01*
X106271785Y-112449428D01*
X106392738Y-112376857D01*
X106695119Y-112376857D01*
X106816071Y-112449428D01*
X106876547Y-112522000D01*
X106937023Y-112667142D01*
X106937023Y-113030000D01*
X106876547Y-113175142D01*
X106816071Y-113247714D01*
X103762023Y-116150571D02*
X102492023Y-116150571D01*
X102492023Y-115787714D01*
X102552500Y-115570000D01*
X102673452Y-115424857D01*
X102794404Y-115352285D01*
X103036309Y-115279714D01*
X103217738Y-115279714D01*
X103459642Y-115352285D01*
X103580595Y-115424857D01*
X103701547Y-115570000D01*
X103762023Y-115787714D01*
X103762023Y-116150571D01*
X102492023Y-114771714D02*
X102492023Y-113828285D01*
X102975833Y-114336285D01*
X102975833Y-114118571D01*
X103036309Y-113973428D01*
X103096785Y-113900857D01*
X103217738Y-113828285D01*
X103520119Y-113828285D01*
X103641071Y-113900857D01*
X103701547Y-113973428D01*
X103762023Y-114118571D01*
X103762023Y-114554000D01*
X103701547Y-114699142D01*
X103641071Y-114771714D01*
X102915357Y-112522000D02*
X103762023Y-112522000D01*
X102431547Y-112884857D02*
X103338690Y-113247714D01*
X103338690Y-112304285D01*
X86299523Y-116150571D02*
X85029523Y-116150571D01*
X85029523Y-115787714D01*
X85090000Y-115570000D01*
X85210952Y-115424857D01*
X85331904Y-115352285D01*
X85573809Y-115279714D01*
X85755238Y-115279714D01*
X85997142Y-115352285D01*
X86118095Y-115424857D01*
X86239047Y-115570000D01*
X86299523Y-115787714D01*
X86299523Y-116150571D01*
X85029523Y-114771714D02*
X85029523Y-113828285D01*
X85513333Y-114336285D01*
X85513333Y-114118571D01*
X85573809Y-113973428D01*
X85634285Y-113900857D01*
X85755238Y-113828285D01*
X86057619Y-113828285D01*
X86178571Y-113900857D01*
X86239047Y-113973428D01*
X86299523Y-114118571D01*
X86299523Y-114554000D01*
X86239047Y-114699142D01*
X86178571Y-114771714D01*
X85029523Y-113320285D02*
X85029523Y-112376857D01*
X85513333Y-112884857D01*
X85513333Y-112667142D01*
X85573809Y-112522000D01*
X85634285Y-112449428D01*
X85755238Y-112376857D01*
X86057619Y-112376857D01*
X86178571Y-112449428D01*
X86239047Y-112522000D01*
X86299523Y-112667142D01*
X86299523Y-113102571D01*
X86239047Y-113247714D01*
X86178571Y-113320285D01*
X68837023Y-116150571D02*
X67567023Y-116150571D01*
X67567023Y-115787714D01*
X67627500Y-115570000D01*
X67748452Y-115424857D01*
X67869404Y-115352285D01*
X68111309Y-115279714D01*
X68292738Y-115279714D01*
X68534642Y-115352285D01*
X68655595Y-115424857D01*
X68776547Y-115570000D01*
X68837023Y-115787714D01*
X68837023Y-116150571D01*
X67567023Y-114771714D02*
X67567023Y-113828285D01*
X68050833Y-114336285D01*
X68050833Y-114118571D01*
X68111309Y-113973428D01*
X68171785Y-113900857D01*
X68292738Y-113828285D01*
X68595119Y-113828285D01*
X68716071Y-113900857D01*
X68776547Y-113973428D01*
X68837023Y-114118571D01*
X68837023Y-114554000D01*
X68776547Y-114699142D01*
X68716071Y-114771714D01*
X67687976Y-113247714D02*
X67627500Y-113175142D01*
X67567023Y-113030000D01*
X67567023Y-112667142D01*
X67627500Y-112522000D01*
X67687976Y-112449428D01*
X67808928Y-112376857D01*
X67929880Y-112376857D01*
X68111309Y-112449428D01*
X68837023Y-113320285D01*
X68837023Y-112376857D01*
X65662023Y-116150571D02*
X64392023Y-116150571D01*
X64392023Y-115787714D01*
X64452500Y-115570000D01*
X64573452Y-115424857D01*
X64694404Y-115352285D01*
X64936309Y-115279714D01*
X65117738Y-115279714D01*
X65359642Y-115352285D01*
X65480595Y-115424857D01*
X65601547Y-115570000D01*
X65662023Y-115787714D01*
X65662023Y-116150571D01*
X64392023Y-114771714D02*
X64392023Y-113828285D01*
X64875833Y-114336285D01*
X64875833Y-114118571D01*
X64936309Y-113973428D01*
X64996785Y-113900857D01*
X65117738Y-113828285D01*
X65420119Y-113828285D01*
X65541071Y-113900857D01*
X65601547Y-113973428D01*
X65662023Y-114118571D01*
X65662023Y-114554000D01*
X65601547Y-114699142D01*
X65541071Y-114771714D01*
X65662023Y-112376857D02*
X65662023Y-113247714D01*
X65662023Y-112812285D02*
X64392023Y-112812285D01*
X64573452Y-112957428D01*
X64694404Y-113102571D01*
X64754880Y-113247714D01*
X221237023Y-97100571D02*
X219967023Y-97100571D01*
X219967023Y-96737714D01*
X220027500Y-96520000D01*
X220148452Y-96374857D01*
X220269404Y-96302285D01*
X220511309Y-96229714D01*
X220692738Y-96229714D01*
X220934642Y-96302285D01*
X221055595Y-96374857D01*
X221176547Y-96520000D01*
X221237023Y-96737714D01*
X221237023Y-97100571D01*
X219967023Y-95721714D02*
X219967023Y-94778285D01*
X220450833Y-95286285D01*
X220450833Y-95068571D01*
X220511309Y-94923428D01*
X220571785Y-94850857D01*
X220692738Y-94778285D01*
X220995119Y-94778285D01*
X221116071Y-94850857D01*
X221176547Y-94923428D01*
X221237023Y-95068571D01*
X221237023Y-95504000D01*
X221176547Y-95649142D01*
X221116071Y-95721714D01*
X219967023Y-93834857D02*
X219967023Y-93689714D01*
X220027500Y-93544571D01*
X220087976Y-93472000D01*
X220208928Y-93399428D01*
X220450833Y-93326857D01*
X220753214Y-93326857D01*
X220995119Y-93399428D01*
X221116071Y-93472000D01*
X221176547Y-93544571D01*
X221237023Y-93689714D01*
X221237023Y-93834857D01*
X221176547Y-93980000D01*
X221116071Y-94052571D01*
X220995119Y-94125142D01*
X220753214Y-94197714D01*
X220450833Y-94197714D01*
X220208928Y-94125142D01*
X220087976Y-94052571D01*
X220027500Y-93980000D01*
X219967023Y-93834857D01*
X218062023Y-97100571D02*
X216792023Y-97100571D01*
X216792023Y-96737714D01*
X216852500Y-96520000D01*
X216973452Y-96374857D01*
X217094404Y-96302285D01*
X217336309Y-96229714D01*
X217517738Y-96229714D01*
X217759642Y-96302285D01*
X217880595Y-96374857D01*
X218001547Y-96520000D01*
X218062023Y-96737714D01*
X218062023Y-97100571D01*
X216912976Y-95649142D02*
X216852500Y-95576571D01*
X216792023Y-95431428D01*
X216792023Y-95068571D01*
X216852500Y-94923428D01*
X216912976Y-94850857D01*
X217033928Y-94778285D01*
X217154880Y-94778285D01*
X217336309Y-94850857D01*
X218062023Y-95721714D01*
X218062023Y-94778285D01*
X218062023Y-94052571D02*
X218062023Y-93762285D01*
X218001547Y-93617142D01*
X217941071Y-93544571D01*
X217759642Y-93399428D01*
X217517738Y-93326857D01*
X217033928Y-93326857D01*
X216912976Y-93399428D01*
X216852500Y-93472000D01*
X216792023Y-93617142D01*
X216792023Y-93907428D01*
X216852500Y-94052571D01*
X216912976Y-94125142D01*
X217033928Y-94197714D01*
X217336309Y-94197714D01*
X217457261Y-94125142D01*
X217517738Y-94052571D01*
X217578214Y-93907428D01*
X217578214Y-93617142D01*
X217517738Y-93472000D01*
X217457261Y-93399428D01*
X217336309Y-93326857D01*
X200599523Y-97100571D02*
X199329523Y-97100571D01*
X199329523Y-96737714D01*
X199390000Y-96520000D01*
X199510952Y-96374857D01*
X199631904Y-96302285D01*
X199873809Y-96229714D01*
X200055238Y-96229714D01*
X200297142Y-96302285D01*
X200418095Y-96374857D01*
X200539047Y-96520000D01*
X200599523Y-96737714D01*
X200599523Y-97100571D01*
X199450476Y-95649142D02*
X199390000Y-95576571D01*
X199329523Y-95431428D01*
X199329523Y-95068571D01*
X199390000Y-94923428D01*
X199450476Y-94850857D01*
X199571428Y-94778285D01*
X199692380Y-94778285D01*
X199873809Y-94850857D01*
X200599523Y-95721714D01*
X200599523Y-94778285D01*
X199873809Y-93907428D02*
X199813333Y-94052571D01*
X199752857Y-94125142D01*
X199631904Y-94197714D01*
X199571428Y-94197714D01*
X199450476Y-94125142D01*
X199390000Y-94052571D01*
X199329523Y-93907428D01*
X199329523Y-93617142D01*
X199390000Y-93472000D01*
X199450476Y-93399428D01*
X199571428Y-93326857D01*
X199631904Y-93326857D01*
X199752857Y-93399428D01*
X199813333Y-93472000D01*
X199873809Y-93617142D01*
X199873809Y-93907428D01*
X199934285Y-94052571D01*
X199994761Y-94125142D01*
X200115714Y-94197714D01*
X200357619Y-94197714D01*
X200478571Y-94125142D01*
X200539047Y-94052571D01*
X200599523Y-93907428D01*
X200599523Y-93617142D01*
X200539047Y-93472000D01*
X200478571Y-93399428D01*
X200357619Y-93326857D01*
X200115714Y-93326857D01*
X199994761Y-93399428D01*
X199934285Y-93472000D01*
X199873809Y-93617142D01*
X181549523Y-97100571D02*
X180279523Y-97100571D01*
X180279523Y-96737714D01*
X180340000Y-96520000D01*
X180460952Y-96374857D01*
X180581904Y-96302285D01*
X180823809Y-96229714D01*
X181005238Y-96229714D01*
X181247142Y-96302285D01*
X181368095Y-96374857D01*
X181489047Y-96520000D01*
X181549523Y-96737714D01*
X181549523Y-97100571D01*
X180400476Y-95649142D02*
X180340000Y-95576571D01*
X180279523Y-95431428D01*
X180279523Y-95068571D01*
X180340000Y-94923428D01*
X180400476Y-94850857D01*
X180521428Y-94778285D01*
X180642380Y-94778285D01*
X180823809Y-94850857D01*
X181549523Y-95721714D01*
X181549523Y-94778285D01*
X180279523Y-94270285D02*
X180279523Y-93254285D01*
X181549523Y-93907428D01*
X162499523Y-97100571D02*
X161229523Y-97100571D01*
X161229523Y-96737714D01*
X161290000Y-96520000D01*
X161410952Y-96374857D01*
X161531904Y-96302285D01*
X161773809Y-96229714D01*
X161955238Y-96229714D01*
X162197142Y-96302285D01*
X162318095Y-96374857D01*
X162439047Y-96520000D01*
X162499523Y-96737714D01*
X162499523Y-97100571D01*
X161350476Y-95649142D02*
X161290000Y-95576571D01*
X161229523Y-95431428D01*
X161229523Y-95068571D01*
X161290000Y-94923428D01*
X161350476Y-94850857D01*
X161471428Y-94778285D01*
X161592380Y-94778285D01*
X161773809Y-94850857D01*
X162499523Y-95721714D01*
X162499523Y-94778285D01*
X161229523Y-93472000D02*
X161229523Y-93762285D01*
X161290000Y-93907428D01*
X161350476Y-93980000D01*
X161531904Y-94125142D01*
X161773809Y-94197714D01*
X162257619Y-94197714D01*
X162378571Y-94125142D01*
X162439047Y-94052571D01*
X162499523Y-93907428D01*
X162499523Y-93617142D01*
X162439047Y-93472000D01*
X162378571Y-93399428D01*
X162257619Y-93326857D01*
X161955238Y-93326857D01*
X161834285Y-93399428D01*
X161773809Y-93472000D01*
X161713333Y-93617142D01*
X161713333Y-93907428D01*
X161773809Y-94052571D01*
X161834285Y-94125142D01*
X161955238Y-94197714D01*
X143449523Y-97100571D02*
X142179523Y-97100571D01*
X142179523Y-96737714D01*
X142240000Y-96520000D01*
X142360952Y-96374857D01*
X142481904Y-96302285D01*
X142723809Y-96229714D01*
X142905238Y-96229714D01*
X143147142Y-96302285D01*
X143268095Y-96374857D01*
X143389047Y-96520000D01*
X143449523Y-96737714D01*
X143449523Y-97100571D01*
X142300476Y-95649142D02*
X142240000Y-95576571D01*
X142179523Y-95431428D01*
X142179523Y-95068571D01*
X142240000Y-94923428D01*
X142300476Y-94850857D01*
X142421428Y-94778285D01*
X142542380Y-94778285D01*
X142723809Y-94850857D01*
X143449523Y-95721714D01*
X143449523Y-94778285D01*
X142179523Y-93399428D02*
X142179523Y-94125142D01*
X142784285Y-94197714D01*
X142723809Y-94125142D01*
X142663333Y-93980000D01*
X142663333Y-93617142D01*
X142723809Y-93472000D01*
X142784285Y-93399428D01*
X142905238Y-93326857D01*
X143207619Y-93326857D01*
X143328571Y-93399428D01*
X143389047Y-93472000D01*
X143449523Y-93617142D01*
X143449523Y-93980000D01*
X143389047Y-94125142D01*
X143328571Y-94197714D01*
X124399523Y-97100571D02*
X123129523Y-97100571D01*
X123129523Y-96737714D01*
X123190000Y-96520000D01*
X123310952Y-96374857D01*
X123431904Y-96302285D01*
X123673809Y-96229714D01*
X123855238Y-96229714D01*
X124097142Y-96302285D01*
X124218095Y-96374857D01*
X124339047Y-96520000D01*
X124399523Y-96737714D01*
X124399523Y-97100571D01*
X123250476Y-95649142D02*
X123190000Y-95576571D01*
X123129523Y-95431428D01*
X123129523Y-95068571D01*
X123190000Y-94923428D01*
X123250476Y-94850857D01*
X123371428Y-94778285D01*
X123492380Y-94778285D01*
X123673809Y-94850857D01*
X124399523Y-95721714D01*
X124399523Y-94778285D01*
X123552857Y-93472000D02*
X124399523Y-93472000D01*
X123069047Y-93834857D02*
X123976190Y-94197714D01*
X123976190Y-93254285D01*
X105349523Y-97100571D02*
X104079523Y-97100571D01*
X104079523Y-96737714D01*
X104140000Y-96520000D01*
X104260952Y-96374857D01*
X104381904Y-96302285D01*
X104623809Y-96229714D01*
X104805238Y-96229714D01*
X105047142Y-96302285D01*
X105168095Y-96374857D01*
X105289047Y-96520000D01*
X105349523Y-96737714D01*
X105349523Y-97100571D01*
X104200476Y-95649142D02*
X104140000Y-95576571D01*
X104079523Y-95431428D01*
X104079523Y-95068571D01*
X104140000Y-94923428D01*
X104200476Y-94850857D01*
X104321428Y-94778285D01*
X104442380Y-94778285D01*
X104623809Y-94850857D01*
X105349523Y-95721714D01*
X105349523Y-94778285D01*
X104079523Y-94270285D02*
X104079523Y-93326857D01*
X104563333Y-93834857D01*
X104563333Y-93617142D01*
X104623809Y-93472000D01*
X104684285Y-93399428D01*
X104805238Y-93326857D01*
X105107619Y-93326857D01*
X105228571Y-93399428D01*
X105289047Y-93472000D01*
X105349523Y-93617142D01*
X105349523Y-94052571D01*
X105289047Y-94197714D01*
X105228571Y-94270285D01*
X86299523Y-97100571D02*
X85029523Y-97100571D01*
X85029523Y-96737714D01*
X85090000Y-96520000D01*
X85210952Y-96374857D01*
X85331904Y-96302285D01*
X85573809Y-96229714D01*
X85755238Y-96229714D01*
X85997142Y-96302285D01*
X86118095Y-96374857D01*
X86239047Y-96520000D01*
X86299523Y-96737714D01*
X86299523Y-97100571D01*
X85150476Y-95649142D02*
X85090000Y-95576571D01*
X85029523Y-95431428D01*
X85029523Y-95068571D01*
X85090000Y-94923428D01*
X85150476Y-94850857D01*
X85271428Y-94778285D01*
X85392380Y-94778285D01*
X85573809Y-94850857D01*
X86299523Y-95721714D01*
X86299523Y-94778285D01*
X85150476Y-94197714D02*
X85090000Y-94125142D01*
X85029523Y-93980000D01*
X85029523Y-93617142D01*
X85090000Y-93472000D01*
X85150476Y-93399428D01*
X85271428Y-93326857D01*
X85392380Y-93326857D01*
X85573809Y-93399428D01*
X86299523Y-94270285D01*
X86299523Y-93326857D01*
X67249523Y-97100571D02*
X65979523Y-97100571D01*
X65979523Y-96737714D01*
X66040000Y-96520000D01*
X66160952Y-96374857D01*
X66281904Y-96302285D01*
X66523809Y-96229714D01*
X66705238Y-96229714D01*
X66947142Y-96302285D01*
X67068095Y-96374857D01*
X67189047Y-96520000D01*
X67249523Y-96737714D01*
X67249523Y-97100571D01*
X66100476Y-95649142D02*
X66040000Y-95576571D01*
X65979523Y-95431428D01*
X65979523Y-95068571D01*
X66040000Y-94923428D01*
X66100476Y-94850857D01*
X66221428Y-94778285D01*
X66342380Y-94778285D01*
X66523809Y-94850857D01*
X67249523Y-95721714D01*
X67249523Y-94778285D01*
X67249523Y-93326857D02*
X67249523Y-94197714D01*
X67249523Y-93762285D02*
X65979523Y-93762285D01*
X66160952Y-93907428D01*
X66281904Y-94052571D01*
X66342380Y-94197714D01*
X221237023Y-78050571D02*
X219967023Y-78050571D01*
X219967023Y-77687714D01*
X220027500Y-77470000D01*
X220148452Y-77324857D01*
X220269404Y-77252285D01*
X220511309Y-77179714D01*
X220692738Y-77179714D01*
X220934642Y-77252285D01*
X221055595Y-77324857D01*
X221176547Y-77470000D01*
X221237023Y-77687714D01*
X221237023Y-78050571D01*
X220087976Y-76599142D02*
X220027500Y-76526571D01*
X219967023Y-76381428D01*
X219967023Y-76018571D01*
X220027500Y-75873428D01*
X220087976Y-75800857D01*
X220208928Y-75728285D01*
X220329880Y-75728285D01*
X220511309Y-75800857D01*
X221237023Y-76671714D01*
X221237023Y-75728285D01*
X219967023Y-74784857D02*
X219967023Y-74639714D01*
X220027500Y-74494571D01*
X220087976Y-74422000D01*
X220208928Y-74349428D01*
X220450833Y-74276857D01*
X220753214Y-74276857D01*
X220995119Y-74349428D01*
X221116071Y-74422000D01*
X221176547Y-74494571D01*
X221237023Y-74639714D01*
X221237023Y-74784857D01*
X221176547Y-74930000D01*
X221116071Y-75002571D01*
X220995119Y-75075142D01*
X220753214Y-75147714D01*
X220450833Y-75147714D01*
X220208928Y-75075142D01*
X220087976Y-75002571D01*
X220027500Y-74930000D01*
X219967023Y-74784857D01*
X218062023Y-78050571D02*
X216792023Y-78050571D01*
X216792023Y-77687714D01*
X216852500Y-77470000D01*
X216973452Y-77324857D01*
X217094404Y-77252285D01*
X217336309Y-77179714D01*
X217517738Y-77179714D01*
X217759642Y-77252285D01*
X217880595Y-77324857D01*
X218001547Y-77470000D01*
X218062023Y-77687714D01*
X218062023Y-78050571D01*
X218062023Y-75728285D02*
X218062023Y-76599142D01*
X218062023Y-76163714D02*
X216792023Y-76163714D01*
X216973452Y-76308857D01*
X217094404Y-76454000D01*
X217154880Y-76599142D01*
X218062023Y-75002571D02*
X218062023Y-74712285D01*
X218001547Y-74567142D01*
X217941071Y-74494571D01*
X217759642Y-74349428D01*
X217517738Y-74276857D01*
X217033928Y-74276857D01*
X216912976Y-74349428D01*
X216852500Y-74422000D01*
X216792023Y-74567142D01*
X216792023Y-74857428D01*
X216852500Y-75002571D01*
X216912976Y-75075142D01*
X217033928Y-75147714D01*
X217336309Y-75147714D01*
X217457261Y-75075142D01*
X217517738Y-75002571D01*
X217578214Y-74857428D01*
X217578214Y-74567142D01*
X217517738Y-74422000D01*
X217457261Y-74349428D01*
X217336309Y-74276857D01*
X200599523Y-78050571D02*
X199329523Y-78050571D01*
X199329523Y-77687714D01*
X199390000Y-77470000D01*
X199510952Y-77324857D01*
X199631904Y-77252285D01*
X199873809Y-77179714D01*
X200055238Y-77179714D01*
X200297142Y-77252285D01*
X200418095Y-77324857D01*
X200539047Y-77470000D01*
X200599523Y-77687714D01*
X200599523Y-78050571D01*
X200599523Y-75728285D02*
X200599523Y-76599142D01*
X200599523Y-76163714D02*
X199329523Y-76163714D01*
X199510952Y-76308857D01*
X199631904Y-76454000D01*
X199692380Y-76599142D01*
X199873809Y-74857428D02*
X199813333Y-75002571D01*
X199752857Y-75075142D01*
X199631904Y-75147714D01*
X199571428Y-75147714D01*
X199450476Y-75075142D01*
X199390000Y-75002571D01*
X199329523Y-74857428D01*
X199329523Y-74567142D01*
X199390000Y-74422000D01*
X199450476Y-74349428D01*
X199571428Y-74276857D01*
X199631904Y-74276857D01*
X199752857Y-74349428D01*
X199813333Y-74422000D01*
X199873809Y-74567142D01*
X199873809Y-74857428D01*
X199934285Y-75002571D01*
X199994761Y-75075142D01*
X200115714Y-75147714D01*
X200357619Y-75147714D01*
X200478571Y-75075142D01*
X200539047Y-75002571D01*
X200599523Y-74857428D01*
X200599523Y-74567142D01*
X200539047Y-74422000D01*
X200478571Y-74349428D01*
X200357619Y-74276857D01*
X200115714Y-74276857D01*
X199994761Y-74349428D01*
X199934285Y-74422000D01*
X199873809Y-74567142D01*
X181549523Y-78050571D02*
X180279523Y-78050571D01*
X180279523Y-77687714D01*
X180340000Y-77470000D01*
X180460952Y-77324857D01*
X180581904Y-77252285D01*
X180823809Y-77179714D01*
X181005238Y-77179714D01*
X181247142Y-77252285D01*
X181368095Y-77324857D01*
X181489047Y-77470000D01*
X181549523Y-77687714D01*
X181549523Y-78050571D01*
X181549523Y-75728285D02*
X181549523Y-76599142D01*
X181549523Y-76163714D02*
X180279523Y-76163714D01*
X180460952Y-76308857D01*
X180581904Y-76454000D01*
X180642380Y-76599142D01*
X180279523Y-75220285D02*
X180279523Y-74204285D01*
X181549523Y-74857428D01*
X162499523Y-78050571D02*
X161229523Y-78050571D01*
X161229523Y-77687714D01*
X161290000Y-77470000D01*
X161410952Y-77324857D01*
X161531904Y-77252285D01*
X161773809Y-77179714D01*
X161955238Y-77179714D01*
X162197142Y-77252285D01*
X162318095Y-77324857D01*
X162439047Y-77470000D01*
X162499523Y-77687714D01*
X162499523Y-78050571D01*
X162499523Y-75728285D02*
X162499523Y-76599142D01*
X162499523Y-76163714D02*
X161229523Y-76163714D01*
X161410952Y-76308857D01*
X161531904Y-76454000D01*
X161592380Y-76599142D01*
X161229523Y-74422000D02*
X161229523Y-74712285D01*
X161290000Y-74857428D01*
X161350476Y-74930000D01*
X161531904Y-75075142D01*
X161773809Y-75147714D01*
X162257619Y-75147714D01*
X162378571Y-75075142D01*
X162439047Y-75002571D01*
X162499523Y-74857428D01*
X162499523Y-74567142D01*
X162439047Y-74422000D01*
X162378571Y-74349428D01*
X162257619Y-74276857D01*
X161955238Y-74276857D01*
X161834285Y-74349428D01*
X161773809Y-74422000D01*
X161713333Y-74567142D01*
X161713333Y-74857428D01*
X161773809Y-75002571D01*
X161834285Y-75075142D01*
X161955238Y-75147714D01*
X143449523Y-78050571D02*
X142179523Y-78050571D01*
X142179523Y-77687714D01*
X142240000Y-77470000D01*
X142360952Y-77324857D01*
X142481904Y-77252285D01*
X142723809Y-77179714D01*
X142905238Y-77179714D01*
X143147142Y-77252285D01*
X143268095Y-77324857D01*
X143389047Y-77470000D01*
X143449523Y-77687714D01*
X143449523Y-78050571D01*
X143449523Y-75728285D02*
X143449523Y-76599142D01*
X143449523Y-76163714D02*
X142179523Y-76163714D01*
X142360952Y-76308857D01*
X142481904Y-76454000D01*
X142542380Y-76599142D01*
X142179523Y-74349428D02*
X142179523Y-75075142D01*
X142784285Y-75147714D01*
X142723809Y-75075142D01*
X142663333Y-74930000D01*
X142663333Y-74567142D01*
X142723809Y-74422000D01*
X142784285Y-74349428D01*
X142905238Y-74276857D01*
X143207619Y-74276857D01*
X143328571Y-74349428D01*
X143389047Y-74422000D01*
X143449523Y-74567142D01*
X143449523Y-74930000D01*
X143389047Y-75075142D01*
X143328571Y-75147714D01*
X124399523Y-78050571D02*
X123129523Y-78050571D01*
X123129523Y-77687714D01*
X123190000Y-77470000D01*
X123310952Y-77324857D01*
X123431904Y-77252285D01*
X123673809Y-77179714D01*
X123855238Y-77179714D01*
X124097142Y-77252285D01*
X124218095Y-77324857D01*
X124339047Y-77470000D01*
X124399523Y-77687714D01*
X124399523Y-78050571D01*
X124399523Y-75728285D02*
X124399523Y-76599142D01*
X124399523Y-76163714D02*
X123129523Y-76163714D01*
X123310952Y-76308857D01*
X123431904Y-76454000D01*
X123492380Y-76599142D01*
X123552857Y-74422000D02*
X124399523Y-74422000D01*
X123069047Y-74784857D02*
X123976190Y-75147714D01*
X123976190Y-74204285D01*
X105349523Y-78050571D02*
X104079523Y-78050571D01*
X104079523Y-77687714D01*
X104140000Y-77470000D01*
X104260952Y-77324857D01*
X104381904Y-77252285D01*
X104623809Y-77179714D01*
X104805238Y-77179714D01*
X105047142Y-77252285D01*
X105168095Y-77324857D01*
X105289047Y-77470000D01*
X105349523Y-77687714D01*
X105349523Y-78050571D01*
X105349523Y-75728285D02*
X105349523Y-76599142D01*
X105349523Y-76163714D02*
X104079523Y-76163714D01*
X104260952Y-76308857D01*
X104381904Y-76454000D01*
X104442380Y-76599142D01*
X104079523Y-75220285D02*
X104079523Y-74276857D01*
X104563333Y-74784857D01*
X104563333Y-74567142D01*
X104623809Y-74422000D01*
X104684285Y-74349428D01*
X104805238Y-74276857D01*
X105107619Y-74276857D01*
X105228571Y-74349428D01*
X105289047Y-74422000D01*
X105349523Y-74567142D01*
X105349523Y-75002571D01*
X105289047Y-75147714D01*
X105228571Y-75220285D01*
X86299523Y-78050571D02*
X85029523Y-78050571D01*
X85029523Y-77687714D01*
X85090000Y-77470000D01*
X85210952Y-77324857D01*
X85331904Y-77252285D01*
X85573809Y-77179714D01*
X85755238Y-77179714D01*
X85997142Y-77252285D01*
X86118095Y-77324857D01*
X86239047Y-77470000D01*
X86299523Y-77687714D01*
X86299523Y-78050571D01*
X86299523Y-75728285D02*
X86299523Y-76599142D01*
X86299523Y-76163714D02*
X85029523Y-76163714D01*
X85210952Y-76308857D01*
X85331904Y-76454000D01*
X85392380Y-76599142D01*
X85150476Y-75147714D02*
X85090000Y-75075142D01*
X85029523Y-74930000D01*
X85029523Y-74567142D01*
X85090000Y-74422000D01*
X85150476Y-74349428D01*
X85271428Y-74276857D01*
X85392380Y-74276857D01*
X85573809Y-74349428D01*
X86299523Y-75220285D01*
X86299523Y-74276857D01*
X67249523Y-78050571D02*
X65979523Y-78050571D01*
X65979523Y-77687714D01*
X66040000Y-77470000D01*
X66160952Y-77324857D01*
X66281904Y-77252285D01*
X66523809Y-77179714D01*
X66705238Y-77179714D01*
X66947142Y-77252285D01*
X67068095Y-77324857D01*
X67189047Y-77470000D01*
X67249523Y-77687714D01*
X67249523Y-78050571D01*
X67249523Y-75728285D02*
X67249523Y-76599142D01*
X67249523Y-76163714D02*
X65979523Y-76163714D01*
X66160952Y-76308857D01*
X66281904Y-76453999D01*
X66342380Y-76599142D01*
X67249523Y-74276857D02*
X67249523Y-75147714D01*
X67249523Y-74712285D02*
X65979523Y-74712285D01*
X66160952Y-74857428D01*
X66281904Y-75002571D01*
X66342380Y-75147714D01*
X221237023Y-59000571D02*
X219967023Y-59000571D01*
X219967023Y-58637714D01*
X220027500Y-58420000D01*
X220148452Y-58274857D01*
X220269404Y-58202285D01*
X220511309Y-58129714D01*
X220692738Y-58129714D01*
X220934642Y-58202285D01*
X221055595Y-58274857D01*
X221176547Y-58420000D01*
X221237023Y-58637714D01*
X221237023Y-59000571D01*
X221237023Y-56678285D02*
X221237023Y-57549142D01*
X221237023Y-57113714D02*
X219967023Y-57113714D01*
X220148452Y-57258857D01*
X220269404Y-57404000D01*
X220329880Y-57549142D01*
X219967023Y-55734857D02*
X219967023Y-55589714D01*
X220027500Y-55444571D01*
X220087976Y-55372000D01*
X220208928Y-55299428D01*
X220450833Y-55226857D01*
X220753214Y-55226857D01*
X220995119Y-55299428D01*
X221116071Y-55372000D01*
X221176547Y-55444571D01*
X221237023Y-55589714D01*
X221237023Y-55734857D01*
X221176547Y-55880000D01*
X221116071Y-55952571D01*
X220995119Y-56025142D01*
X220753214Y-56097714D01*
X220450833Y-56097714D01*
X220208928Y-56025142D01*
X220087976Y-55952571D01*
X220027500Y-55880000D01*
X219967023Y-55734857D01*
X218062023Y-58274857D02*
X216792023Y-58274857D01*
X216792023Y-57912000D01*
X216852500Y-57694285D01*
X216973452Y-57549142D01*
X217094404Y-57476571D01*
X217336309Y-57404000D01*
X217517738Y-57404000D01*
X217759642Y-57476571D01*
X217880595Y-57549142D01*
X218001547Y-57694285D01*
X218062023Y-57912000D01*
X218062023Y-58274857D01*
X218062023Y-56678285D02*
X218062023Y-56388000D01*
X218001547Y-56242857D01*
X217941071Y-56170285D01*
X217759642Y-56025142D01*
X217517738Y-55952571D01*
X217033928Y-55952571D01*
X216912976Y-56025142D01*
X216852500Y-56097714D01*
X216792023Y-56242857D01*
X216792023Y-56533142D01*
X216852500Y-56678285D01*
X216912976Y-56750857D01*
X217033928Y-56823428D01*
X217336309Y-56823428D01*
X217457261Y-56750857D01*
X217517738Y-56678285D01*
X217578214Y-56533142D01*
X217578214Y-56242857D01*
X217517738Y-56097714D01*
X217457261Y-56025142D01*
X217336309Y-55952571D01*
X200599523Y-58274857D02*
X199329523Y-58274857D01*
X199329523Y-57912000D01*
X199390000Y-57694285D01*
X199510952Y-57549142D01*
X199631904Y-57476571D01*
X199873809Y-57404000D01*
X200055238Y-57404000D01*
X200297142Y-57476571D01*
X200418095Y-57549142D01*
X200539047Y-57694285D01*
X200599523Y-57912000D01*
X200599523Y-58274857D01*
X199873809Y-56533142D02*
X199813333Y-56678285D01*
X199752857Y-56750857D01*
X199631904Y-56823428D01*
X199571428Y-56823428D01*
X199450476Y-56750857D01*
X199390000Y-56678285D01*
X199329523Y-56533142D01*
X199329523Y-56242857D01*
X199390000Y-56097714D01*
X199450476Y-56025142D01*
X199571428Y-55952571D01*
X199631904Y-55952571D01*
X199752857Y-56025142D01*
X199813333Y-56097714D01*
X199873809Y-56242857D01*
X199873809Y-56533142D01*
X199934285Y-56678285D01*
X199994761Y-56750857D01*
X200115714Y-56823428D01*
X200357619Y-56823428D01*
X200478571Y-56750857D01*
X200539047Y-56678285D01*
X200599523Y-56533142D01*
X200599523Y-56242857D01*
X200539047Y-56097714D01*
X200478571Y-56025142D01*
X200357619Y-55952571D01*
X200115714Y-55952571D01*
X199994761Y-56025142D01*
X199934285Y-56097714D01*
X199873809Y-56242857D01*
X181549523Y-58274857D02*
X180279523Y-58274857D01*
X180279523Y-57912000D01*
X180340000Y-57694285D01*
X180460952Y-57549142D01*
X180581904Y-57476571D01*
X180823809Y-57404000D01*
X181005238Y-57404000D01*
X181247142Y-57476571D01*
X181368095Y-57549142D01*
X181489047Y-57694285D01*
X181549523Y-57912000D01*
X181549523Y-58274857D01*
X180279523Y-56896000D02*
X180279523Y-55880000D01*
X181549523Y-56533142D01*
X162499523Y-58274857D02*
X161229523Y-58274857D01*
X161229523Y-57912000D01*
X161290000Y-57694285D01*
X161410952Y-57549142D01*
X161531904Y-57476571D01*
X161773809Y-57404000D01*
X161955238Y-57404000D01*
X162197142Y-57476571D01*
X162318095Y-57549142D01*
X162439047Y-57694285D01*
X162499523Y-57912000D01*
X162499523Y-58274857D01*
X161229523Y-56097714D02*
X161229523Y-56388000D01*
X161290000Y-56533142D01*
X161350476Y-56605714D01*
X161531904Y-56750857D01*
X161773809Y-56823428D01*
X162257619Y-56823428D01*
X162378571Y-56750857D01*
X162439047Y-56678285D01*
X162499523Y-56533142D01*
X162499523Y-56242857D01*
X162439047Y-56097714D01*
X162378571Y-56025142D01*
X162257619Y-55952571D01*
X161955238Y-55952571D01*
X161834285Y-56025142D01*
X161773809Y-56097714D01*
X161713333Y-56242857D01*
X161713333Y-56533142D01*
X161773809Y-56678285D01*
X161834285Y-56750857D01*
X161955238Y-56823428D01*
X143449523Y-58274857D02*
X142179523Y-58274857D01*
X142179523Y-57912000D01*
X142240000Y-57694285D01*
X142360952Y-57549142D01*
X142481904Y-57476571D01*
X142723809Y-57404000D01*
X142905238Y-57404000D01*
X143147142Y-57476571D01*
X143268095Y-57549142D01*
X143389047Y-57694285D01*
X143449523Y-57912000D01*
X143449523Y-58274857D01*
X142179523Y-56025142D02*
X142179523Y-56750857D01*
X142784285Y-56823428D01*
X142723809Y-56750857D01*
X142663333Y-56605714D01*
X142663333Y-56242857D01*
X142723809Y-56097714D01*
X142784285Y-56025142D01*
X142905238Y-55952571D01*
X143207619Y-55952571D01*
X143328571Y-56025142D01*
X143389047Y-56097714D01*
X143449523Y-56242857D01*
X143449523Y-56605714D01*
X143389047Y-56750857D01*
X143328571Y-56823428D01*
X124399523Y-58274857D02*
X123129523Y-58274857D01*
X123129523Y-57912000D01*
X123190000Y-57694285D01*
X123310952Y-57549142D01*
X123431904Y-57476571D01*
X123673809Y-57404000D01*
X123855238Y-57404000D01*
X124097142Y-57476571D01*
X124218095Y-57549142D01*
X124339047Y-57694285D01*
X124399523Y-57912000D01*
X124399523Y-58274857D01*
X123552857Y-56097714D02*
X124399523Y-56097714D01*
X123069047Y-56460571D02*
X123976190Y-56823428D01*
X123976190Y-55880000D01*
X105349523Y-58274857D02*
X104079523Y-58274857D01*
X104079523Y-57912000D01*
X104140000Y-57694285D01*
X104260952Y-57549142D01*
X104381904Y-57476571D01*
X104623809Y-57404000D01*
X104805238Y-57404000D01*
X105047142Y-57476571D01*
X105168095Y-57549142D01*
X105289047Y-57694285D01*
X105349523Y-57912000D01*
X105349523Y-58274857D01*
X104079523Y-56896000D02*
X104079523Y-55952571D01*
X104563333Y-56460571D01*
X104563333Y-56242857D01*
X104623809Y-56097714D01*
X104684285Y-56025142D01*
X104805238Y-55952571D01*
X105107619Y-55952571D01*
X105228571Y-56025142D01*
X105289047Y-56097714D01*
X105349523Y-56242857D01*
X105349523Y-56678285D01*
X105289047Y-56823428D01*
X105228571Y-56896000D01*
X86299523Y-58274857D02*
X85029523Y-58274857D01*
X85029523Y-57912000D01*
X85090000Y-57694285D01*
X85210952Y-57549142D01*
X85331904Y-57476571D01*
X85573809Y-57404000D01*
X85755238Y-57404000D01*
X85997142Y-57476571D01*
X86118095Y-57549142D01*
X86239047Y-57694285D01*
X86299523Y-57912000D01*
X86299523Y-58274857D01*
X85150476Y-56823428D02*
X85090000Y-56750857D01*
X85029523Y-56605714D01*
X85029523Y-56242857D01*
X85090000Y-56097714D01*
X85150476Y-56025142D01*
X85271428Y-55952571D01*
X85392380Y-55952571D01*
X85573809Y-56025142D01*
X86299523Y-56896000D01*
X86299523Y-55952571D01*
X67249523Y-58274857D02*
X65979523Y-58274857D01*
X65979523Y-57912000D01*
X66040000Y-57694285D01*
X66160952Y-57549142D01*
X66281904Y-57476571D01*
X66523809Y-57404000D01*
X66705238Y-57404000D01*
X66947142Y-57476571D01*
X67068095Y-57549142D01*
X67189047Y-57694285D01*
X67249523Y-57912000D01*
X67249523Y-58274857D01*
X67249523Y-55952571D02*
X67249523Y-56823428D01*
X67249523Y-56388000D02*
X65979523Y-56388000D01*
X66160952Y-56533142D01*
X66281904Y-56678285D01*
X66342380Y-56823428D01*
%LPC*%
D14*
X140335000Y-33020000D03*
D15*
X142875000Y-38100000D03*
D14*
X146685000Y-35560000D03*
D16*
X147955000Y-38100000D03*
X137795000Y-38100000D03*
D17*
X182245000Y-45720000D03*
D18*
X179705000Y-45720000D03*
X177165000Y-45720000D03*
X174625000Y-45720000D03*
X172085000Y-45720000D03*
X169545000Y-45720000D03*
X167005000Y-45720000D03*
X164465000Y-45720000D03*
X161925000Y-45720000D03*
X159385000Y-45720000D03*
X156845000Y-45720000D03*
X154305000Y-30480000D03*
X156845000Y-30480000D03*
X159385000Y-30480000D03*
X161925000Y-30480000D03*
X164465000Y-30480000D03*
X167005000Y-30480000D03*
X169545000Y-30480000D03*
X172085000Y-30480000D03*
X174625000Y-30480000D03*
X177165000Y-30480000D03*
X179705000Y-30480000D03*
X154305000Y-45720000D03*
X182245000Y-30480000D03*
D14*
X159385000Y-109220000D03*
D15*
X161925000Y-114300000D03*
D14*
X165735000Y-111760000D03*
D16*
X167005000Y-114300000D03*
X156845000Y-114300000D03*
D19*
X173831250Y-121285000D03*
X150018750Y-121285000D03*
D15*
X173831250Y-106045000D03*
X150018750Y-106045000D03*
D14*
X121285000Y-109220000D03*
D15*
X123825000Y-114300000D03*
D14*
X127635000Y-111760000D03*
D16*
X128905000Y-114300000D03*
X118745000Y-114300000D03*
D19*
X135731250Y-121285000D03*
X111918750Y-121285000D03*
D15*
X135731250Y-106045000D03*
X111918750Y-106045000D03*
X95250000Y-106045000D03*
X190500000Y-106045000D03*
D19*
X95250000Y-121285000D03*
X190500000Y-121285000D03*
D16*
X137795000Y-114300000D03*
X147955000Y-114300000D03*
D14*
X146685000Y-111760000D03*
D15*
X142875000Y-114300000D03*
D14*
X140335000Y-109220000D03*
X121285000Y-33020000D03*
D15*
X123825000Y-38100000D03*
D14*
X127635000Y-35560000D03*
D16*
X128905000Y-38100000D03*
X118745000Y-38100000D03*
D14*
X102235000Y-33020000D03*
D15*
X104775000Y-38100000D03*
D14*
X108585000Y-35560000D03*
D16*
X109855000Y-38100000D03*
X99695000Y-38100000D03*
D14*
X83185000Y-33020000D03*
D15*
X85725000Y-38100000D03*
D14*
X89535000Y-35560000D03*
D16*
X90805000Y-38100000D03*
X80645000Y-38100000D03*
D14*
X64135000Y-33020000D03*
D15*
X66675000Y-38100000D03*
D14*
X70485000Y-35560000D03*
D16*
X71755000Y-38100000D03*
X61595000Y-38100000D03*
D14*
X226060000Y-109220000D03*
D15*
X228600000Y-114300000D03*
D14*
X232410000Y-111760000D03*
D16*
X233680000Y-114300000D03*
X223520000Y-114300000D03*
D14*
X207010000Y-109220000D03*
D15*
X209550000Y-114300000D03*
D14*
X213360000Y-111760000D03*
D16*
X214630000Y-114300000D03*
X204470000Y-114300000D03*
D14*
X187960000Y-109220000D03*
D15*
X190500000Y-114300000D03*
D14*
X194310000Y-111760000D03*
D16*
X195580000Y-114300000D03*
X185420000Y-114300000D03*
D14*
X168910000Y-109220000D03*
D15*
X171450000Y-114300000D03*
D14*
X175260000Y-111760000D03*
D16*
X176530000Y-114300000D03*
X166370000Y-114300000D03*
D14*
X149860000Y-109220000D03*
D15*
X152400000Y-114300000D03*
D14*
X156210000Y-111760000D03*
D16*
X157480000Y-114300000D03*
X147320000Y-114300000D03*
D14*
X130810000Y-109220000D03*
D15*
X133350000Y-114300000D03*
D14*
X137160000Y-111760000D03*
D16*
X138430000Y-114300000D03*
X128270000Y-114300000D03*
D14*
X111760000Y-109220000D03*
D15*
X114300000Y-114300000D03*
D14*
X118110000Y-111760000D03*
D16*
X119380000Y-114300000D03*
X109220000Y-114300000D03*
D14*
X92710000Y-109220000D03*
D15*
X95250000Y-114300000D03*
D14*
X99060000Y-111760000D03*
D16*
X100330000Y-114300000D03*
X90170000Y-114300000D03*
D14*
X73660000Y-109220000D03*
D15*
X76200000Y-114300000D03*
D14*
X80010000Y-111760000D03*
D16*
X81280000Y-114300000D03*
X71120000Y-114300000D03*
D14*
X54610000Y-109220000D03*
D15*
X57150000Y-114300000D03*
D14*
X60960000Y-111760000D03*
D16*
X62230000Y-114300000D03*
X52070000Y-114300000D03*
D14*
X226060000Y-90170000D03*
D15*
X228600000Y-95250000D03*
D14*
X232410000Y-92710000D03*
D16*
X233680000Y-95250000D03*
X223520000Y-95250000D03*
D14*
X207010000Y-90170000D03*
D15*
X209550000Y-95250000D03*
D14*
X213360000Y-92710000D03*
D16*
X214630000Y-95250000D03*
X204470000Y-95250000D03*
D14*
X187960000Y-90170000D03*
D15*
X190500000Y-95250000D03*
D14*
X194310000Y-92710000D03*
D16*
X195580000Y-95250000D03*
X185420000Y-95250000D03*
D14*
X168910000Y-90170000D03*
D15*
X171450000Y-95250000D03*
D14*
X175260000Y-92710000D03*
D16*
X176530000Y-95250000D03*
X166370000Y-95250000D03*
D14*
X149860000Y-90170000D03*
D15*
X152400000Y-95250000D03*
D14*
X156210000Y-92710000D03*
D16*
X157480000Y-95250000D03*
X147320000Y-95250000D03*
D14*
X130810000Y-90170000D03*
D15*
X133350000Y-95250000D03*
D14*
X137160000Y-92710000D03*
D16*
X138430000Y-95250000D03*
X128270000Y-95250000D03*
D14*
X111760000Y-90170000D03*
D15*
X114300000Y-95250000D03*
D14*
X118110000Y-92710000D03*
D16*
X119380000Y-95250000D03*
X109220000Y-95250000D03*
D14*
X92710000Y-90170000D03*
D15*
X95250000Y-95250000D03*
D14*
X99060000Y-92710000D03*
D16*
X100330000Y-95250000D03*
X90170000Y-95250000D03*
D14*
X73660000Y-90170000D03*
D15*
X76200000Y-95250000D03*
D14*
X80010000Y-92710000D03*
D16*
X81280000Y-95250000D03*
X71120000Y-95250000D03*
D14*
X54610000Y-90170000D03*
D15*
X57150000Y-95250000D03*
D14*
X60960000Y-92710000D03*
D16*
X62230000Y-95250000D03*
X52070000Y-95250000D03*
D14*
X226060000Y-71120000D03*
D15*
X228600000Y-76200000D03*
D14*
X232410000Y-73660000D03*
D16*
X233680000Y-76200000D03*
X223520000Y-76200000D03*
D14*
X207010000Y-71120000D03*
D15*
X209550000Y-76200000D03*
D14*
X213360000Y-73660000D03*
D16*
X214630000Y-76200000D03*
X204470000Y-76200000D03*
D14*
X187960000Y-71120000D03*
D15*
X190500000Y-76200000D03*
D14*
X194310000Y-73660000D03*
D16*
X195580000Y-76200000D03*
X185420000Y-76200000D03*
D14*
X168910000Y-71120000D03*
D15*
X171450000Y-76200000D03*
D14*
X175260000Y-73660000D03*
D16*
X176530000Y-76200000D03*
X166370000Y-76200000D03*
D14*
X149860000Y-71120000D03*
D15*
X152400000Y-76200000D03*
D14*
X156210000Y-73660000D03*
D16*
X157480000Y-76200000D03*
X147320000Y-76200000D03*
D14*
X130810000Y-71120000D03*
D15*
X133350000Y-76200000D03*
D14*
X137160000Y-73660000D03*
D16*
X138430000Y-76200000D03*
X128270000Y-76200000D03*
D14*
X111760000Y-71120000D03*
D15*
X114300000Y-76200000D03*
D14*
X118110000Y-73660000D03*
D16*
X119380000Y-76200000D03*
X109220000Y-76200000D03*
D14*
X92710000Y-71120000D03*
D15*
X95250000Y-76200000D03*
D14*
X99060000Y-73660000D03*
D16*
X100330000Y-76200000D03*
X90170000Y-76200000D03*
D14*
X73660000Y-71120000D03*
D15*
X76200000Y-76200000D03*
D14*
X80010000Y-73660000D03*
D16*
X81280000Y-76200000D03*
X71120000Y-76200000D03*
D14*
X54610000Y-71120000D03*
D15*
X57150000Y-76200000D03*
D14*
X60960000Y-73660000D03*
D16*
X62230000Y-76200000D03*
X52070000Y-76200000D03*
D14*
X226060000Y-52070000D03*
D15*
X228600000Y-57150000D03*
D14*
X232410000Y-54610000D03*
D16*
X233680000Y-57150000D03*
X223520000Y-57150000D03*
D14*
X207010000Y-52070000D03*
D15*
X209550000Y-57150000D03*
D14*
X213360000Y-54610000D03*
D16*
X214630000Y-57150000D03*
X204470000Y-57150000D03*
D14*
X187960000Y-52070000D03*
D15*
X190500000Y-57150000D03*
D14*
X194310000Y-54610000D03*
D16*
X195580000Y-57150000D03*
X185420000Y-57150000D03*
D14*
X168910000Y-52070000D03*
D15*
X171450000Y-57150000D03*
D14*
X175260000Y-54610000D03*
D16*
X176530000Y-57150000D03*
X166370000Y-57150000D03*
D14*
X149860000Y-52070000D03*
D15*
X152400000Y-57150000D03*
D14*
X156210000Y-54610000D03*
D16*
X157480000Y-57150000D03*
X147320000Y-57150000D03*
D14*
X130810000Y-52070000D03*
D15*
X133350000Y-57150000D03*
D14*
X137160000Y-54610000D03*
D16*
X138430000Y-57150000D03*
X128270000Y-57150000D03*
D14*
X111760000Y-52070000D03*
D15*
X114300000Y-57150000D03*
D14*
X118110000Y-54610000D03*
D16*
X119380000Y-57150000D03*
X109220000Y-57150000D03*
D14*
X92710000Y-52070000D03*
D15*
X95250000Y-57150000D03*
D14*
X99060000Y-54610000D03*
D16*
X100330000Y-57150000D03*
X90170000Y-57150000D03*
D14*
X73660000Y-52070000D03*
D15*
X76200000Y-57150000D03*
D14*
X80010000Y-54610000D03*
D16*
X81280000Y-57150000D03*
X71120000Y-57150000D03*
D14*
X54610000Y-52070000D03*
D15*
X57150000Y-57150000D03*
D14*
X60960000Y-54610000D03*
D16*
X62230000Y-57150000D03*
X52070000Y-57150000D03*
D20*
X134937500Y-34290000D03*
D21*
X134937500Y-41910000D03*
D20*
X131762500Y-34290000D03*
D21*
X131762500Y-41910000D03*
D20*
X114300000Y-34290000D03*
D21*
X114300000Y-41910000D03*
D20*
X95250000Y-34290000D03*
D21*
X95250000Y-41910000D03*
D20*
X76200000Y-34290000D03*
D21*
X76200000Y-41910000D03*
D20*
X220662500Y-110490000D03*
D21*
X220662500Y-118110000D03*
D20*
X217487500Y-110490000D03*
D21*
X217487500Y-118110000D03*
D20*
X200025000Y-110490000D03*
D21*
X200025000Y-118110000D03*
D20*
X182562500Y-110490000D03*
D21*
X182562500Y-118110000D03*
D20*
X179387500Y-110490000D03*
D21*
X179387500Y-118110000D03*
D20*
X106362500Y-110490000D03*
D21*
X106362500Y-118110000D03*
D20*
X103187500Y-110490000D03*
D21*
X103187500Y-118110000D03*
D20*
X85725000Y-110490000D03*
D21*
X85725000Y-118110000D03*
D20*
X68262500Y-110490000D03*
D21*
X68262500Y-118110000D03*
D20*
X65087500Y-110490000D03*
D21*
X65087500Y-118110000D03*
D20*
X220662500Y-91440000D03*
D21*
X220662500Y-99060000D03*
D20*
X217487500Y-91440000D03*
D21*
X217487500Y-99060000D03*
D20*
X200025000Y-91440000D03*
D21*
X200025000Y-99060000D03*
D20*
X180975000Y-91440000D03*
D21*
X180975000Y-99060000D03*
D20*
X161925000Y-91440000D03*
D21*
X161925000Y-99060000D03*
D20*
X142875000Y-91440000D03*
D21*
X142875000Y-99060000D03*
D20*
X123825000Y-91440000D03*
D21*
X123825000Y-99060000D03*
D20*
X104775000Y-91440000D03*
D21*
X104775000Y-99060000D03*
D20*
X85725000Y-91440000D03*
D21*
X85725000Y-99060000D03*
D20*
X66675000Y-91440000D03*
D21*
X66675000Y-99060000D03*
D20*
X220662500Y-72390000D03*
D21*
X220662500Y-80010000D03*
D20*
X217487500Y-72390000D03*
D21*
X217487500Y-80010000D03*
D20*
X200025000Y-72390000D03*
D21*
X200025000Y-80010000D03*
D20*
X180975000Y-72390000D03*
D21*
X180975000Y-80010000D03*
D20*
X161925000Y-72390000D03*
D21*
X161925000Y-80010000D03*
D20*
X142875000Y-72390000D03*
D21*
X142875000Y-80010000D03*
D20*
X123825000Y-72390000D03*
D21*
X123825000Y-80010000D03*
D20*
X104775000Y-72390000D03*
D21*
X104775000Y-80010000D03*
D20*
X85725000Y-72390000D03*
D21*
X85725000Y-80010000D03*
D20*
X66675000Y-72390000D03*
D21*
X66675000Y-80010000D03*
D20*
X220662500Y-53340000D03*
D21*
X220662500Y-60960000D03*
D20*
X217487500Y-53340000D03*
D21*
X217487500Y-60960000D03*
D20*
X200025000Y-53340000D03*
D21*
X200025000Y-60960000D03*
D20*
X180975000Y-53340000D03*
D21*
X180975000Y-60960000D03*
D20*
X161925000Y-53340000D03*
D21*
X161925000Y-60960000D03*
D20*
X142875000Y-53340000D03*
D21*
X142875000Y-60960000D03*
D20*
X123825000Y-53340000D03*
D21*
X123825000Y-60960000D03*
D20*
X104775000Y-53340000D03*
D21*
X104775000Y-60960000D03*
X85725000Y-60960000D03*
D20*
X85725000Y-53340000D03*
X66675000Y-53340000D03*
D21*
X66675000Y-60960000D03*
M02*
