M48
; DRILL file {KiCad (5.1.4)-1} date 8/29/2021 9:23:29 PM
; FORMAT={-:-/ absolute / inch / decimal}
; #@! TF.CreationDate,2021-08-29T21:23:29-10:00
; #@! TF.GenerationSoftware,Kicad,Pcbnew,(5.1.4)-1
; #@! TF.FileFunction,Plated,1,2,PTH
FMAT,2
INCH
T1C0.0390
T2C0.0430
T3C0.0579
%
G90
G05
T1
X3.0Y-1.35
X3.0Y-1.65
X4.125Y-3.6
X4.125Y-3.9
X8.5625Y-4.35
X8.5625Y-4.65
X8.6875Y-2.85
X8.6875Y-3.15
X4.875Y-3.6
X4.875Y-3.9
X7.0625Y-4.35
X7.0625Y-4.65
X4.1875Y-4.35
X4.1875Y-4.65
X3.375Y-2.1
X3.375Y-2.4
X3.375Y-4.35
X3.375Y-4.65
X4.875Y-2.1
X4.875Y-2.4
X8.5625Y-2.85
X8.5625Y-3.15
X7.125Y-2.1
X7.125Y-2.4
X5.625Y-2.85
X5.625Y-3.15
X3.75Y-1.35
X3.75Y-1.65
X6.375Y-2.85
X6.375Y-3.15
X8.6875Y-4.35
X8.6875Y-4.65
X3.375Y-3.6
X3.375Y-3.9
X7.875Y-4.35
X7.875Y-4.65
X7.125Y-3.6
X7.125Y-3.9
X2.6875Y-4.35
X2.6875Y-4.65
X7.875Y-3.6
X7.875Y-3.9
X8.6875Y-3.6
X8.6875Y-3.9
X2.625Y-2.1
X2.625Y-2.4
X4.0625Y-4.35
X4.0625Y-4.65
X8.6875Y-2.1
X8.6875Y-2.4
X6.375Y-2.1
X6.375Y-2.4
X7.125Y-2.85
X7.125Y-3.15
X5.625Y-2.1
X5.625Y-2.4
X2.625Y-2.85
X2.625Y-3.15
X5.3125Y-1.35
X5.3125Y-1.65
X4.875Y-2.85
X4.875Y-3.15
X2.625Y-3.6
X2.625Y-3.9
X5.1875Y-1.35
X5.1875Y-1.65
X5.625Y-3.6
X5.625Y-3.9
X2.5625Y-4.35
X2.5625Y-4.65
X6.375Y-3.6
X6.375Y-3.9
X8.5625Y-3.6
X8.5625Y-3.9
X4.125Y-2.1
X4.125Y-2.4
X7.1875Y-4.35
X7.1875Y-4.65
X8.5625Y-2.1
X8.5625Y-2.4
X3.375Y-2.85
X3.375Y-3.15
X7.875Y-2.1
X7.875Y-2.4
X4.125Y-2.85
X4.125Y-3.15
X4.5Y-1.35
X4.5Y-1.65
X7.875Y-2.85
X7.875Y-3.15
T2
X6.075Y-1.2
X6.075Y-1.8
X6.175Y-1.2
X6.175Y-1.8
X6.275Y-1.2
X6.275Y-1.8
X6.375Y-1.2
X6.375Y-1.8
X6.475Y-1.2
X6.475Y-1.8
X6.575Y-1.2
X6.575Y-1.8
X6.675Y-1.2
X6.675Y-1.8
X6.775Y-1.2
X6.775Y-1.8
X6.875Y-1.2
X6.875Y-1.8
X6.975Y-1.2
X6.975Y-1.8
X7.075Y-1.2
X7.075Y-1.8
X7.175Y-1.2
X7.175Y-1.8
T3
X2.15Y-4.3
X2.4Y-4.4
X5.525Y-4.3
X5.775Y-4.4
X8.15Y-3.55
X8.4Y-3.65
X3.275Y-1.3
X3.525Y-1.4
X8.9Y-2.8
X9.15Y-2.9
X2.9Y-4.3
X3.15Y-4.4
X3.65Y-2.05
X3.9Y-2.15
X8.15Y-4.3
X8.4Y-4.4
X2.9Y-3.55
X3.15Y-3.65
X2.9Y-2.05
X3.15Y-2.15
X2.15Y-3.55
X2.4Y-3.65
X5.15Y-2.8
X5.4Y-2.9
X8.15Y-2.05
X8.4Y-2.15
X8.15Y-2.8
X8.4Y-2.9
X6.65Y-2.8
X6.9Y-2.9
X5.15Y-4.3
X5.4Y-4.4
X4.775Y-1.3
X5.025Y-1.4
X4.4Y-3.55
X4.65Y-3.65
X5.9Y-4.3
X6.15Y-4.4
X8.9Y-4.3
X9.15Y-4.4
X5.9Y-3.55
X6.15Y-3.65
X4.4Y-4.3
X4.65Y-4.4
X8.9Y-2.05
X9.15Y-2.15
X5.15Y-3.55
X5.4Y-3.65
X7.4Y-2.05
X7.65Y-2.15
X2.525Y-1.3
X2.775Y-1.4
X5.9Y-2.8
X6.15Y-2.9
X5.15Y-2.05
X5.4Y-2.15
X3.65Y-2.8
X3.9Y-2.9
X2.9Y-2.8
X3.15Y-2.9
X2.15Y-2.05
X2.4Y-2.15
X5.525Y-1.3
X5.775Y-1.4
X8.9Y-3.55
X9.15Y-3.65
X4.775Y-4.3
X5.025Y-4.4
X6.65Y-3.55
X6.9Y-3.65
X6.65Y-4.3
X6.9Y-4.4
X4.025Y-1.3
X4.275Y-1.4
X7.4Y-3.55
X7.65Y-3.65
X3.65Y-4.3
X3.9Y-4.4
X6.65Y-2.05
X6.9Y-2.15
X6.275Y-4.3
X6.525Y-4.4
X3.65Y-3.55
X3.9Y-3.65
X5.9Y-2.05
X6.15Y-2.15
X7.4Y-2.8
X7.65Y-2.9
X4.4Y-2.05
X4.65Y-2.15
X4.4Y-2.8
X4.65Y-2.9
X2.15Y-2.8
X2.4Y-2.9
X7.4Y-4.3
X7.65Y-4.4
T0
M30
