M48
; DRILL file {KiCad (5.1.4)-1} date 8/29/2021 9:23:29 PM
; FORMAT={-:-/ absolute / inch / decimal}
; #@! TF.CreationDate,2021-08-29T21:23:29-10:00
; #@! TF.GenerationSoftware,Kicad,Pcbnew,(5.1.4)-1
; #@! TF.FileFunction,NonPlated,1,2,NPTH
FMAT,2
INCH
T1C0.0689
T2C0.1200
T3C0.1570
%
G90
G05
T1
X8.05Y-3.0
X8.45Y-3.0
X6.55Y-3.0
X6.95Y-3.0
X5.05Y-4.5
X5.45Y-4.5
X4.675Y-1.5
X5.075Y-1.5
X4.3Y-3.75
X4.7Y-3.75
X5.8Y-4.5
X6.2Y-4.5
X8.8Y-4.5
X9.2Y-4.5
X5.8Y-3.75
X6.2Y-3.75
X4.3Y-4.5
X4.7Y-4.5
X8.8Y-2.25
X9.2Y-2.25
X5.05Y-3.75
X5.45Y-3.75
X7.3Y-2.25
X7.7Y-2.25
X2.425Y-1.5
X2.825Y-1.5
X5.8Y-3.0
X6.2Y-3.0
X5.05Y-2.25
X5.45Y-2.25
X3.55Y-3.0
X3.95Y-3.0
X2.8Y-3.0
X3.2Y-3.0
X2.05Y-2.25
X2.45Y-2.25
X5.425Y-1.5
X5.825Y-1.5
X8.8Y-3.75
X9.2Y-3.75
X4.675Y-4.5
X5.075Y-4.5
X6.55Y-3.75
X6.95Y-3.75
X6.55Y-4.5
X6.95Y-4.5
X3.925Y-1.5
X4.325Y-1.5
X7.3Y-3.75
X7.7Y-3.75
X3.55Y-4.5
X3.95Y-4.5
X6.55Y-2.25
X6.95Y-2.25
X6.175Y-4.5
X6.575Y-4.5
X3.55Y-3.75
X3.95Y-3.75
X5.8Y-2.25
X6.2Y-2.25
X7.3Y-3.0
X7.7Y-3.0
X4.3Y-2.25
X4.7Y-2.25
X4.3Y-3.0
X4.7Y-3.0
X2.05Y-3.0
X2.45Y-3.0
X7.3Y-4.5
X7.7Y-4.5
X2.05Y-4.5
X2.45Y-4.5
X5.425Y-4.5
X5.825Y-4.5
X8.05Y-3.75
X8.45Y-3.75
X3.175Y-1.5
X3.575Y-1.5
X8.8Y-3.0
X9.2Y-3.0
X2.8Y-4.5
X3.2Y-4.5
X3.55Y-2.25
X3.95Y-2.25
X8.05Y-4.5
X8.45Y-4.5
X2.8Y-3.75
X3.2Y-3.75
X2.8Y-2.25
X3.2Y-2.25
X2.05Y-3.75
X2.45Y-3.75
X5.05Y-3.0
X5.45Y-3.0
X8.05Y-2.25
X8.45Y-2.25
T2
X4.4062Y-4.775
X5.3438Y-4.775
X5.9062Y-4.775
X6.8438Y-4.775
X3.75Y-4.775
X7.5Y-4.775
T3
X8.25Y-3.0
X6.75Y-3.0
X5.25Y-4.5
X4.875Y-1.5
X4.5Y-3.75
X6.0Y-4.5
X9.0Y-4.5
X6.0Y-3.75
X4.5Y-4.5
X9.0Y-2.25
X5.25Y-3.75
X7.5Y-2.25
X2.625Y-1.5
X6.0Y-3.0
X5.25Y-2.25
X3.75Y-3.0
X3.0Y-3.0
X2.25Y-2.25
X5.625Y-1.5
X9.0Y-3.75
X4.4062Y-4.175
X4.875Y-4.5
X5.3438Y-4.175
X6.75Y-3.75
X6.75Y-4.5
X4.125Y-1.5
X7.5Y-3.75
X3.75Y-4.5
X6.75Y-2.25
X5.9062Y-4.175
X6.375Y-4.5
X6.8438Y-4.175
X3.75Y-3.75
X6.0Y-2.25
X7.5Y-3.0
X4.5Y-2.25
X4.5Y-3.0
X2.25Y-3.0
X7.5Y-4.5
X2.25Y-4.5
X3.75Y-4.175
X5.625Y-4.5
X7.5Y-4.175
X8.25Y-3.75
X3.375Y-1.5
X9.0Y-3.0
X3.0Y-4.5
X3.75Y-2.25
X8.25Y-4.5
X3.0Y-3.75
X3.0Y-2.25
X2.25Y-3.75
X5.25Y-3.0
X8.25Y-2.25
T0
M30
