G04 #@! TF.GenerationSoftware,KiCad,Pcbnew,(5.1.4)-1*
G04 #@! TF.CreationDate,2021-09-01T13:47:46-10:00*
G04 #@! TF.ProjectId,oya45,6f796134-352e-46b6-9963-61645f706362,rev?*
G04 #@! TF.SameCoordinates,Original*
G04 #@! TF.FileFunction,Legend,Top*
G04 #@! TF.FilePolarity,Positive*
%FSLAX46Y46*%
G04 Gerber Fmt 4.6, Leading zero omitted, Abs format (unit mm)*
G04 Created by KiCad (PCBNEW (5.1.4)-1) date 2021-09-01 13:47:46*
%MOMM*%
%LPD*%
G04 APERTURE LIST*
%ADD10C,0.150000*%
%ADD11C,0.381000*%
%ADD12C,1.852000*%
%ADD13C,2.352000*%
%ADD14C,4.089800*%
%ADD15R,1.102000X1.502000*%
%ADD16R,1.854600X1.854600*%
%ADD17C,1.854600*%
%ADD18C,3.150000*%
G04 APERTURE END LIST*
D10*
X211887500Y-41593750D02*
X211887500Y-36193750D01*
X210387500Y-36193750D02*
X210387500Y-41593750D01*
X210387500Y-41593750D02*
X211887500Y-41593750D01*
X210387500Y-36193750D02*
X211887500Y-36193750D01*
X210637500Y-38393750D02*
X211637500Y-38393750D01*
X211637500Y-38393750D02*
X211137500Y-39293750D01*
X211137500Y-39293750D02*
X210637500Y-38393750D01*
X210637500Y-39393750D02*
X211637500Y-39393750D01*
X208712500Y-41593750D02*
X208712500Y-36193750D01*
X207212500Y-36193750D02*
X207212500Y-41593750D01*
X207212500Y-41593750D02*
X208712500Y-41593750D01*
X207212500Y-36193750D02*
X208712500Y-36193750D01*
X207462500Y-38393750D02*
X208462500Y-38393750D01*
X208462500Y-38393750D02*
X207962500Y-39293750D01*
X207962500Y-39293750D02*
X207462500Y-38393750D01*
X207462500Y-39393750D02*
X208462500Y-39393750D01*
X155531250Y-41593750D02*
X155531250Y-36193750D01*
X154031250Y-36193750D02*
X154031250Y-41593750D01*
X154031250Y-41593750D02*
X155531250Y-41593750D01*
X154031250Y-36193750D02*
X155531250Y-36193750D01*
X154281250Y-38393750D02*
X155281250Y-38393750D01*
X155281250Y-38393750D02*
X154781250Y-39293750D01*
X154781250Y-39293750D02*
X154281250Y-38393750D01*
X154281250Y-39393750D02*
X155281250Y-39393750D01*
X151900000Y-39393750D02*
X152900000Y-39393750D01*
X152400000Y-39293750D02*
X151900000Y-38393750D01*
X152900000Y-38393750D02*
X152400000Y-39293750D01*
X151900000Y-38393750D02*
X152900000Y-38393750D01*
X151650000Y-36193750D02*
X153150000Y-36193750D01*
X151650000Y-41593750D02*
X153150000Y-41593750D01*
X151650000Y-36193750D02*
X151650000Y-41593750D01*
X153150000Y-41593750D02*
X153150000Y-36193750D01*
X150768750Y-41593750D02*
X150768750Y-36193750D01*
X149268750Y-36193750D02*
X149268750Y-41593750D01*
X149268750Y-41593750D02*
X150768750Y-41593750D01*
X149268750Y-36193750D02*
X150768750Y-36193750D01*
X149518750Y-38393750D02*
X150518750Y-38393750D01*
X150518750Y-38393750D02*
X150018750Y-39293750D01*
X150018750Y-39293750D02*
X149518750Y-38393750D01*
X149518750Y-39393750D02*
X150518750Y-39393750D01*
X221412500Y-117793750D02*
X221412500Y-112393750D01*
X219912500Y-112393750D02*
X219912500Y-117793750D01*
X219912500Y-117793750D02*
X221412500Y-117793750D01*
X219912500Y-112393750D02*
X221412500Y-112393750D01*
X220162500Y-114593750D02*
X221162500Y-114593750D01*
X221162500Y-114593750D02*
X220662500Y-115493750D01*
X220662500Y-115493750D02*
X220162500Y-114593750D01*
X220162500Y-115593750D02*
X221162500Y-115593750D01*
X216987500Y-115593750D02*
X217987500Y-115593750D01*
X217487500Y-115493750D02*
X216987500Y-114593750D01*
X217987500Y-114593750D02*
X217487500Y-115493750D01*
X216987500Y-114593750D02*
X217987500Y-114593750D01*
X216737500Y-112393750D02*
X218237500Y-112393750D01*
X216737500Y-117793750D02*
X218237500Y-117793750D01*
X216737500Y-112393750D02*
X216737500Y-117793750D01*
X218237500Y-117793750D02*
X218237500Y-112393750D01*
X184106250Y-117793750D02*
X184106250Y-112393750D01*
X182606250Y-112393750D02*
X182606250Y-117793750D01*
X182606250Y-117793750D02*
X184106250Y-117793750D01*
X182606250Y-112393750D02*
X184106250Y-112393750D01*
X182856250Y-114593750D02*
X183856250Y-114593750D01*
X183856250Y-114593750D02*
X183356250Y-115493750D01*
X183356250Y-115493750D02*
X182856250Y-114593750D01*
X182856250Y-115593750D02*
X183856250Y-115593750D01*
X181725000Y-117793750D02*
X181725000Y-112393750D01*
X180225000Y-112393750D02*
X180225000Y-117793750D01*
X180225000Y-117793750D02*
X181725000Y-117793750D01*
X180225000Y-112393750D02*
X181725000Y-112393750D01*
X180475000Y-114593750D02*
X181475000Y-114593750D01*
X181475000Y-114593750D02*
X180975000Y-115493750D01*
X180975000Y-115493750D02*
X180475000Y-114593750D01*
X180475000Y-115593750D02*
X181475000Y-115593750D01*
X179343750Y-117793750D02*
X179343750Y-112393750D01*
X177843750Y-112393750D02*
X177843750Y-117793750D01*
X177843750Y-117793750D02*
X179343750Y-117793750D01*
X177843750Y-112393750D02*
X179343750Y-112393750D01*
X178093750Y-114593750D02*
X179093750Y-114593750D01*
X179093750Y-114593750D02*
X178593750Y-115493750D01*
X178593750Y-115493750D02*
X178093750Y-114593750D01*
X178093750Y-115593750D02*
X179093750Y-115593750D01*
X107906250Y-117793750D02*
X107906250Y-112393750D01*
X106406250Y-112393750D02*
X106406250Y-117793750D01*
X106406250Y-117793750D02*
X107906250Y-117793750D01*
X106406250Y-112393750D02*
X107906250Y-112393750D01*
X106656250Y-114593750D02*
X107656250Y-114593750D01*
X107656250Y-114593750D02*
X107156250Y-115493750D01*
X107156250Y-115493750D02*
X106656250Y-114593750D01*
X106656250Y-115593750D02*
X107656250Y-115593750D01*
X105525000Y-117793750D02*
X105525000Y-112393750D01*
X104025000Y-112393750D02*
X104025000Y-117793750D01*
X104025000Y-117793750D02*
X105525000Y-117793750D01*
X104025000Y-112393750D02*
X105525000Y-112393750D01*
X104275000Y-114593750D02*
X105275000Y-114593750D01*
X105275000Y-114593750D02*
X104775000Y-115493750D01*
X104775000Y-115493750D02*
X104275000Y-114593750D01*
X104275000Y-115593750D02*
X105275000Y-115593750D01*
X103143750Y-117793750D02*
X103143750Y-112393750D01*
X101643750Y-112393750D02*
X101643750Y-117793750D01*
X101643750Y-117793750D02*
X103143750Y-117793750D01*
X101643750Y-112393750D02*
X103143750Y-112393750D01*
X101893750Y-114593750D02*
X102893750Y-114593750D01*
X102893750Y-114593750D02*
X102393750Y-115493750D01*
X102393750Y-115493750D02*
X101893750Y-114593750D01*
X101893750Y-115593750D02*
X102893750Y-115593750D01*
X69012500Y-117793750D02*
X69012500Y-112393750D01*
X67512500Y-112393750D02*
X67512500Y-117793750D01*
X67512500Y-117793750D02*
X69012500Y-117793750D01*
X67512500Y-112393750D02*
X69012500Y-112393750D01*
X67762500Y-114593750D02*
X68762500Y-114593750D01*
X68762500Y-114593750D02*
X68262500Y-115493750D01*
X68262500Y-115493750D02*
X67762500Y-114593750D01*
X67762500Y-115593750D02*
X68762500Y-115593750D01*
X65837500Y-117793750D02*
X65837500Y-112393750D01*
X64337500Y-112393750D02*
X64337500Y-117793750D01*
X64337500Y-117793750D02*
X65837500Y-117793750D01*
X64337500Y-112393750D02*
X65837500Y-112393750D01*
X64587500Y-114593750D02*
X65587500Y-114593750D01*
X65587500Y-114593750D02*
X65087500Y-115493750D01*
X65087500Y-115493750D02*
X64587500Y-114593750D01*
X64587500Y-115593750D02*
X65587500Y-115593750D01*
X221412500Y-98743750D02*
X221412500Y-93343750D01*
X219912500Y-93343750D02*
X219912500Y-98743750D01*
X219912500Y-98743750D02*
X221412500Y-98743750D01*
X219912500Y-93343750D02*
X221412500Y-93343750D01*
X220162500Y-95543750D02*
X221162500Y-95543750D01*
X221162500Y-95543750D02*
X220662500Y-96443750D01*
X220662500Y-96443750D02*
X220162500Y-95543750D01*
X220162500Y-96543750D02*
X221162500Y-96543750D01*
X218237500Y-98743750D02*
X218237500Y-93343750D01*
X216737500Y-93343750D02*
X216737500Y-98743750D01*
X216737500Y-98743750D02*
X218237500Y-98743750D01*
X216737500Y-93343750D02*
X218237500Y-93343750D01*
X216987500Y-95543750D02*
X217987500Y-95543750D01*
X217987500Y-95543750D02*
X217487500Y-96443750D01*
X217487500Y-96443750D02*
X216987500Y-95543750D01*
X216987500Y-96543750D02*
X217987500Y-96543750D01*
X183312500Y-98743750D02*
X183312500Y-93343750D01*
X181812500Y-93343750D02*
X181812500Y-98743750D01*
X181812500Y-98743750D02*
X183312500Y-98743750D01*
X181812500Y-93343750D02*
X183312500Y-93343750D01*
X182062500Y-95543750D02*
X183062500Y-95543750D01*
X183062500Y-95543750D02*
X182562500Y-96443750D01*
X182562500Y-96443750D02*
X182062500Y-95543750D01*
X182062500Y-96543750D02*
X183062500Y-96543750D01*
X180137500Y-98743750D02*
X180137500Y-93343750D01*
X178637500Y-93343750D02*
X178637500Y-98743750D01*
X178637500Y-98743750D02*
X180137500Y-98743750D01*
X178637500Y-93343750D02*
X180137500Y-93343750D01*
X178887500Y-95543750D02*
X179887500Y-95543750D01*
X179887500Y-95543750D02*
X179387500Y-96443750D01*
X179387500Y-96443750D02*
X178887500Y-95543750D01*
X178887500Y-96543750D02*
X179887500Y-96543750D01*
X145212500Y-98743750D02*
X145212500Y-93343750D01*
X143712500Y-93343750D02*
X143712500Y-98743750D01*
X143712500Y-98743750D02*
X145212500Y-98743750D01*
X143712500Y-93343750D02*
X145212500Y-93343750D01*
X143962500Y-95543750D02*
X144962500Y-95543750D01*
X144962500Y-95543750D02*
X144462500Y-96443750D01*
X144462500Y-96443750D02*
X143962500Y-95543750D01*
X143962500Y-96543750D02*
X144962500Y-96543750D01*
X142037500Y-98743750D02*
X142037500Y-93343750D01*
X140537500Y-93343750D02*
X140537500Y-98743750D01*
X140537500Y-98743750D02*
X142037500Y-98743750D01*
X140537500Y-93343750D02*
X142037500Y-93343750D01*
X140787500Y-95543750D02*
X141787500Y-95543750D01*
X141787500Y-95543750D02*
X141287500Y-96443750D01*
X141287500Y-96443750D02*
X140787500Y-95543750D01*
X140787500Y-96543750D02*
X141787500Y-96543750D01*
X107112500Y-98743750D02*
X107112500Y-93343750D01*
X105612500Y-93343750D02*
X105612500Y-98743750D01*
X105612500Y-98743750D02*
X107112500Y-98743750D01*
X105612500Y-93343750D02*
X107112500Y-93343750D01*
X105862500Y-95543750D02*
X106862500Y-95543750D01*
X106862500Y-95543750D02*
X106362500Y-96443750D01*
X106362500Y-96443750D02*
X105862500Y-95543750D01*
X105862500Y-96543750D02*
X106862500Y-96543750D01*
X103937500Y-98743750D02*
X103937500Y-93343750D01*
X102437500Y-93343750D02*
X102437500Y-98743750D01*
X102437500Y-98743750D02*
X103937500Y-98743750D01*
X102437500Y-93343750D02*
X103937500Y-93343750D01*
X102687500Y-95543750D02*
X103687500Y-95543750D01*
X103687500Y-95543750D02*
X103187500Y-96443750D01*
X103187500Y-96443750D02*
X102687500Y-95543750D01*
X102687500Y-96543750D02*
X103687500Y-96543750D01*
X69012500Y-98743750D02*
X69012500Y-93343750D01*
X67512500Y-93343750D02*
X67512500Y-98743750D01*
X67512500Y-98743750D02*
X69012500Y-98743750D01*
X67512500Y-93343750D02*
X69012500Y-93343750D01*
X67762500Y-95543750D02*
X68762500Y-95543750D01*
X68762500Y-95543750D02*
X68262500Y-96443750D01*
X68262500Y-96443750D02*
X67762500Y-95543750D01*
X67762500Y-96543750D02*
X68762500Y-96543750D01*
X65837500Y-98743750D02*
X65837500Y-93343750D01*
X64337500Y-93343750D02*
X64337500Y-98743750D01*
X64337500Y-98743750D02*
X65837500Y-98743750D01*
X64337500Y-93343750D02*
X65837500Y-93343750D01*
X64587500Y-95543750D02*
X65587500Y-95543750D01*
X65587500Y-95543750D02*
X65087500Y-96443750D01*
X65087500Y-96443750D02*
X64587500Y-95543750D01*
X64587500Y-96543750D02*
X65587500Y-96543750D01*
X221412500Y-79693750D02*
X221412500Y-74293750D01*
X219912500Y-74293750D02*
X219912500Y-79693750D01*
X219912500Y-79693750D02*
X221412500Y-79693750D01*
X219912500Y-74293750D02*
X221412500Y-74293750D01*
X220162500Y-76493750D02*
X221162500Y-76493750D01*
X221162500Y-76493750D02*
X220662500Y-77393750D01*
X220662500Y-77393750D02*
X220162500Y-76493750D01*
X220162500Y-77493750D02*
X221162500Y-77493750D01*
X218237500Y-79693750D02*
X218237500Y-74293750D01*
X216737500Y-74293750D02*
X216737500Y-79693750D01*
X216737500Y-79693750D02*
X218237500Y-79693750D01*
X216737500Y-74293750D02*
X218237500Y-74293750D01*
X216987500Y-76493750D02*
X217987500Y-76493750D01*
X217987500Y-76493750D02*
X217487500Y-77393750D01*
X217487500Y-77393750D02*
X216987500Y-76493750D01*
X216987500Y-77493750D02*
X217987500Y-77493750D01*
X183312500Y-79693750D02*
X183312500Y-74293750D01*
X181812500Y-74293750D02*
X181812500Y-79693750D01*
X181812500Y-79693750D02*
X183312500Y-79693750D01*
X181812500Y-74293750D02*
X183312500Y-74293750D01*
X182062500Y-76493750D02*
X183062500Y-76493750D01*
X183062500Y-76493750D02*
X182562500Y-77393750D01*
X182562500Y-77393750D02*
X182062500Y-76493750D01*
X182062500Y-77493750D02*
X183062500Y-77493750D01*
X180137500Y-79693750D02*
X180137500Y-74293750D01*
X178637500Y-74293750D02*
X178637500Y-79693750D01*
X178637500Y-79693750D02*
X180137500Y-79693750D01*
X178637500Y-74293750D02*
X180137500Y-74293750D01*
X178887500Y-76493750D02*
X179887500Y-76493750D01*
X179887500Y-76493750D02*
X179387500Y-77393750D01*
X179387500Y-77393750D02*
X178887500Y-76493750D01*
X178887500Y-77493750D02*
X179887500Y-77493750D01*
X145212500Y-79693750D02*
X145212500Y-74293750D01*
X143712500Y-74293750D02*
X143712500Y-79693750D01*
X143712500Y-79693750D02*
X145212500Y-79693750D01*
X143712500Y-74293750D02*
X145212500Y-74293750D01*
X143962500Y-76493750D02*
X144962500Y-76493750D01*
X144962500Y-76493750D02*
X144462500Y-77393750D01*
X144462500Y-77393750D02*
X143962500Y-76493750D01*
X143962500Y-77493750D02*
X144962500Y-77493750D01*
X142037500Y-79693750D02*
X142037500Y-74293750D01*
X140537500Y-74293750D02*
X140537500Y-79693750D01*
X140537500Y-79693750D02*
X142037500Y-79693750D01*
X140537500Y-74293750D02*
X142037500Y-74293750D01*
X140787500Y-76493750D02*
X141787500Y-76493750D01*
X141787500Y-76493750D02*
X141287500Y-77393750D01*
X141287500Y-77393750D02*
X140787500Y-76493750D01*
X140787500Y-77493750D02*
X141787500Y-77493750D01*
X107112500Y-79693750D02*
X107112500Y-74293750D01*
X105612500Y-74293750D02*
X105612500Y-79693750D01*
X105612500Y-79693750D02*
X107112500Y-79693750D01*
X105612500Y-74293750D02*
X107112500Y-74293750D01*
X105862500Y-76493750D02*
X106862500Y-76493750D01*
X106862500Y-76493750D02*
X106362500Y-77393750D01*
X106362500Y-77393750D02*
X105862500Y-76493750D01*
X105862500Y-77493750D02*
X106862500Y-77493750D01*
X103937500Y-79693750D02*
X103937500Y-74293750D01*
X102437500Y-74293750D02*
X102437500Y-79693750D01*
X102437500Y-79693750D02*
X103937500Y-79693750D01*
X102437500Y-74293750D02*
X103937500Y-74293750D01*
X102687500Y-76493750D02*
X103687500Y-76493750D01*
X103687500Y-76493750D02*
X103187500Y-77393750D01*
X103187500Y-77393750D02*
X102687500Y-76493750D01*
X102687500Y-77493750D02*
X103687500Y-77493750D01*
X69012500Y-79693750D02*
X69012500Y-74293750D01*
X67512500Y-74293750D02*
X67512500Y-79693750D01*
X67512500Y-79693750D02*
X69012500Y-79693750D01*
X67512500Y-74293750D02*
X69012500Y-74293750D01*
X67762500Y-76493750D02*
X68762500Y-76493750D01*
X68762500Y-76493750D02*
X68262500Y-77393750D01*
X68262500Y-77393750D02*
X67762500Y-76493750D01*
X67762500Y-77493750D02*
X68762500Y-77493750D01*
X65837500Y-79693750D02*
X65837500Y-74293750D01*
X64337500Y-74293750D02*
X64337500Y-79693750D01*
X64337500Y-79693750D02*
X65837500Y-79693750D01*
X64337500Y-74293750D02*
X65837500Y-74293750D01*
X64587500Y-76493750D02*
X65587500Y-76493750D01*
X65587500Y-76493750D02*
X65087500Y-77393750D01*
X65087500Y-77393750D02*
X64587500Y-76493750D01*
X64587500Y-77493750D02*
X65587500Y-77493750D01*
X221412500Y-60643750D02*
X221412500Y-55243750D01*
X219912500Y-55243750D02*
X219912500Y-60643750D01*
X219912500Y-60643750D02*
X221412500Y-60643750D01*
X219912500Y-55243750D02*
X221412500Y-55243750D01*
X220162500Y-57443750D02*
X221162500Y-57443750D01*
X221162500Y-57443750D02*
X220662500Y-58343750D01*
X220662500Y-58343750D02*
X220162500Y-57443750D01*
X220162500Y-58443750D02*
X221162500Y-58443750D01*
X218237500Y-60643750D02*
X218237500Y-55243750D01*
X216737500Y-55243750D02*
X216737500Y-60643750D01*
X216737500Y-60643750D02*
X218237500Y-60643750D01*
X216737500Y-55243750D02*
X218237500Y-55243750D01*
X216987500Y-57443750D02*
X217987500Y-57443750D01*
X217987500Y-57443750D02*
X217487500Y-58343750D01*
X217487500Y-58343750D02*
X216987500Y-57443750D01*
X216987500Y-58443750D02*
X217987500Y-58443750D01*
X183312500Y-60643750D02*
X183312500Y-55243750D01*
X181812500Y-55243750D02*
X181812500Y-60643750D01*
X181812500Y-60643750D02*
X183312500Y-60643750D01*
X181812500Y-55243750D02*
X183312500Y-55243750D01*
X182062500Y-57443750D02*
X183062500Y-57443750D01*
X183062500Y-57443750D02*
X182562500Y-58343750D01*
X182562500Y-58343750D02*
X182062500Y-57443750D01*
X182062500Y-58443750D02*
X183062500Y-58443750D01*
X180137500Y-60643750D02*
X180137500Y-55243750D01*
X178637500Y-55243750D02*
X178637500Y-60643750D01*
X178637500Y-60643750D02*
X180137500Y-60643750D01*
X178637500Y-55243750D02*
X180137500Y-55243750D01*
X178887500Y-57443750D02*
X179887500Y-57443750D01*
X179887500Y-57443750D02*
X179387500Y-58343750D01*
X179387500Y-58343750D02*
X178887500Y-57443750D01*
X178887500Y-58443750D02*
X179887500Y-58443750D01*
X145212500Y-60643750D02*
X145212500Y-55243750D01*
X143712500Y-55243750D02*
X143712500Y-60643750D01*
X143712500Y-60643750D02*
X145212500Y-60643750D01*
X143712500Y-55243750D02*
X145212500Y-55243750D01*
X143962500Y-57443750D02*
X144962500Y-57443750D01*
X144962500Y-57443750D02*
X144462500Y-58343750D01*
X144462500Y-58343750D02*
X143962500Y-57443750D01*
X143962500Y-58443750D02*
X144962500Y-58443750D01*
X142037500Y-60643750D02*
X142037500Y-55243750D01*
X140537500Y-55243750D02*
X140537500Y-60643750D01*
X140537500Y-60643750D02*
X142037500Y-60643750D01*
X140537500Y-55243750D02*
X142037500Y-55243750D01*
X140787500Y-57443750D02*
X141787500Y-57443750D01*
X141787500Y-57443750D02*
X141287500Y-58343750D01*
X141287500Y-58343750D02*
X140787500Y-57443750D01*
X140787500Y-58443750D02*
X141787500Y-58443750D01*
X105862500Y-58443750D02*
X106862500Y-58443750D01*
X106362500Y-58343750D02*
X105862500Y-57443750D01*
X106862500Y-57443750D02*
X106362500Y-58343750D01*
X105862500Y-57443750D02*
X106862500Y-57443750D01*
X105612500Y-55243750D02*
X107112500Y-55243750D01*
X105612500Y-60643750D02*
X107112500Y-60643750D01*
X105612500Y-55243750D02*
X105612500Y-60643750D01*
X107112500Y-60643750D02*
X107112500Y-55243750D01*
X103937500Y-60643750D02*
X103937500Y-55243750D01*
X102437500Y-55243750D02*
X102437500Y-60643750D01*
X102437500Y-60643750D02*
X103937500Y-60643750D01*
X102437500Y-55243750D02*
X103937500Y-55243750D01*
X102687500Y-57443750D02*
X103687500Y-57443750D01*
X103687500Y-57443750D02*
X103187500Y-58343750D01*
X103187500Y-58343750D02*
X102687500Y-57443750D01*
X102687500Y-58443750D02*
X103687500Y-58443750D01*
X69012500Y-60643750D02*
X69012500Y-55243750D01*
X67512500Y-55243750D02*
X67512500Y-60643750D01*
X67512500Y-60643750D02*
X69012500Y-60643750D01*
X67512500Y-55243750D02*
X69012500Y-55243750D01*
X67762500Y-57443750D02*
X68762500Y-57443750D01*
X68762500Y-57443750D02*
X68262500Y-58343750D01*
X68262500Y-58343750D02*
X67762500Y-57443750D01*
X67762500Y-58443750D02*
X68762500Y-58443750D01*
X64587500Y-58443750D02*
X65587500Y-58443750D01*
X65087500Y-58343750D02*
X64587500Y-57443750D01*
X65587500Y-57443750D02*
X65087500Y-58343750D01*
X64587500Y-57443750D02*
X65587500Y-57443750D01*
X64337500Y-55243750D02*
X65837500Y-55243750D01*
X64337500Y-60643750D02*
X65837500Y-60643750D01*
X64337500Y-55243750D02*
X64337500Y-60643750D01*
X65837500Y-60643750D02*
X65837500Y-55243750D01*
D11*
X104775000Y-31750000D02*
X104775000Y-29210000D01*
X102235000Y-31750000D02*
X104775000Y-31750000D01*
D10*
G36*
X108524030Y-44144635D02*
G01*
X108624030Y-44144635D01*
X108624030Y-44244635D01*
X108524030Y-44244635D01*
X108524030Y-44144635D01*
G37*
X108524030Y-44144635D02*
X108624030Y-44144635D01*
X108624030Y-44244635D01*
X108524030Y-44244635D01*
X108524030Y-44144635D01*
G36*
X108124030Y-44344635D02*
G01*
X108924030Y-44344635D01*
X108924030Y-44444635D01*
X108124030Y-44444635D01*
X108124030Y-44344635D01*
G37*
X108124030Y-44344635D02*
X108924030Y-44344635D01*
X108924030Y-44444635D01*
X108124030Y-44444635D01*
X108124030Y-44344635D01*
G36*
X108724030Y-43944635D02*
G01*
X108924030Y-43944635D01*
X108924030Y-44044635D01*
X108724030Y-44044635D01*
X108724030Y-43944635D01*
G37*
X108724030Y-43944635D02*
X108924030Y-43944635D01*
X108924030Y-44044635D01*
X108724030Y-44044635D01*
X108724030Y-43944635D01*
G36*
X108124030Y-43944635D02*
G01*
X108424030Y-43944635D01*
X108424030Y-44044635D01*
X108124030Y-44044635D01*
X108124030Y-43944635D01*
G37*
X108124030Y-43944635D02*
X108424030Y-43944635D01*
X108424030Y-44044635D01*
X108124030Y-44044635D01*
X108124030Y-43944635D01*
G36*
X108124030Y-43944635D02*
G01*
X108224030Y-43944635D01*
X108224030Y-44444635D01*
X108124030Y-44444635D01*
X108124030Y-43944635D01*
G37*
X108124030Y-43944635D02*
X108224030Y-43944635D01*
X108224030Y-44444635D01*
X108124030Y-44444635D01*
X108124030Y-43944635D01*
D11*
X132715000Y-46990000D02*
X99695000Y-46990000D01*
X132715000Y-29210000D02*
X132715000Y-46990000D01*
X99695000Y-29210000D02*
X132715000Y-29210000D01*
X99695000Y-46990000D02*
X99695000Y-29210000D01*
X102235000Y-31750000D02*
X102235000Y-29210000D01*
D10*
X106406904Y-33229476D02*
X105606904Y-33229476D01*
X105606904Y-33039000D01*
X105645000Y-32924714D01*
X105721190Y-32848523D01*
X105797380Y-32810428D01*
X105949761Y-32772333D01*
X106064047Y-32772333D01*
X106216428Y-32810428D01*
X106292619Y-32848523D01*
X106368809Y-32924714D01*
X106406904Y-33039000D01*
X106406904Y-33229476D01*
X105683095Y-32467571D02*
X105645000Y-32429476D01*
X105606904Y-32353285D01*
X105606904Y-32162809D01*
X105645000Y-32086619D01*
X105683095Y-32048523D01*
X105759285Y-32010428D01*
X105835476Y-32010428D01*
X105949761Y-32048523D01*
X106406904Y-32505666D01*
X106406904Y-32010428D01*
X116566904Y-33229476D02*
X115766904Y-33229476D01*
X115766904Y-33039000D01*
X115805000Y-32924714D01*
X115881190Y-32848523D01*
X115957380Y-32810428D01*
X116109761Y-32772333D01*
X116224047Y-32772333D01*
X116376428Y-32810428D01*
X116452619Y-32848523D01*
X116528809Y-32924714D01*
X116566904Y-33039000D01*
X116566904Y-33229476D01*
X115766904Y-32277095D02*
X115766904Y-32200904D01*
X115805000Y-32124714D01*
X115843095Y-32086619D01*
X115919285Y-32048523D01*
X116071666Y-32010428D01*
X116262142Y-32010428D01*
X116414523Y-32048523D01*
X116490714Y-32086619D01*
X116528809Y-32124714D01*
X116566904Y-32200904D01*
X116566904Y-32277095D01*
X116528809Y-32353285D01*
X116490714Y-32391380D01*
X116414523Y-32429476D01*
X116262142Y-32467571D01*
X116071666Y-32467571D01*
X115919285Y-32429476D01*
X115843095Y-32391380D01*
X115805000Y-32353285D01*
X115766904Y-32277095D01*
X114026904Y-33229476D02*
X113226904Y-33229476D01*
X113226904Y-33039000D01*
X113265000Y-32924714D01*
X113341190Y-32848523D01*
X113417380Y-32810428D01*
X113569761Y-32772333D01*
X113684047Y-32772333D01*
X113836428Y-32810428D01*
X113912619Y-32848523D01*
X113988809Y-32924714D01*
X114026904Y-33039000D01*
X114026904Y-33229476D01*
X114026904Y-32010428D02*
X114026904Y-32467571D01*
X114026904Y-32239000D02*
X113226904Y-32239000D01*
X113341190Y-32315190D01*
X113417380Y-32391380D01*
X113455476Y-32467571D01*
X110725000Y-33248523D02*
X110686904Y-33324714D01*
X110686904Y-33439000D01*
X110725000Y-33553285D01*
X110801190Y-33629476D01*
X110877380Y-33667571D01*
X111029761Y-33705666D01*
X111144047Y-33705666D01*
X111296428Y-33667571D01*
X111372619Y-33629476D01*
X111448809Y-33553285D01*
X111486904Y-33439000D01*
X111486904Y-33362809D01*
X111448809Y-33248523D01*
X111410714Y-33210428D01*
X111144047Y-33210428D01*
X111144047Y-33362809D01*
X111486904Y-32867571D02*
X110686904Y-32867571D01*
X111486904Y-32410428D01*
X110686904Y-32410428D01*
X111486904Y-32029476D02*
X110686904Y-32029476D01*
X110686904Y-31839000D01*
X110725000Y-31724714D01*
X110801190Y-31648523D01*
X110877380Y-31610428D01*
X111029761Y-31572333D01*
X111144047Y-31572333D01*
X111296428Y-31610428D01*
X111372619Y-31648523D01*
X111448809Y-31724714D01*
X111486904Y-31839000D01*
X111486904Y-32029476D01*
X108185000Y-33248523D02*
X108146904Y-33324714D01*
X108146904Y-33439000D01*
X108185000Y-33553285D01*
X108261190Y-33629476D01*
X108337380Y-33667571D01*
X108489761Y-33705666D01*
X108604047Y-33705666D01*
X108756428Y-33667571D01*
X108832619Y-33629476D01*
X108908809Y-33553285D01*
X108946904Y-33439000D01*
X108946904Y-33362809D01*
X108908809Y-33248523D01*
X108870714Y-33210428D01*
X108604047Y-33210428D01*
X108604047Y-33362809D01*
X108946904Y-32867571D02*
X108146904Y-32867571D01*
X108946904Y-32410428D01*
X108146904Y-32410428D01*
X108946904Y-32029476D02*
X108146904Y-32029476D01*
X108146904Y-31839000D01*
X108185000Y-31724714D01*
X108261190Y-31648523D01*
X108337380Y-31610428D01*
X108489761Y-31572333D01*
X108604047Y-31572333D01*
X108756428Y-31610428D01*
X108832619Y-31648523D01*
X108908809Y-31724714D01*
X108946904Y-31839000D01*
X108946904Y-32029476D01*
X119106904Y-33229476D02*
X118306904Y-33229476D01*
X118306904Y-33039000D01*
X118345000Y-32924714D01*
X118421190Y-32848523D01*
X118497380Y-32810428D01*
X118649761Y-32772333D01*
X118764047Y-32772333D01*
X118916428Y-32810428D01*
X118992619Y-32848523D01*
X119068809Y-32924714D01*
X119106904Y-33039000D01*
X119106904Y-33229476D01*
X118573571Y-32086619D02*
X119106904Y-32086619D01*
X118268809Y-32277095D02*
X118840238Y-32467571D01*
X118840238Y-31972333D01*
X121570714Y-32772333D02*
X121608809Y-32810428D01*
X121646904Y-32924714D01*
X121646904Y-33000904D01*
X121608809Y-33115190D01*
X121532619Y-33191380D01*
X121456428Y-33229476D01*
X121304047Y-33267571D01*
X121189761Y-33267571D01*
X121037380Y-33229476D01*
X120961190Y-33191380D01*
X120885000Y-33115190D01*
X120846904Y-33000904D01*
X120846904Y-32924714D01*
X120885000Y-32810428D01*
X120923095Y-32772333D01*
X120846904Y-32086619D02*
X120846904Y-32239000D01*
X120885000Y-32315190D01*
X120923095Y-32353285D01*
X121037380Y-32429476D01*
X121189761Y-32467571D01*
X121494523Y-32467571D01*
X121570714Y-32429476D01*
X121608809Y-32391380D01*
X121646904Y-32315190D01*
X121646904Y-32162809D01*
X121608809Y-32086619D01*
X121570714Y-32048523D01*
X121494523Y-32010428D01*
X121304047Y-32010428D01*
X121227857Y-32048523D01*
X121189761Y-32086619D01*
X121151666Y-32162809D01*
X121151666Y-32315190D01*
X121189761Y-32391380D01*
X121227857Y-32429476D01*
X121304047Y-32467571D01*
X124186904Y-33229476D02*
X123386904Y-33229476D01*
X123386904Y-33039000D01*
X123425000Y-32924714D01*
X123501190Y-32848523D01*
X123577380Y-32810428D01*
X123729761Y-32772333D01*
X123844047Y-32772333D01*
X123996428Y-32810428D01*
X124072619Y-32848523D01*
X124148809Y-32924714D01*
X124186904Y-33039000D01*
X124186904Y-33229476D01*
X123386904Y-32505666D02*
X123386904Y-31972333D01*
X124186904Y-32315190D01*
X126307857Y-33191380D02*
X126307857Y-32924714D01*
X126726904Y-32810428D02*
X126726904Y-33191380D01*
X125926904Y-33191380D01*
X125926904Y-32810428D01*
X125926904Y-32124714D02*
X125926904Y-32277095D01*
X125965000Y-32353285D01*
X126003095Y-32391380D01*
X126117380Y-32467571D01*
X126269761Y-32505666D01*
X126574523Y-32505666D01*
X126650714Y-32467571D01*
X126688809Y-32429476D01*
X126726904Y-32353285D01*
X126726904Y-32200904D01*
X126688809Y-32124714D01*
X126650714Y-32086619D01*
X126574523Y-32048523D01*
X126384047Y-32048523D01*
X126307857Y-32086619D01*
X126269761Y-32124714D01*
X126231666Y-32200904D01*
X126231666Y-32353285D01*
X126269761Y-32429476D01*
X126307857Y-32467571D01*
X126384047Y-32505666D01*
X128847857Y-32962809D02*
X128885952Y-32848523D01*
X128924047Y-32810428D01*
X129000238Y-32772333D01*
X129114523Y-32772333D01*
X129190714Y-32810428D01*
X129228809Y-32848523D01*
X129266904Y-32924714D01*
X129266904Y-33229476D01*
X128466904Y-33229476D01*
X128466904Y-32962809D01*
X128505000Y-32886619D01*
X128543095Y-32848523D01*
X128619285Y-32810428D01*
X128695476Y-32810428D01*
X128771666Y-32848523D01*
X128809761Y-32886619D01*
X128847857Y-32962809D01*
X128847857Y-33229476D01*
X128733571Y-32086619D02*
X129266904Y-32086619D01*
X128428809Y-32277095D02*
X129000238Y-32467571D01*
X129000238Y-31972333D01*
X131387857Y-32962809D02*
X131425952Y-32848523D01*
X131464047Y-32810428D01*
X131540238Y-32772333D01*
X131654523Y-32772333D01*
X131730714Y-32810428D01*
X131768809Y-32848523D01*
X131806904Y-32924714D01*
X131806904Y-33229476D01*
X131006904Y-33229476D01*
X131006904Y-32962809D01*
X131045000Y-32886619D01*
X131083095Y-32848523D01*
X131159285Y-32810428D01*
X131235476Y-32810428D01*
X131311666Y-32848523D01*
X131349761Y-32886619D01*
X131387857Y-32962809D01*
X131387857Y-33229476D01*
X131006904Y-32048523D02*
X131006904Y-32429476D01*
X131387857Y-32467571D01*
X131349761Y-32429476D01*
X131311666Y-32353285D01*
X131311666Y-32162809D01*
X131349761Y-32086619D01*
X131387857Y-32048523D01*
X131464047Y-32010428D01*
X131654523Y-32010428D01*
X131730714Y-32048523D01*
X131768809Y-32086619D01*
X131806904Y-32162809D01*
X131806904Y-32353285D01*
X131768809Y-32429476D01*
X131730714Y-32467571D01*
X131387857Y-43884809D02*
X131425952Y-43770523D01*
X131464047Y-43732428D01*
X131540238Y-43694333D01*
X131654523Y-43694333D01*
X131730714Y-43732428D01*
X131768809Y-43770523D01*
X131806904Y-43846714D01*
X131806904Y-44151476D01*
X131006904Y-44151476D01*
X131006904Y-43884809D01*
X131045000Y-43808619D01*
X131083095Y-43770523D01*
X131159285Y-43732428D01*
X131235476Y-43732428D01*
X131311666Y-43770523D01*
X131349761Y-43808619D01*
X131387857Y-43884809D01*
X131387857Y-44151476D01*
X131006904Y-43008619D02*
X131006904Y-43161000D01*
X131045000Y-43237190D01*
X131083095Y-43275285D01*
X131197380Y-43351476D01*
X131349761Y-43389571D01*
X131654523Y-43389571D01*
X131730714Y-43351476D01*
X131768809Y-43313380D01*
X131806904Y-43237190D01*
X131806904Y-43084809D01*
X131768809Y-43008619D01*
X131730714Y-42970523D01*
X131654523Y-42932428D01*
X131464047Y-42932428D01*
X131387857Y-42970523D01*
X131349761Y-43008619D01*
X131311666Y-43084809D01*
X131311666Y-43237190D01*
X131349761Y-43313380D01*
X131387857Y-43351476D01*
X131464047Y-43389571D01*
X126307857Y-43884809D02*
X126345952Y-43770523D01*
X126384047Y-43732428D01*
X126460238Y-43694333D01*
X126574523Y-43694333D01*
X126650714Y-43732428D01*
X126688809Y-43770523D01*
X126726904Y-43846714D01*
X126726904Y-44151476D01*
X125926904Y-44151476D01*
X125926904Y-43884809D01*
X125965000Y-43808619D01*
X126003095Y-43770523D01*
X126079285Y-43732428D01*
X126155476Y-43732428D01*
X126231666Y-43770523D01*
X126269761Y-43808619D01*
X126307857Y-43884809D01*
X126307857Y-44151476D01*
X125926904Y-43427666D02*
X125926904Y-42932428D01*
X126231666Y-43199095D01*
X126231666Y-43084809D01*
X126269761Y-43008619D01*
X126307857Y-42970523D01*
X126384047Y-42932428D01*
X126574523Y-42932428D01*
X126650714Y-42970523D01*
X126688809Y-43008619D01*
X126726904Y-43084809D01*
X126726904Y-43313380D01*
X126688809Y-43389571D01*
X126650714Y-43427666D01*
X123767857Y-43884809D02*
X123805952Y-43770523D01*
X123844047Y-43732428D01*
X123920238Y-43694333D01*
X124034523Y-43694333D01*
X124110714Y-43732428D01*
X124148809Y-43770523D01*
X124186904Y-43846714D01*
X124186904Y-44151476D01*
X123386904Y-44151476D01*
X123386904Y-43884809D01*
X123425000Y-43808619D01*
X123463095Y-43770523D01*
X123539285Y-43732428D01*
X123615476Y-43732428D01*
X123691666Y-43770523D01*
X123729761Y-43808619D01*
X123767857Y-43884809D01*
X123767857Y-44151476D01*
X124186904Y-42932428D02*
X124186904Y-43389571D01*
X124186904Y-43161000D02*
X123386904Y-43161000D01*
X123501190Y-43237190D01*
X123577380Y-43313380D01*
X123615476Y-43389571D01*
X113607857Y-43827666D02*
X113607857Y-44094333D01*
X114026904Y-44094333D02*
X113226904Y-44094333D01*
X113226904Y-43713380D01*
X113493571Y-43065761D02*
X114026904Y-43065761D01*
X113188809Y-43256238D02*
X113760238Y-43446714D01*
X113760238Y-42951476D01*
X110686904Y-44627666D02*
X111486904Y-44361000D01*
X110686904Y-44094333D01*
X111410714Y-43370523D02*
X111448809Y-43408619D01*
X111486904Y-43522904D01*
X111486904Y-43599095D01*
X111448809Y-43713380D01*
X111372619Y-43789571D01*
X111296428Y-43827666D01*
X111144047Y-43865761D01*
X111029761Y-43865761D01*
X110877380Y-43827666D01*
X110801190Y-43789571D01*
X110725000Y-43713380D01*
X110686904Y-43599095D01*
X110686904Y-43522904D01*
X110725000Y-43408619D01*
X110763095Y-43370523D01*
X111410714Y-42570523D02*
X111448809Y-42608619D01*
X111486904Y-42722904D01*
X111486904Y-42799095D01*
X111448809Y-42913380D01*
X111372619Y-42989571D01*
X111296428Y-43027666D01*
X111144047Y-43065761D01*
X111029761Y-43065761D01*
X110877380Y-43027666D01*
X110801190Y-42989571D01*
X110725000Y-42913380D01*
X110686904Y-42799095D01*
X110686904Y-42722904D01*
X110725000Y-42608619D01*
X110763095Y-42570523D01*
X105645000Y-44170523D02*
X105606904Y-44246714D01*
X105606904Y-44361000D01*
X105645000Y-44475285D01*
X105721190Y-44551476D01*
X105797380Y-44589571D01*
X105949761Y-44627666D01*
X106064047Y-44627666D01*
X106216428Y-44589571D01*
X106292619Y-44551476D01*
X106368809Y-44475285D01*
X106406904Y-44361000D01*
X106406904Y-44284809D01*
X106368809Y-44170523D01*
X106330714Y-44132428D01*
X106064047Y-44132428D01*
X106064047Y-44284809D01*
X106406904Y-43789571D02*
X105606904Y-43789571D01*
X106406904Y-43332428D01*
X105606904Y-43332428D01*
X106406904Y-42951476D02*
X105606904Y-42951476D01*
X105606904Y-42761000D01*
X105645000Y-42646714D01*
X105721190Y-42570523D01*
X105797380Y-42532428D01*
X105949761Y-42494333D01*
X106064047Y-42494333D01*
X106216428Y-42532428D01*
X106292619Y-42570523D01*
X106368809Y-42646714D01*
X106406904Y-42761000D01*
X106406904Y-42951476D01*
X103866904Y-44113380D02*
X103485952Y-44380047D01*
X103866904Y-44570523D02*
X103066904Y-44570523D01*
X103066904Y-44265761D01*
X103105000Y-44189571D01*
X103143095Y-44151476D01*
X103219285Y-44113380D01*
X103333571Y-44113380D01*
X103409761Y-44151476D01*
X103447857Y-44189571D01*
X103485952Y-44265761D01*
X103485952Y-44570523D01*
X103638333Y-43808619D02*
X103638333Y-43427666D01*
X103866904Y-43884809D02*
X103066904Y-43618142D01*
X103866904Y-43351476D01*
X103066904Y-43161000D02*
X103866904Y-42970523D01*
X103295476Y-42818142D01*
X103866904Y-42665761D01*
X103066904Y-42475285D01*
X116147857Y-43827666D02*
X116147857Y-44094333D01*
X116566904Y-44094333D02*
X115766904Y-44094333D01*
X115766904Y-43713380D01*
X115766904Y-43027666D02*
X115766904Y-43408619D01*
X116147857Y-43446714D01*
X116109761Y-43408619D01*
X116071666Y-43332428D01*
X116071666Y-43141952D01*
X116109761Y-43065761D01*
X116147857Y-43027666D01*
X116224047Y-42989571D01*
X116414523Y-42989571D01*
X116490714Y-43027666D01*
X116528809Y-43065761D01*
X116566904Y-43141952D01*
X116566904Y-43332428D01*
X116528809Y-43408619D01*
X116490714Y-43446714D01*
X118687857Y-43827666D02*
X118687857Y-44094333D01*
X119106904Y-44094333D02*
X118306904Y-44094333D01*
X118306904Y-43713380D01*
X118306904Y-43065761D02*
X118306904Y-43218142D01*
X118345000Y-43294333D01*
X118383095Y-43332428D01*
X118497380Y-43408619D01*
X118649761Y-43446714D01*
X118954523Y-43446714D01*
X119030714Y-43408619D01*
X119068809Y-43370523D01*
X119106904Y-43294333D01*
X119106904Y-43141952D01*
X119068809Y-43065761D01*
X119030714Y-43027666D01*
X118954523Y-42989571D01*
X118764047Y-42989571D01*
X118687857Y-43027666D01*
X118649761Y-43065761D01*
X118611666Y-43141952D01*
X118611666Y-43294333D01*
X118649761Y-43370523D01*
X118687857Y-43408619D01*
X118764047Y-43446714D01*
X121227857Y-43827666D02*
X121227857Y-44094333D01*
X121646904Y-44094333D02*
X120846904Y-44094333D01*
X120846904Y-43713380D01*
X120846904Y-43484809D02*
X120846904Y-42951476D01*
X121646904Y-43294333D01*
X128847857Y-43884809D02*
X128885952Y-43770523D01*
X128924047Y-43732428D01*
X129000238Y-43694333D01*
X129114523Y-43694333D01*
X129190714Y-43732428D01*
X129228809Y-43770523D01*
X129266904Y-43846714D01*
X129266904Y-44151476D01*
X128466904Y-44151476D01*
X128466904Y-43884809D01*
X128505000Y-43808619D01*
X128543095Y-43770523D01*
X128619285Y-43732428D01*
X128695476Y-43732428D01*
X128771666Y-43770523D01*
X128809761Y-43808619D01*
X128847857Y-43884809D01*
X128847857Y-44151476D01*
X128543095Y-43389571D02*
X128505000Y-43351476D01*
X128466904Y-43275285D01*
X128466904Y-43084809D01*
X128505000Y-43008619D01*
X128543095Y-42970523D01*
X128619285Y-42932428D01*
X128695476Y-42932428D01*
X128809761Y-42970523D01*
X129266904Y-43427666D01*
X129266904Y-42932428D01*
X103066904Y-36718604D02*
X103066904Y-36261461D01*
X103866904Y-36490032D02*
X103066904Y-36490032D01*
X103066904Y-36070985D02*
X103866904Y-35537651D01*
X103066904Y-35537651D02*
X103866904Y-36070985D01*
X103066904Y-35080508D02*
X103066904Y-35004318D01*
X103105000Y-34928128D01*
X103143095Y-34890032D01*
X103219285Y-34851937D01*
X103371666Y-34813842D01*
X103562142Y-34813842D01*
X103714523Y-34851937D01*
X103790714Y-34890032D01*
X103828809Y-34928128D01*
X103866904Y-35004318D01*
X103866904Y-35080508D01*
X103828809Y-35156699D01*
X103790714Y-35194794D01*
X103714523Y-35232889D01*
X103562142Y-35270985D01*
X103371666Y-35270985D01*
X103219285Y-35232889D01*
X103143095Y-35194794D01*
X103105000Y-35156699D01*
X103066904Y-35080508D01*
X103028809Y-33899556D02*
X104057380Y-34585270D01*
X103866904Y-33632889D02*
X103066904Y-33632889D01*
X103066904Y-33442413D01*
X103105000Y-33328128D01*
X103181190Y-33251937D01*
X103257380Y-33213842D01*
X103409761Y-33175747D01*
X103524047Y-33175747D01*
X103676428Y-33213842D01*
X103752619Y-33251937D01*
X103828809Y-33328128D01*
X103866904Y-33442413D01*
X103866904Y-33632889D01*
X103066904Y-32909080D02*
X103066904Y-32413842D01*
X103371666Y-32680508D01*
X103371666Y-32566223D01*
X103409761Y-32490032D01*
X103447857Y-32451937D01*
X103524047Y-32413842D01*
X103714523Y-32413842D01*
X103790714Y-32451937D01*
X103828809Y-32490032D01*
X103866904Y-32566223D01*
X103866904Y-32794794D01*
X103828809Y-32870985D01*
X103790714Y-32909080D01*
X108888809Y-43673333D02*
X108926904Y-43559047D01*
X108926904Y-43368571D01*
X108888809Y-43292380D01*
X108850714Y-43254285D01*
X108774523Y-43216190D01*
X108698333Y-43216190D01*
X108622142Y-43254285D01*
X108584047Y-43292380D01*
X108545952Y-43368571D01*
X108507857Y-43520952D01*
X108469761Y-43597142D01*
X108431666Y-43635238D01*
X108355476Y-43673333D01*
X108279285Y-43673333D01*
X108203095Y-43635238D01*
X108165000Y-43597142D01*
X108126904Y-43520952D01*
X108126904Y-43330476D01*
X108165000Y-43216190D01*
X108126904Y-42987619D02*
X108126904Y-42530476D01*
X108926904Y-42759047D02*
X108126904Y-42759047D01*
%LPC*%
D12*
X223520000Y-57150000D03*
X233680000Y-57150000D03*
D13*
X232410000Y-54610000D03*
D14*
X228600000Y-57150000D03*
D13*
X226060000Y-52070000D03*
D12*
X90170000Y-114300000D03*
X100330000Y-114300000D03*
D13*
X99060000Y-111760000D03*
D14*
X95250000Y-114300000D03*
D13*
X92710000Y-109220000D03*
D12*
X166370000Y-114300000D03*
X176530000Y-114300000D03*
D13*
X175260000Y-111760000D03*
D14*
X171450000Y-114300000D03*
D13*
X168910000Y-109220000D03*
D12*
X137795000Y-38100000D03*
X147955000Y-38100000D03*
D13*
X146685000Y-35560000D03*
D14*
X142875000Y-38100000D03*
D13*
X140335000Y-33020000D03*
D15*
X211137500Y-37118750D03*
X211137500Y-40668750D03*
X207962500Y-37118750D03*
X207962500Y-40668750D03*
X154781250Y-37118750D03*
X154781250Y-40668750D03*
X152400000Y-40668750D03*
X152400000Y-37118750D03*
X150018750Y-37118750D03*
X150018750Y-40668750D03*
X220662500Y-113318750D03*
X220662500Y-116868750D03*
X217487500Y-116868750D03*
X217487500Y-113318750D03*
X183356250Y-113318750D03*
X183356250Y-116868750D03*
X180975000Y-113318750D03*
X180975000Y-116868750D03*
X178593750Y-113318750D03*
X178593750Y-116868750D03*
X107156250Y-113318750D03*
X107156250Y-116868750D03*
X104775000Y-113318750D03*
X104775000Y-116868750D03*
X102393750Y-113318750D03*
X102393750Y-116868750D03*
X68262500Y-113318750D03*
X68262500Y-116868750D03*
X65087500Y-113318750D03*
X65087500Y-116868750D03*
X220662500Y-94268750D03*
X220662500Y-97818750D03*
X217487500Y-94268750D03*
X217487500Y-97818750D03*
X182562500Y-94268750D03*
X182562500Y-97818750D03*
X179387500Y-94268750D03*
X179387500Y-97818750D03*
X144462500Y-94268750D03*
X144462500Y-97818750D03*
X141287500Y-94268750D03*
X141287500Y-97818750D03*
X106362500Y-94268750D03*
X106362500Y-97818750D03*
X103187500Y-94268750D03*
X103187500Y-97818750D03*
X68262500Y-94268750D03*
X68262500Y-97818750D03*
X65087500Y-94268750D03*
X65087500Y-97818750D03*
X220662500Y-75218750D03*
X220662500Y-78768750D03*
X217487500Y-75218750D03*
X217487500Y-78768750D03*
X182562500Y-75218750D03*
X182562500Y-78768750D03*
X179387500Y-75218750D03*
X179387500Y-78768750D03*
X144462500Y-75218750D03*
X144462500Y-78768750D03*
X141287500Y-75218750D03*
X141287500Y-78768750D03*
X106362500Y-75218750D03*
X106362500Y-78768750D03*
X103187500Y-75218750D03*
X103187500Y-78768750D03*
X68262500Y-75218750D03*
X68262500Y-78768750D03*
X65087500Y-75218750D03*
X65087500Y-78768750D03*
X220662500Y-56168750D03*
X220662500Y-59718750D03*
X217487500Y-56168750D03*
X217487500Y-59718750D03*
X182562500Y-56168750D03*
X182562500Y-59718750D03*
X179387500Y-56168750D03*
X179387500Y-59718750D03*
X144462500Y-56168750D03*
X144462500Y-59718750D03*
X141287500Y-56168750D03*
X141287500Y-59718750D03*
X106362500Y-59718750D03*
X106362500Y-56168750D03*
X103187500Y-56168750D03*
X103187500Y-59718750D03*
X68262500Y-56168750D03*
X68262500Y-59718750D03*
X65087500Y-59718750D03*
X65087500Y-56168750D03*
D12*
X194945000Y-38100000D03*
X205105000Y-38100000D03*
D13*
X203835000Y-35560000D03*
D14*
X200025000Y-38100000D03*
D13*
X197485000Y-33020000D03*
D12*
X213995000Y-38100000D03*
X224155000Y-38100000D03*
D13*
X222885000Y-35560000D03*
D14*
X219075000Y-38100000D03*
D13*
X216535000Y-33020000D03*
D16*
X103505000Y-30480000D03*
D17*
X106045000Y-30480000D03*
X108585000Y-30480000D03*
X111125000Y-30480000D03*
X113665000Y-30480000D03*
X116205000Y-30480000D03*
X118745000Y-30480000D03*
X121285000Y-30480000D03*
X123825000Y-30480000D03*
X126365000Y-30480000D03*
X128905000Y-30480000D03*
X131445000Y-45720000D03*
X128905000Y-45720000D03*
X126365000Y-45720000D03*
X123825000Y-45720000D03*
X121285000Y-45720000D03*
X118745000Y-45720000D03*
X116205000Y-45720000D03*
X113665000Y-45720000D03*
X111125000Y-45720000D03*
X108585000Y-45720000D03*
X106045000Y-45720000D03*
X131445000Y-30480000D03*
X103505000Y-45720000D03*
D14*
X150018750Y-106045000D03*
X173831250Y-106045000D03*
D18*
X150018750Y-121285000D03*
X173831250Y-121285000D03*
D12*
X156845000Y-114300000D03*
X167005000Y-114300000D03*
D13*
X165735000Y-111760000D03*
D14*
X161925000Y-114300000D03*
D13*
X159385000Y-109220000D03*
D14*
X111918750Y-106045000D03*
X135731250Y-106045000D03*
D18*
X111918750Y-121285000D03*
X135731250Y-121285000D03*
D12*
X118745000Y-114300000D03*
X128905000Y-114300000D03*
D13*
X127635000Y-111760000D03*
D14*
X123825000Y-114300000D03*
D13*
X121285000Y-109220000D03*
X140335000Y-109220000D03*
D14*
X142875000Y-114300000D03*
D13*
X146685000Y-111760000D03*
D12*
X147955000Y-114300000D03*
X137795000Y-114300000D03*
D18*
X190500000Y-121285000D03*
X95250000Y-121285000D03*
D14*
X190500000Y-106045000D03*
X95250000Y-106045000D03*
D12*
X175895000Y-38100000D03*
X186055000Y-38100000D03*
D13*
X184785000Y-35560000D03*
D14*
X180975000Y-38100000D03*
D13*
X178435000Y-33020000D03*
D12*
X156845000Y-38100000D03*
X167005000Y-38100000D03*
D13*
X165735000Y-35560000D03*
D14*
X161925000Y-38100000D03*
D13*
X159385000Y-33020000D03*
D12*
X223520000Y-114300000D03*
X233680000Y-114300000D03*
D13*
X232410000Y-111760000D03*
D14*
X228600000Y-114300000D03*
D13*
X226060000Y-109220000D03*
D12*
X204470000Y-114300000D03*
X214630000Y-114300000D03*
D13*
X213360000Y-111760000D03*
D14*
X209550000Y-114300000D03*
D13*
X207010000Y-109220000D03*
D12*
X185420000Y-114300000D03*
X195580000Y-114300000D03*
D13*
X194310000Y-111760000D03*
D14*
X190500000Y-114300000D03*
D13*
X187960000Y-109220000D03*
D12*
X147320000Y-114300000D03*
X157480000Y-114300000D03*
D13*
X156210000Y-111760000D03*
D14*
X152400000Y-114300000D03*
D13*
X149860000Y-109220000D03*
D12*
X128270000Y-114300000D03*
X138430000Y-114300000D03*
D13*
X137160000Y-111760000D03*
D14*
X133350000Y-114300000D03*
D13*
X130810000Y-109220000D03*
D12*
X109220000Y-114300000D03*
X119380000Y-114300000D03*
D13*
X118110000Y-111760000D03*
D14*
X114300000Y-114300000D03*
D13*
X111760000Y-109220000D03*
D12*
X71120000Y-114300000D03*
X81280000Y-114300000D03*
D13*
X80010000Y-111760000D03*
D14*
X76200000Y-114300000D03*
D13*
X73660000Y-109220000D03*
D12*
X52070000Y-114300000D03*
X62230000Y-114300000D03*
D13*
X60960000Y-111760000D03*
D14*
X57150000Y-114300000D03*
D13*
X54610000Y-109220000D03*
D12*
X223520000Y-95250000D03*
X233680000Y-95250000D03*
D13*
X232410000Y-92710000D03*
D14*
X228600000Y-95250000D03*
D13*
X226060000Y-90170000D03*
D12*
X204470000Y-95250000D03*
X214630000Y-95250000D03*
D13*
X213360000Y-92710000D03*
D14*
X209550000Y-95250000D03*
D13*
X207010000Y-90170000D03*
D12*
X185420000Y-95250000D03*
X195580000Y-95250000D03*
D13*
X194310000Y-92710000D03*
D14*
X190500000Y-95250000D03*
D13*
X187960000Y-90170000D03*
D12*
X166370000Y-95250000D03*
X176530000Y-95250000D03*
D13*
X175260000Y-92710000D03*
D14*
X171450000Y-95250000D03*
D13*
X168910000Y-90170000D03*
D12*
X147320000Y-95250000D03*
X157480000Y-95250000D03*
D13*
X156210000Y-92710000D03*
D14*
X152400000Y-95250000D03*
D13*
X149860000Y-90170000D03*
D12*
X128270000Y-95250000D03*
X138430000Y-95250000D03*
D13*
X137160000Y-92710000D03*
D14*
X133350000Y-95250000D03*
D13*
X130810000Y-90170000D03*
D12*
X109220000Y-95250000D03*
X119380000Y-95250000D03*
D13*
X118110000Y-92710000D03*
D14*
X114300000Y-95250000D03*
D13*
X111760000Y-90170000D03*
D12*
X90170000Y-95250000D03*
X100330000Y-95250000D03*
D13*
X99060000Y-92710000D03*
D14*
X95250000Y-95250000D03*
D13*
X92710000Y-90170000D03*
D12*
X71120000Y-95250000D03*
X81280000Y-95250000D03*
D13*
X80010000Y-92710000D03*
D14*
X76200000Y-95250000D03*
D13*
X73660000Y-90170000D03*
D12*
X52070000Y-95250000D03*
X62230000Y-95250000D03*
D13*
X60960000Y-92710000D03*
D14*
X57150000Y-95250000D03*
D13*
X54610000Y-90170000D03*
D12*
X223520000Y-76200000D03*
X233680000Y-76200000D03*
D13*
X232410000Y-73660000D03*
D14*
X228600000Y-76200000D03*
D13*
X226060000Y-71120000D03*
D12*
X204470000Y-76200000D03*
X214630000Y-76200000D03*
D13*
X213360000Y-73660000D03*
D14*
X209550000Y-76200000D03*
D13*
X207010000Y-71120000D03*
D12*
X185420000Y-76200000D03*
X195580000Y-76200000D03*
D13*
X194310000Y-73660000D03*
D14*
X190500000Y-76200000D03*
D13*
X187960000Y-71120000D03*
D12*
X166370000Y-76200000D03*
X176530000Y-76200000D03*
D13*
X175260000Y-73660000D03*
D14*
X171450000Y-76200000D03*
D13*
X168910000Y-71120000D03*
X149860000Y-71120000D03*
D14*
X152400000Y-76200000D03*
D13*
X156210000Y-73660000D03*
D12*
X157480000Y-76200000D03*
X147320000Y-76200000D03*
X128270000Y-76200000D03*
X138430000Y-76200000D03*
D13*
X137160000Y-73660000D03*
D14*
X133350000Y-76200000D03*
D13*
X130810000Y-71120000D03*
D12*
X109220000Y-76200000D03*
X119380000Y-76200000D03*
D13*
X118110000Y-73660000D03*
D14*
X114300000Y-76200000D03*
D13*
X111760000Y-71120000D03*
D12*
X90170000Y-76200000D03*
X100330000Y-76200000D03*
D13*
X99060000Y-73660000D03*
D14*
X95250000Y-76200000D03*
D13*
X92710000Y-71120000D03*
D12*
X71120000Y-76200000D03*
X81280000Y-76200000D03*
D13*
X80010000Y-73660000D03*
D14*
X76200000Y-76200000D03*
D13*
X73660000Y-71120000D03*
D12*
X52070000Y-76200000D03*
X62230000Y-76200000D03*
D13*
X60960000Y-73660000D03*
D14*
X57150000Y-76200000D03*
D13*
X54610000Y-71120000D03*
D12*
X204470000Y-57150000D03*
X214630000Y-57150000D03*
D13*
X213360000Y-54610000D03*
D14*
X209550000Y-57150000D03*
D13*
X207010000Y-52070000D03*
D12*
X185420000Y-57150000D03*
X195580000Y-57150000D03*
D13*
X194310000Y-54610000D03*
D14*
X190500000Y-57150000D03*
D13*
X187960000Y-52070000D03*
D12*
X166370000Y-57150000D03*
X176530000Y-57150000D03*
D13*
X175260000Y-54610000D03*
D14*
X171450000Y-57150000D03*
D13*
X168910000Y-52070000D03*
D12*
X147320000Y-57150000D03*
X157480000Y-57150000D03*
D13*
X156210000Y-54610000D03*
D14*
X152400000Y-57150000D03*
D13*
X149860000Y-52070000D03*
D12*
X128270000Y-57150000D03*
X138430000Y-57150000D03*
D13*
X137160000Y-54610000D03*
D14*
X133350000Y-57150000D03*
D13*
X130810000Y-52070000D03*
D12*
X109220000Y-57150000D03*
X119380000Y-57150000D03*
D13*
X118110000Y-54610000D03*
D14*
X114300000Y-57150000D03*
D13*
X111760000Y-52070000D03*
D12*
X90170000Y-57150000D03*
X100330000Y-57150000D03*
D13*
X99060000Y-54610000D03*
D14*
X95250000Y-57150000D03*
D13*
X92710000Y-52070000D03*
D12*
X71120000Y-57150000D03*
X81280000Y-57150000D03*
D13*
X80010000Y-54610000D03*
D14*
X76200000Y-57150000D03*
D13*
X73660000Y-52070000D03*
D12*
X52070000Y-57150000D03*
X62230000Y-57150000D03*
D13*
X60960000Y-54610000D03*
D14*
X57150000Y-57150000D03*
D13*
X54610000Y-52070000D03*
M02*
